<svg xmlns="http://www.w3.org/2000/svg" viewBox="0 0 592.81 581.84"><defs><style>.cls-1{fill:#662482;}.cls-2{fill:#f8b133;}</style></defs><g id="Layer_2" data-name="Layer 2"><g id="Layer_1-2" data-name="Layer 1"><path class="cls-1" d="M39.57,416.88A288.27,288.27,0,0,1,11,290.92C11,130.51,141.47,0,301.88,0A291.35,291.35,0,0,1,439.81,34.71L437.49,39A286.4,286.4,0,0,0,301.88,4.89c-157.72,0-286,128.31-286,286A283.26,283.26,0,0,0,44,414.76Z"/><path class="cls-1" d="M301.89,581.84a290.65,290.65,0,0,1-147.36-40l2.48-4.22A285.74,285.74,0,0,0,301.89,577c157.72,0,286-128.31,286-286a285.07,285.07,0,0,0-45-154.07l4.12-2.64a290,290,0,0,1,45.77,156.71C592.81,451.33,462.3,581.84,301.89,581.84Z"/><circle class="cls-1" cx="301.88" cy="290.92" r="219.84" transform="translate(-117.29 298.67) rotate(-45)"/><path class="cls-2" d="M55.87,450.54a.45.45,0,0,1-.16,0,.4.4,0,0,1-.22-.53,329.7,329.7,0,0,0,15.3-45.27.41.41,0,0,1,.5-.29.41.41,0,0,1,.29.5A329.52,329.52,0,0,1,56.24,450.3.39.39,0,0,1,55.87,450.54Z"/><path class="cls-2" d="M24.17,530.83l-.14,0a.41.41,0,0,1-.25-.52C29.57,514,37,498.13,44.15,482.8c1.5-3.22,3-6.44,4.5-9.67A561.39,561.39,0,0,0,73.1,410.69a.41.41,0,0,1,.51-.26.41.41,0,0,1,.26.52,561,561,0,0,1-24.48,62.53c-1.49,3.23-3,6.45-4.5,9.67-7.16,15.32-14.56,31.16-20.34,47.42A.43.43,0,0,1,24.17,530.83Z"/><path class="cls-2" d="M43.72,480.1l-.13,0a.41.41,0,0,1-.26-.52,264.7,264.7,0,0,1,11.55-28.71.4.4,0,0,1,.54-.19.4.4,0,0,1,.19.54,263.9,263.9,0,0,0-11.52,28.62A.38.38,0,0,1,43.72,480.1Z"/><path class="cls-2" d="M24,528H23.9a.41.41,0,0,1-.29-.5,50.57,50.57,0,0,1,3.26-8.29,56.13,56.13,0,0,0,3-7.41,187.7,187.7,0,0,1,10-25.84.4.4,0,1,1,.73.35,185.22,185.22,0,0,0-10,25.72,56.14,56.14,0,0,1-3,7.52,50.41,50.41,0,0,0-3.21,8.16A.38.38,0,0,1,24,528Z"/><path class="cls-2" d="M27.73,535.07h-.1a.4.4,0,0,1-.3-.49c2.82-11.72,8.31-22.73,13.62-33.37l1.63-3.28c13.13-26.5,24.89-54.18,36.27-81l.75.31c-11.38,26.79-23.15,54.49-36.29,81l-1.63,3.28c-5.29,10.6-10.75,21.57-13.55,33.2A.42.42,0,0,1,27.73,535.07Z"/><path class="cls-2" d="M60.34,454a.33.33,0,0,1-.17,0,.41.41,0,0,1-.2-.54c5.85-12.66,11.2-25.74,15.89-38.87a.41.41,0,0,1,.77.27C71.92,428,66.57,441.05,60.71,453.73A.39.39,0,0,1,60.34,454Z"/><path class="cls-2" d="M25.34,533.17a.35.35,0,0,1-.14,0,.4.4,0,0,1-.24-.52c6-16.19,12.85-32.28,20.38-47.82a.41.41,0,0,1,.74.36c-7.52,15.52-14.36,31.58-20.35,47.75A.42.42,0,0,1,25.34,533.17Z"/><path class="cls-2" d="M42.08,509.51a.35.35,0,0,1-.17,0,.4.4,0,0,1-.2-.54c3.83-8.44,7.89-16.92,12.07-25.22a.41.41,0,0,1,.73.37c-4.17,8.29-8.23,16.77-12.06,25.19A.39.39,0,0,1,42.08,509.51Z"/><path class="cls-2" d="M59.91,476.5a.45.45,0,0,1-.19-.05.41.41,0,0,1-.17-.55c4.37-8.24,9-16.45,13.92-24.41a.41.41,0,0,1,.56-.13.42.42,0,0,1,.14.56c-4.86,7.94-9.54,16.13-13.9,24.36A.38.38,0,0,1,59.91,476.5Z"/><path class="cls-2" d="M41.21,551.07a.41.41,0,0,1-.18-.78c18.81-9.19,37.46-19.3,55.45-30.06a.42.42,0,0,1,.56.14.41.41,0,0,1-.14.56c-18,10.76-36.68,20.89-55.51,30.09A.31.31,0,0,1,41.21,551.07Z"/><path class="cls-2" d="M107.63,514.73a.4.4,0,0,1-.36-.22.41.41,0,0,1,.18-.55l42.62-22a.41.41,0,1,1,.37.73l-42.62,22A.46.46,0,0,1,107.63,514.73Z"/><path class="cls-2" d="M44.48,554.49a.41.41,0,0,1-.18-.78l53.78-26.33a.42.42,0,0,1,.55.19.41.41,0,0,1-.19.55L44.66,554.45A.58.58,0,0,1,44.48,554.49Z"/><path class="cls-2" d="M49.2,557.74a.42.42,0,0,1-.37-.23A.4.4,0,0,1,49,557c25.27-12,51.39-24.31,78-34.33,3.52-1.33,7.07-2.62,10.61-3.91,9.68-3.52,19.67-7.16,29.17-11.56a.41.41,0,0,1,.3-.47l1.58-.41a.41.41,0,0,1,.48.26.41.41,0,0,1-.21.51c-10.08,4.8-20.74,8.68-31.06,12.44-3.54,1.29-7.08,2.58-10.6,3.9-26.59,10-52.7,22.36-77.95,34.3A.22.22,0,0,1,49.2,557.74Z"/><path class="cls-2" d="M110.58,526.1a.41.41,0,0,1-.38-.25.4.4,0,0,1,.22-.53L165,502.52a.41.41,0,0,1,.31.75l-54.53,22.8Z"/><path class="cls-2" d="M90.43,528.52a.41.41,0,0,1-.18-.78c20.51-10,41.72-20.42,63.66-28.13a.41.41,0,1,1,.27.77c-21.9,7.69-43.09,18.06-63.58,28.09A.34.34,0,0,1,90.43,528.52Z"/><path class="cls-2" d="M104.94,524.9a.42.42,0,0,1-.39-.28.4.4,0,0,1,.27-.51A266.14,266.14,0,0,0,137,511.54l.27-.13a26.58,26.58,0,0,1,7.47-2.63.42.42,0,0,1,.46.35.41.41,0,0,1-.35.46,25.69,25.69,0,0,0-7.23,2.56l-.27.13a267.15,267.15,0,0,1-32.24,12.61Z"/><path class="cls-2" d="M103.71,535.44a.42.42,0,0,1-.39-.27.42.42,0,0,1,.25-.52c22.81-7.92,45.57-16.9,67.62-26.71a.9.9,0,0,0,.24-.24,1.3,1.3,0,0,1,.67-.5.56.56,0,0,1,.69.4c.08.28,0,.73-.33.84a.45.45,0,0,1-.48-.14,1.29,1.29,0,0,1-.47.38c-22.08,9.82-44.85,18.81-67.69,26.74C103.8,535.44,103.76,535.44,103.71,535.44Z"/><path class="cls-2" d="M53.54,557.08a.41.41,0,0,1-.18-.78c14.27-7,29-13.58,43.72-19.59a.41.41,0,0,1,.31.75C82.67,543.46,68,550.05,53.72,557A.31.31,0,0,1,53.54,557.08Z"/><path class="cls-2" d="M90.31,512.8a.4.4,0,0,1-.33-.17.41.41,0,0,1,.09-.57L106,500.54a.41.41,0,0,1,.48.66L90.55,512.72A.35.35,0,0,1,90.31,512.8Z"/><path class="cls-2" d="M131.78,488.5a.4.4,0,0,1-.33-.17.41.41,0,0,1,.09-.57l6.4-4.57a.41.41,0,0,1,.57.09.41.41,0,0,1-.1.57L132,488.42A.37.37,0,0,1,131.78,488.5Z"/><path class="cls-2" d="M86.27,500.35a.41.41,0,0,1-.3-.14.41.41,0,0,1,0-.58l13.15-11.7a.41.41,0,0,1,.58,0,.42.42,0,0,1,0,.58l-13.15,11.7A.38.38,0,0,1,86.27,500.35Z"/><path class="cls-2" d="M32.4,535.64a.49.49,0,0,1-.2,0A.4.4,0,0,1,32,535a138.1,138.1,0,0,1,8.43-13.56.41.41,0,0,1,.67.47,136.48,136.48,0,0,0-8.38,13.48A.41.41,0,0,1,32.4,535.64Z"/><path class="cls-2" d="M29.52,532.74a.36.36,0,0,1-.22-.07.42.42,0,0,1-.12-.57c3.12-4.8,6.11-9.78,8.88-14.81a.41.41,0,1,1,.71.39c-2.78,5-5.78,10-8.91,14.86A.4.4,0,0,1,29.52,532.74Z"/><path class="cls-2" d="M74.06,469.51a.39.39,0,0,1-.21-.06.42.42,0,0,1-.14-.56l11.86-19.55a.41.41,0,0,1,.7.42L74.41,469.31A.39.39,0,0,1,74.06,469.51Z"/><path class="cls-2" d="M59.45,529.8a.43.43,0,0,1-.28-.11.41.41,0,0,1,0-.58L67.93,520a.42.42,0,0,1,.58,0,.41.41,0,0,1,0,.58l-8.77,9.13A.46.46,0,0,1,59.45,529.8Z"/><path class="cls-2" d="M114.06,492a.39.39,0,0,1-.33-.17.41.41,0,0,1,.1-.57,52,52,0,0,0,6-4.89.41.41,0,1,1,.57.59,51.88,51.88,0,0,1-6.08,5A.44.44,0,0,1,114.06,492Z"/><path class="cls-2" d="M99.26,466.22a.42.42,0,0,1-.29-.12.41.41,0,0,1,0-.58l4.75-4.75a.41.41,0,0,1,.58.58l-4.75,4.75A.4.4,0,0,1,99.26,466.22Z"/><path class="cls-2" d="M72.94,445a.45.45,0,0,1-.16,0,.41.41,0,0,1-.21-.54c3.21-7.44,6.81-14.82,10.7-21.91a.41.41,0,1,1,.71.39c-3.89,7.07-7.48,14.42-10.67,21.84A.39.39,0,0,1,72.94,445Z"/><path class="cls-2" d="M78.43,442.1a.49.49,0,0,1-.2-.05.4.4,0,0,1-.16-.55,132.44,132.44,0,0,0,7.11-15.11.41.41,0,1,1,.76.3,132.51,132.51,0,0,1-7.16,15.21A.39.39,0,0,1,78.43,442.1Z"/><path class="cls-2" d="M83,446.3a.39.39,0,0,1-.21-.06.41.41,0,0,1-.13-.56L86.14,440a.4.4,0,0,1,.56-.13.42.42,0,0,1,.14.56l-3.47,5.66A.47.47,0,0,1,83,446.3Z"/><path class="cls-2" d="M54,502a.39.39,0,0,1-.18,0,.41.41,0,0,1-.18-.55l1.46-2.92a.41.41,0,1,1,.73.37l-1.46,2.92A.42.42,0,0,1,54,502Z"/><path class="cls-2" d="M42.45,534.36a.41.41,0,0,1-.24-.08.4.4,0,0,1-.08-.57,47.19,47.19,0,0,0,3.8-6,.41.41,0,0,1,.72.38,47.7,47.7,0,0,1-3.87,6.08A.42.42,0,0,1,42.45,534.36Z"/><path class="cls-2" d="M47,540a.4.4,0,0,1-.29-.12.41.41,0,0,1,0-.58,16.84,16.84,0,0,0,2.67-3.39.42.42,0,0,1,.56-.14.41.41,0,0,1,.14.56,17.81,17.81,0,0,1-2.8,3.55A.44.44,0,0,1,47,540Z"/><path class="cls-2" d="M82.27,512.07a.39.39,0,0,1-.31-.15.42.42,0,0,1,.05-.58,15.56,15.56,0,0,0,3.57-4.26.41.41,0,0,1,.71.41A16.39,16.39,0,0,1,82.54,512,.46.46,0,0,1,82.27,512.07Z"/><path class="cls-2" d="M114.06,479.19a.42.42,0,0,1-.29-.12.41.41,0,0,1,0-.58l1.46-1.46a.41.41,0,1,1,.58.58l-1.46,1.46A.4.4,0,0,1,114.06,479.19Z"/><path class="cls-2" d="M103.65,477.18a.43.43,0,0,1-.28-.11.4.4,0,0,1,0-.58l4.2-4.57a.41.41,0,0,1,.6.56l-4.2,4.57A.43.43,0,0,1,103.65,477.18Z"/><path class="cls-2" d="M54.62,558.72a.81.81,0,0,1-.53-.2c-5.53-4.75-10.89-9.71-16-14.77C32.41,538,26.89,532,21.71,525.86a.81.81,0,0,1-.13-.83l48.48-121.7a.87.87,0,0,1,.77-.51.82.82,0,0,1,.76.53,46.07,46.07,0,0,0,30.18,28.12.81.81,0,0,1,.58.87,46,46,0,0,0,46,45.47h.11a.82.82,0,0,1,.81.71.84.84,0,0,1,0,.39,46.08,46.08,0,0,0,11.64,19.64,45.56,45.56,0,0,0,15.48,10.2.81.81,0,0,1,.51.76.82.82,0,0,1-.51.76L54.94,558.65A.81.81,0,0,1,54.62,558.72ZM23.27,525.19c5.06,6,10.45,11.84,16,17.42,4.91,4.91,10.11,9.74,15.48,14.36l119.14-47.46a47.3,47.3,0,0,1-14.18-9.79,47.79,47.79,0,0,1-12-20.27,47.67,47.67,0,0,1-47-46.59A47.75,47.75,0,0,1,81,421a47.13,47.13,0,0,1-10.2-15.14Z"/><path class="cls-2" d="M22.33,525.34l-21.51,54,53.8-21.43c-5.35-4.6-10.67-9.5-15.9-14.72C32.86,537.32,27.39,531.35,22.33,525.34Z"/><path class="cls-2" d="M.82,580.15A.82.82,0,0,1,.06,579l21.51-54a.82.82,0,0,1,1.38-.22c5.15,6.11,10.65,12.1,16.34,17.79,5,5,10.36,10,15.86,14.68a.8.8,0,0,1,.27.75.85.85,0,0,1-.5.63L1.12,580.1A1,1,0,0,1,.82,580.15ZM22.59,526.9l-20.3,51,50.78-20.23c-5.17-4.48-10.19-9.14-14.93-13.89C32.74,538.36,27.51,532.69,22.59,526.9Z"/><path class="cls-2" d="M4.19,574.59a.35.35,0,0,1-.17,0,.41.41,0,0,1-.2-.54l4.46-9.73a.41.41,0,0,1,.54-.2.41.41,0,0,1,.2.54l-4.46,9.73A.4.4,0,0,1,4.19,574.59Z"/><path class="cls-2" d="M10.16,560.25l-.15,0a.41.41,0,0,1-.24-.53c3.8-10,8.06-20,12.65-29.63a.4.4,0,0,1,.73.35C18.56,540.05,14.31,550,10.52,560A.36.36,0,0,1,10.16,560.25Z"/><path class="cls-2" d="M9.53,567.49a.39.39,0,0,1-.18,0,.41.41,0,0,1-.19-.55,133.2,133.2,0,0,0,6.36-15.39.41.41,0,0,1,.78.26,133.16,133.16,0,0,1-6.4,15.49A.4.4,0,0,1,9.53,567.49Z"/><path class="cls-2" d="M21.62,544.59a.36.36,0,0,1-.22-.07.4.4,0,0,1-.12-.56l5.48-8.4a.42.42,0,0,1,.57-.12.4.4,0,0,1,.12.56L22,544.4A.45.45,0,0,1,21.62,544.59Z"/><path class="cls-2" d="M20.88,569.77a.4.4,0,0,1-.37-.23.42.42,0,0,1,.19-.55,113.65,113.65,0,0,0,11.68-6.5.4.4,0,0,1,.56.13.41.41,0,0,1-.13.56,116.25,116.25,0,0,1-11.76,6.54A.34.34,0,0,1,20.88,569.77Z"/><path class="cls-2" d="M38.43,561.39a.4.4,0,0,1-.37-.24.41.41,0,0,1,.2-.54A17.49,17.49,0,0,0,42,558.29a.41.41,0,0,1,.51.63,17.88,17.88,0,0,1-3.93,2.43A.29.29,0,0,1,38.43,561.39Z"/><path class="cls-2" d="M29.48,561.58a.44.44,0,0,1-.33-.16.4.4,0,0,1,.08-.57l6-4.57a.41.41,0,1,1,.49.65l-6,4.57A.41.41,0,0,1,29.48,561.58Z"/><path class="cls-2" d="M176.06,510.34a.8.8,0,0,1-.3-.06,47.75,47.75,0,0,1-28.07-30.84,47.67,47.67,0,0,1-47-46.59A47.75,47.75,0,0,1,81,421a47.2,47.2,0,0,1-11-17.07.8.8,0,0,1,0-.59l.79-2a.71.71,0,0,1,.18-.27L405,67.12a.81.81,0,0,1,1.15,0L513,174a.81.81,0,0,1,0,1.15l-333.94,334a.8.8,0,0,1-.27.18l-2.44,1A.8.8,0,0,1,176.06,510.34Zm-26.82-31.42a46.08,46.08,0,0,0,11.64,19.64,45.55,45.55,0,0,0,15.18,10.08l2-.79L511.28,174.6,405.54,68.87,72.3,402.12l-.61,1.53a45.57,45.57,0,0,0,10.48,16.19,46.05,46.05,0,0,0,19.59,11.63.81.81,0,0,1,.58.87,46,46,0,0,0,46,45.47h.11a.82.82,0,0,1,.81.71A1,1,0,0,1,149.24,478.92Z"/><path class="cls-2" d="M102.34,432.63a.82.82,0,0,1-.58-.24.81.81,0,0,1,0-1.15L436,97a.81.81,0,0,1,1.15,1.15L102.92,432.39A.82.82,0,0,1,102.34,432.63Z"/><path class="cls-2" d="M148.48,480a.82.82,0,0,1-.58-.24.81.81,0,0,1,0-1.15L482.18,144.35a.81.81,0,0,1,1.15,1.15L149.06,479.79A.81.81,0,0,1,148.48,480Z"/><path class="cls-2" d="M76.69,414a.42.42,0,0,1-.29-.12.41.41,0,0,1,0-.58L196.24,293.51a.41.41,0,1,1,.58.58L77,413.92A.39.39,0,0,1,76.69,414Z"/><path class="cls-2" d="M338.76,143.41a.4.4,0,0,1-.29-.12.41.41,0,0,1,0-.58l71-71a.41.41,0,0,1,.58.58l-71,71A.4.4,0,0,1,338.76,143.41Z"/><path class="cls-2" d="M73.22,406a.4.4,0,0,1-.29-.12.41.41,0,0,1,0-.58L220.72,262.19a.41.41,0,0,1,.57.59L73.5,405.83A.39.39,0,0,1,73.22,406Z"/><path class="cls-2" d="M205.63,272.37a.43.43,0,0,1-.28-.11.41.41,0,0,1,0-.58c48.5-50.26,98.73-100.18,149.3-148.36,11.57-11,22.63-22.62,33.32-33.84,6.3-6.61,12.81-13.44,19.39-20.12a.41.41,0,0,1,.58.58c-6.58,6.68-13.09,13.51-19.38,20.11-10.7,11.22-21.76,22.83-33.35,33.87C304.64,172.09,254.42,222,205.92,272.26A.42.42,0,0,1,205.63,272.37Z"/><path class="cls-2" d="M362.33,124.11A.4.4,0,0,1,362,124a.41.41,0,0,1,0-.58l49.2-49.2a.41.41,0,0,1,.58.58L362.62,124A.42.42,0,0,1,362.33,124.11Z"/><path class="cls-2" d="M234.1,252.6a.43.43,0,0,1-.28-.11.41.41,0,0,1,0-.58c31-34,63.55-67.31,96.87-99a.41.41,0,1,1,.56.59c-33.31,31.67-65.88,65-96.83,99A.37.37,0,0,1,234.1,252.6Z"/><path class="cls-2" d="M209.07,283.6a.39.39,0,0,1-.3-.13.41.41,0,0,1,0-.58c23.4-22.32,46.84-45.26,69.66-68.19a.41.41,0,1,1,.58.58c-22.83,22.94-46.27,45.88-69.68,68.2A.36.36,0,0,1,209.07,283.6Z"/><path class="cls-2" d="M71.3,404a.43.43,0,0,1-.28-.11.42.42,0,0,1,0-.58c41.45-44.09,85.12-87.14,129.8-127.94a.41.41,0,0,1,.55.61C156.68,316.81,113,359.83,71.59,403.91A.36.36,0,0,1,71.3,404Z"/><path class="cls-2" d="M223.42,258a.42.42,0,0,1-.29-.12.41.41,0,0,1,0-.58l28-28.48a.41.41,0,0,1,.58.58l-28,28.48A.42.42,0,0,1,223.42,258Z"/><path class="cls-2" d="M181.31,314.79a.37.37,0,0,1-.29-.13.41.41,0,0,1,0-.58c24.73-23.7,49.48-48.11,73.56-72.56a.41.41,0,0,1,.58.58c-24.09,24.46-48.84,48.88-73.58,72.58A.43.43,0,0,1,181.31,314.79Z"/><path class="cls-2" d="M250.1,239.87a.42.42,0,0,1-.29-.12.41.41,0,0,1,0-.58C303.53,184.74,359,130.5,414.52,78a.4.4,0,0,1,.58,0,.41.41,0,0,1,0,.58c-55.57,52.54-111,106.77-164.69,161.19A.4.4,0,0,1,250.1,239.87Z"/><path class="cls-2" d="M291,208.22a.42.42,0,0,1-.29-.12.41.41,0,0,1,0-.58c41.83-42.33,84.58-85,127.06-126.75a.41.41,0,1,1,.57.58c-42.48,41.77-85.23,84.42-127,126.74A.37.37,0,0,1,291,208.22Z"/><path class="cls-2" d="M79.73,417.32a.43.43,0,0,1-.28-.11.42.42,0,0,1,0-.58c27.27-29.27,55.54-58.37,84-86.5a.41.41,0,1,1,.58.58c-28.47,28.11-56.72,57.21-84,86.47A.41.41,0,0,1,79.73,417.32Z"/><path class="cls-2" d="M76,409.65a.38.38,0,0,1-.28-.12.41.41,0,0,1,0-.58c30.65-31.44,62.26-62.77,94-93.13a.42.42,0,0,1,.58,0,.41.41,0,0,1,0,.58c-31.69,30.35-63.29,61.67-93.94,93.11A.43.43,0,0,1,76,409.65Z"/><path class="cls-2" d="M70.57,405.74a.39.39,0,0,1-.3-.13.41.41,0,0,1,0-.58c42-40,84.16-80.91,125.4-121.59a.41.41,0,0,1,.58.58C155,324.7,112.83,365.61,70.85,405.61A.37.37,0,0,1,70.57,405.74Z"/><path class="cls-2" d="M178.25,309.78a.4.4,0,0,1-.29-.12.41.41,0,0,1,0-.58l56-54.57a.41.41,0,1,1,.57.59l-56,54.57A.48.48,0,0,1,178.25,309.78Z"/><path class="cls-2" d="M169.2,328.49a.37.37,0,0,1-.26-.1.42.42,0,0,1-.05-.58l7.59-9a.42.42,0,0,1,.58-.05.41.41,0,0,1,.05.57l-7.59,9A.42.42,0,0,1,169.2,328.49Z"/><path class="cls-2" d="M82.23,421.29a.4.4,0,0,1-.29-.12.41.41,0,0,1,0-.58c27.48-27,55-54.73,81.72-82.44a.41.41,0,1,1,.59.57c-26.74,27.71-54.24,55.46-81.73,82.45A.4.4,0,0,1,82.23,421.29Z"/><path class="cls-2" d="M173,331.77a.43.43,0,0,1-.28-.11.41.41,0,0,1,0-.58c27.07-27.89,55.36-55.33,84.08-81.57a.41.41,0,0,1,.55.61c-28.71,26.23-57,53.66-84.05,81.54A.44.44,0,0,1,173,331.77Z"/><path class="cls-2" d="M291.45,226.16a.4.4,0,0,1-.29-.12.41.41,0,0,1,0-.58L429.55,91.53a.41.41,0,1,1,.57.59L291.73,226.05A.38.38,0,0,1,291.45,226.16Z"/><path class="cls-2" d="M273.49,253.52a.43.43,0,0,1-.28-.11.41.41,0,0,1,0-.58l40.16-41.68a.41.41,0,0,1,.59.57L273.79,253.4A.49.49,0,0,1,273.49,253.52Z"/><path class="cls-2" d="M255.15,291.69a.42.42,0,0,1-.29-.12.41.41,0,0,1,0-.58l23.87-23.87a.41.41,0,0,1,.58.58l-23.87,23.87A.4.4,0,0,1,255.15,291.69Z"/><path class="cls-2" d="M100,400.57a.43.43,0,0,1-.28-.11.41.41,0,0,1,0-.58c40.39-42.39,82.48-84.22,125.1-124.33a.41.41,0,1,1,.56.6c-42.61,40.1-84.69,81.92-125.07,124.3A.42.42,0,0,1,100,400.57Z"/><path class="cls-2" d="M77.66,416.23a.43.43,0,0,1-.28-.11.41.41,0,0,1,0-.58l38.14-39.8a.41.41,0,1,1,.59.57L78,416.11A.46.46,0,0,1,77.66,416.23Z"/><path class="cls-2" d="M73.16,409.3a.4.4,0,0,1-.29-.12.41.41,0,0,1,0-.58l42.42-41.85a.41.41,0,1,1,.58.58L73.45,409.18A.4.4,0,0,1,73.16,409.3Z"/><path class="cls-2" d="M243.3,258.41a.39.39,0,0,1-.3-.13.41.41,0,0,1,0-.58c54.81-52,109.39-105.74,162.21-159.78a.41.41,0,1,1,.59.57C353,152.54,298.41,206.31,243.59,258.29A.44.44,0,0,1,243.3,258.41Z"/><path class="cls-2" d="M283.42,210.35a.43.43,0,0,1-.31-.14.41.41,0,0,1,0-.58,246.06,246.06,0,0,0,25.79-25.77.41.41,0,1,1,.62.54,247.69,247.69,0,0,1-25.87,25.86A.46.46,0,0,1,283.42,210.35Z"/><path class="cls-2" d="M272.45,225.68a.4.4,0,0,1-.29-.12.41.41,0,0,1,0-.58c4.32-4.25,8.49-8.74,12.4-13.37a.4.4,0,1,1,.62.52c-3.92,4.65-8.11,9.16-12.45,13.42A.37.37,0,0,1,272.45,225.68Z"/><path class="cls-2" d="M282.94,204a.43.43,0,0,1-.28-.11.41.41,0,0,1,0-.58l11.2-11.69a.41.41,0,0,1,.59.57l-11.2,11.69A.44.44,0,0,1,282.94,204Z"/><path class="cls-2" d="M266.36,212.77a.42.42,0,0,1-.29-.12.41.41,0,0,1,0-.58l21.19-21.19a.41.41,0,0,1,.58.58l-21.19,21.19A.42.42,0,0,1,266.36,212.77Z"/><path class="cls-2" d="M325.32,162.61a.39.39,0,0,1-.27-.1.41.41,0,0,1,0-.58c10.55-12.09,21.7-23.9,33.13-35.11a.4.4,0,0,1,.58,0,.41.41,0,0,1,0,.58c-11.42,11.19-22.56,23-33.09,35.06A.41.41,0,0,1,325.32,162.61Z"/><path class="cls-2" d="M318.74,162.37a.43.43,0,0,1-.28-.11.41.41,0,0,1,0-.58l13.88-14.37a.41.41,0,0,1,.59.57L319,162.25A.42.42,0,0,1,318.74,162.37Z"/><path class="cls-2" d="M226.26,275.47a.39.39,0,0,1-.3-.13.41.41,0,0,1,0-.58l16.53-15.63a.4.4,0,0,1,.58,0,.41.41,0,0,1,0,.58l-16.53,15.63A.37.37,0,0,1,226.26,275.47Z"/><path class="cls-2" d="M311.29,181.23a.4.4,0,0,1-.29-.12.41.41,0,0,1,0-.58c34.22-34,69.42-68,104.61-101a.41.41,0,0,1,.58,0,.42.42,0,0,1,0,.58c-35.19,33-70.38,67-104.6,101A.36.36,0,0,1,311.29,181.23Z"/><path class="cls-2" d="M88.23,425.83a.39.39,0,0,1-.3-.13.41.41,0,0,1,0-.58C102.5,411.4,116.8,397,130.45,382.4a.41.41,0,0,1,.6.56c-13.66,14.64-28,29-42.54,42.75A.39.39,0,0,1,88.23,425.83Z"/><path class="cls-2" d="M129.05,392.6a.43.43,0,0,1-.28-.11.41.41,0,0,1,0-.58c16.93-17.66,34.67-35,52.73-51.57a.41.41,0,0,1,.58,0,.42.42,0,0,1,0,.58c-18,16.54-35.77,33.88-52.69,51.53A.57.57,0,0,1,129.05,392.6Z"/><path class="cls-2" d="M194.73,323.34a.4.4,0,0,1-.29-.12.41.41,0,0,1,0-.58c17-16.52,33.58-33.8,49.43-51.37a.41.41,0,1,1,.61.55C228.63,289.4,212,306.7,195,323.23A.39.39,0,0,1,194.73,323.34Z"/><path class="cls-2" d="M273.42,239.32a.42.42,0,0,1-.29-.12.41.41,0,0,1,0-.58l20.7-20.7a.41.41,0,1,1,.58.58l-20.7,20.7A.4.4,0,0,1,273.42,239.32Z"/><path class="cls-2" d="M326.82,200.17a.39.39,0,0,1-.3-.13.41.41,0,0,1,0-.58l14.11-13.17a.41.41,0,1,1,.56.6L327.1,200.06A.43.43,0,0,1,326.82,200.17Z"/><path class="cls-2" d="M151.15,397.16a.42.42,0,0,1-.29-.12.41.41,0,0,1,0-.58l24.6-24.6a.41.41,0,1,1,.58.58L151.44,397A.42.42,0,0,1,151.15,397.16Z"/><path class="cls-2" d="M113.21,443.51a.42.42,0,0,1-.3-.7c4.48-4.58,8.78-9.44,12.79-14.43a.41.41,0,0,1,.63.51c-4,5-8.35,9.88-12.85,14.49A.32.32,0,0,1,113.21,443.51Z"/><path class="cls-2" d="M185.54,382.35a.42.42,0,0,1-.3-.7l21.41-21.95a.41.41,0,1,1,.59.57l-21.41,22A.43.43,0,0,1,185.54,382.35Z"/><path class="cls-2" d="M322.62,237.86a.4.4,0,0,1-.29-.12.41.41,0,0,1,0-.58l12.42-12.42a.41.41,0,0,1,.58.58l-12.42,12.42A.4.4,0,0,1,322.62,237.86Z"/><path class="cls-2" d="M405.2,151.88a.4.4,0,0,1-.29-.12.41.41,0,0,1,0-.58l.73-.73a.41.41,0,0,1,.58.58l-.73.73A.42.42,0,0,1,405.2,151.88Z"/><path class="cls-2" d="M409.1,105.6a.43.43,0,0,1-.28-.11.41.41,0,0,1,0-.58c4.37-4.54,9-9,13.66-13.18a.41.41,0,0,1,.55.61c-4.69,4.19-9.27,8.61-13.62,13.13A.43.43,0,0,1,409.1,105.6Z"/><path class="cls-2" d="M241.24,338.19a.37.37,0,0,1-.29-.13.41.41,0,0,1,0-.58l12.42-11.94a.42.42,0,0,1,.58,0,.41.41,0,0,1,0,.58l-12.42,11.94A.42.42,0,0,1,241.24,338.19Z"/><path class="cls-2" d="M231.07,322.17a.43.43,0,0,1-.28-.11.41.41,0,0,1,0-.58l11-11.45a.41.41,0,0,1,.59.57l-11,11.45A.42.42,0,0,1,231.07,322.17Z"/><path class="cls-2" d="M141.51,368.53a.43.43,0,0,1-.28-.11.41.41,0,0,1,0-.58l46.87-49.11a.41.41,0,1,1,.59.57l-46.87,49.11A.42.42,0,0,1,141.51,368.53Z"/><path class="cls-2" d="M187,336.51a.41.41,0,0,1-.32-.15.4.4,0,0,1,.06-.57l7.79-6.33a.41.41,0,1,1,.51.63l-7.79,6.33A.38.38,0,0,1,187,336.51Z"/><path class="cls-2" d="M107.28,420.52a.39.39,0,0,1-.27-.11.41.41,0,0,1,0-.58l13.88-15.35a.41.41,0,1,1,.61.55l-13.88,15.35A.41.41,0,0,1,107.28,420.52Z"/><path class="cls-2" d="M267.58,294.86a.42.42,0,0,1-.29-.12.41.41,0,0,1,0-.58l7.06-7.06a.41.41,0,0,1,.58.58l-7.06,7.06A.42.42,0,0,1,267.58,294.86Z"/><path class="cls-2" d="M382.27,167.43a.4.4,0,0,1-.29-.12.41.41,0,0,1,0-.58c13.2-13.16,27-26.09,41-38.42a.41.41,0,0,1,.54.62c-14,12.33-27.79,25.24-41,38.39A.41.41,0,0,1,382.27,167.43Z"/><path class="cls-2" d="M422.72,120.69a.39.39,0,0,1-.3-.13.42.42,0,0,1,0-.58l12.42-11.45a.41.41,0,0,1,.56.6L423,120.58A.43.43,0,0,1,422.72,120.69Z"/><path class="cls-2" d="M366.47,199.86a.43.43,0,0,1-.26-.09.41.41,0,0,1-.06-.57l6.82-8.28a.42.42,0,0,1,.58-.06.41.41,0,0,1,.06.57l-6.82,8.28A.42.42,0,0,1,366.47,199.86Z"/><path class="cls-2" d="M417.87,155.29a.42.42,0,0,1-.29-.12.41.41,0,0,1,0-.58l1.46-1.46a.41.41,0,1,1,.58.58l-1.46,1.46A.44.44,0,0,1,417.87,155.29Z"/><path class="cls-2" d="M457.81,119.24a.4.4,0,0,1-.29-.12.41.41,0,0,1,0-.58l.24-.24a.41.41,0,1,1,.59.57l-.25.25A.4.4,0,0,1,457.81,119.24Z"/><path class="cls-2" d="M305.6,275.39a.43.43,0,0,1-.28-.11.41.41,0,0,1,0-.58l9.5-10a.41.41,0,1,1,.59.57l-9.5,10A.46.46,0,0,1,305.6,275.39Z"/><path class="cls-2" d="M120.67,459.25a.41.41,0,0,1-.31-.68l9.5-11a.41.41,0,1,1,.62.54l-9.5,11A.43.43,0,0,1,120.67,459.25Z"/><path class="cls-2" d="M139.94,443.44a.42.42,0,0,1-.29-.12.41.41,0,0,1,0-.58l6.58-6.58a.41.41,0,0,1,.58.58l-6.58,6.58A.4.4,0,0,1,139.94,443.44Z"/><path class="cls-2" d="M180.38,400.57a.42.42,0,0,1-.29-.12.41.41,0,0,1,0-.58l3.17-3.17a.41.41,0,0,1,.58.58l-3.17,3.17A.44.44,0,0,1,180.38,400.57Z"/><path class="cls-2" d="M167.6,505a.42.42,0,0,1-.29-.12.41.41,0,0,1,0-.58L287.15,384.42a.41.41,0,0,1,.58.58L167.89,504.84A.4.4,0,0,1,167.6,505Z"/><path class="cls-2" d="M438.23,242.88a.4.4,0,0,1-.29-.12.41.41,0,0,1,0-.58l71-71a.41.41,0,0,1,.58.58l-71,71A.42.42,0,0,1,438.23,242.88Z"/><path class="cls-2" d="M175.7,508.43a.43.43,0,0,1-.28-.11.41.41,0,0,1,0-.58L318.47,360a.41.41,0,1,1,.59.57L176,508.3A.39.39,0,0,1,175.7,508.43Z"/><path class="cls-2" d="M309.27,376a.4.4,0,0,1-.29-.12.41.41,0,0,1,0-.58c50.26-48.5,100.17-98.72,148.34-149.28,11-11.59,22.65-22.65,33.87-33.35,6.6-6.29,13.43-12.8,20.11-19.38a.41.41,0,1,1,.58.58c-6.69,6.59-13.52,13.1-20.12,19.39C480.55,204,469,215,457.93,226.59c-48.18,50.57-98.09,100.8-148.36,149.3A.44.44,0,0,1,309.27,376Z"/><path class="cls-2" d="M457.53,219.32a.42.42,0,0,1-.29-.12.41.41,0,0,1,0-.58l49.2-49.2a.41.41,0,1,1,.58.58l-49.2,49.2A.4.4,0,0,1,457.53,219.32Z"/><path class="cls-2" d="M329.05,347.55a.39.39,0,0,1-.3-.13.41.41,0,0,1,0-.58c34-30.95,67.28-63.52,99-96.83a.41.41,0,0,1,.58,0,.42.42,0,0,1,0,.58c-31.68,33.32-65,65.91-99,96.87A.5.5,0,0,1,329.05,347.55Z"/><path class="cls-2" d="M298,372.58a.43.43,0,0,1-.28-.11.41.41,0,0,1,0-.58c22.36-23.44,45.3-46.88,68.2-69.67a.41.41,0,1,1,.58.58c-22.9,22.79-45.84,46.23-68.19,69.66A.42.42,0,0,1,298,372.58Z"/><path class="cls-2" d="M177.6,510.35a.39.39,0,0,1-.3-.13.41.41,0,0,1,0-.58c44.08-41.44,87.11-85.09,127.89-129.76a.42.42,0,0,1,.58,0,.41.41,0,0,1,0,.58C265,425.11,222,468.78,177.88,510.23A.36.36,0,0,1,177.6,510.35Z"/><path class="cls-2" d="M323.64,358.23a.4.4,0,0,1-.29-.12.41.41,0,0,1,0-.58l28.48-28a.42.42,0,0,1,.58,0,.41.41,0,0,1,0,.58l-28.48,28A.44.44,0,0,1,323.64,358.23Z"/><path class="cls-2" d="M266.85,400.33a.43.43,0,0,1-.28-.11.41.41,0,0,1,0-.58c23.73-24.77,48.15-49.53,72.58-73.58a.41.41,0,0,1,.58.58c-24.42,24.05-48.84,48.8-72.56,73.56A.43.43,0,0,1,266.85,400.33Z"/><path class="cls-2" d="M341.77,331.54a.4.4,0,0,1-.29-.12.41.41,0,0,1,0-.58c54.41-53.71,108.65-109.12,161.19-164.69a.41.41,0,1,1,.6.56c-52.55,55.58-106.79,111-161.21,164.71A.4.4,0,0,1,341.77,331.54Z"/><path class="cls-2" d="M373.43,290.61a.4.4,0,0,1-.29-.12.41.41,0,0,1,0-.58c42.33-41.82,85-84.57,126.74-127.06a.41.41,0,0,1,.58,0,.42.42,0,0,1,0,.58c-41.78,42.49-84.42,85.24-126.75,127.06A.44.44,0,0,1,373.43,290.61Z"/><path class="cls-2" d="M164.33,501.92a.39.39,0,0,1-.3-.13.42.42,0,0,1,0-.58c29.28-27.28,58.37-55.54,86.47-84a.41.41,0,1,1,.58.58c-28.1,28.46-57.21,56.73-86.5,84A.39.39,0,0,1,164.33,501.92Z"/><path class="cls-2" d="M172,505.7a.4.4,0,0,1-.29-.12.41.41,0,0,1,0-.58c31.42-30.63,62.74-62.24,93.11-93.94a.41.41,0,1,1,.59.57c-30.37,31.71-61.7,63.32-93.13,94A.48.48,0,0,1,172,505.7Z"/><path class="cls-2" d="M175.91,511.07a.43.43,0,0,1-.28-.11.41.41,0,0,1,0-.58c40-42,80.9-84.15,121.59-125.4a.41.41,0,1,1,.58.58C257.1,426.81,216.19,469,176.21,511A.5.5,0,0,1,175.91,511.07Z"/><path class="cls-2" d="M271.87,403.4a.38.38,0,0,1-.28-.12.41.41,0,0,1,0-.58l54.57-56a.41.41,0,0,1,.59.57l-54.57,56A.43.43,0,0,1,271.87,403.4Z"/><path class="cls-2" d="M253.15,412.45a.39.39,0,0,1-.31-.15.41.41,0,0,1,0-.58l9-7.59a.42.42,0,0,1,.58.05.41.41,0,0,1-.05.58l-9,7.59A.41.41,0,0,1,253.15,412.45Z"/><path class="cls-2" d="M160.35,499.41a.42.42,0,0,1-.29-.12.41.41,0,0,1,0-.58c27-27.48,54.72-55,82.45-81.73a.41.41,0,0,1,.57.59c-27.73,26.75-55.46,54.25-82.44,81.72A.4.4,0,0,1,160.35,499.41Z"/><path class="cls-2" d="M249.88,408.69a.4.4,0,0,1-.29-.12.41.41,0,0,1,0-.58c27.9-27.08,55.33-55.36,81.54-84.05a.41.41,0,1,1,.61.55c-26.22,28.7-53.66,57-81.57,84.08A.43.43,0,0,1,249.88,408.69Z"/><path class="cls-2" d="M355.48,290.19a.43.43,0,0,1-.28-.11.41.41,0,0,1,0-.58L489.12,151.12a.41.41,0,0,1,.59.57L355.77,290.07A.4.4,0,0,1,355.48,290.19Z"/><path class="cls-2" d="M328.13,308.15a.4.4,0,0,1-.29-.12.41.41,0,0,1,0-.58l41.68-40.16a.42.42,0,0,1,.58,0,.41.41,0,0,1,0,.58L328.42,308A.42.42,0,0,1,328.13,308.15Z"/><path class="cls-2" d="M290,326.49a.42.42,0,0,1-.29-.12.41.41,0,0,1,0-.58l23.87-23.87a.41.41,0,0,1,.58.58l-23.87,23.87A.4.4,0,0,1,290,326.49Z"/><path class="cls-2" d="M181.07,481.64a.39.39,0,0,1-.3-.13.41.41,0,0,1,0-.58c42.38-40.38,84.2-82.45,124.3-125.07a.41.41,0,0,1,.58,0,.42.42,0,0,1,0,.58c-40.11,42.63-81.94,84.72-124.33,125.1A.38.38,0,0,1,181.07,481.64Z"/><path class="cls-2" d="M165.42,504a.37.37,0,0,1-.29-.13.41.41,0,0,1,0-.58l39.8-38.14a.42.42,0,0,1,.58,0,.41.41,0,0,1,0,.58l-39.8,38.14A.44.44,0,0,1,165.42,504Z"/><path class="cls-2" d="M172.34,508.48a.42.42,0,0,1-.29-.12.41.41,0,0,1,0-.58l41.85-42.42a.41.41,0,1,1,.58.58l-41.85,42.42A.4.4,0,0,1,172.34,508.48Z"/><path class="cls-2" d="M323.23,338.34a.43.43,0,0,1-.28-.11.42.42,0,0,1,0-.58c52-54.83,105.76-109.41,159.8-162.23a.4.4,0,0,1,.58,0,.41.41,0,0,1,0,.58c-54,52.81-107.79,107.39-159.78,162.21A.38.38,0,0,1,323.23,338.34Z"/><path class="cls-2" d="M371.29,298.22a.41.41,0,0,1-.31-.68,246.72,246.72,0,0,1,25.86-25.87.41.41,0,0,1,.54.62,246.06,246.06,0,0,0-25.77,25.79A.41.41,0,0,1,371.29,298.22Z"/><path class="cls-2" d="M356,309.2a.42.42,0,0,1-.29-.12.41.41,0,0,1,0-.58c4.26-4.33,8.78-8.52,13.43-12.45a.41.41,0,1,1,.53.63c-4.62,3.91-9.12,8.08-13.37,12.4A.49.49,0,0,1,356,309.2Z"/><path class="cls-2" d="M377.62,298.7a.36.36,0,0,1-.29-.13.41.41,0,0,1,0-.58L389,286.79a.42.42,0,0,1,.58,0,.41.41,0,0,1,0,.58l-11.69,11.2A.42.42,0,0,1,377.62,298.7Z"/><path class="cls-2" d="M368.87,315.29a.4.4,0,0,1-.29-.12.41.41,0,0,1,0-.58l21.19-21.19a.41.41,0,0,1,.58.58l-21.19,21.19A.4.4,0,0,1,368.87,315.29Z"/><path class="cls-2" d="M419,256.33a.43.43,0,0,1-.31-.14.41.41,0,0,1,0-.58c12.06-10.52,23.86-21.65,35.06-33.09a.41.41,0,1,1,.59.57c-11.22,11.45-23,22.6-35.11,33.13A.43.43,0,0,1,419,256.33Z"/><path class="cls-2" d="M419.28,262.9a.4.4,0,0,1-.29-.12.41.41,0,0,1,0-.58l14.37-13.88a.41.41,0,0,1,.57.59l-14.37,13.88A.48.48,0,0,1,419.28,262.9Z"/><path class="cls-2" d="M306.17,355.38a.43.43,0,0,1-.28-.11.42.42,0,0,1,0-.58l15.63-16.53a.41.41,0,0,1,.6.56l-15.63,16.53A.39.39,0,0,1,306.17,355.38Z"/><path class="cls-2" d="M400.42,270.35a.42.42,0,0,1-.29-.12.41.41,0,0,1,0-.58c34-34.23,68-69.42,100.95-104.6a.41.41,0,1,1,.6.56c-33,35.18-66.95,70.38-101,104.61A.39.39,0,0,1,400.42,270.35Z"/><path class="cls-2" d="M155.82,493.41a.43.43,0,0,1-.28-.11.42.42,0,0,1,0-.58c13.73-14.56,28.11-28.87,42.75-42.53a.41.41,0,1,1,.56.6c-14.63,13.65-29,27.95-42.72,42.5A.42.42,0,0,1,155.82,493.41Z"/><path class="cls-2" d="M189.05,452.6a.37.37,0,0,1-.29-.13.41.41,0,0,1,0-.58c17.66-16.93,35-34.66,51.53-52.69a.42.42,0,0,1,.58,0,.4.4,0,0,1,0,.58c-16.55,18.05-33.9,35.79-51.56,52.73A.44.44,0,0,1,189.05,452.6Z"/><path class="cls-2" d="M258.3,386.91a.38.38,0,0,1-.28-.12.41.41,0,0,1,0-.58c16.53-17,33.82-33.61,51.41-49.47a.41.41,0,0,1,.55.61c-17.57,15.85-34.85,32.48-51.37,49.43A.41.41,0,0,1,258.3,386.91Z"/><path class="cls-2" d="M342.32,308.22a.4.4,0,0,1-.29-.12.41.41,0,0,1,0-.58l20.7-20.71a.41.41,0,0,1,.58.58l-20.7,20.71A.4.4,0,0,1,342.32,308.22Z"/><path class="cls-2" d="M381.47,254.82a.43.43,0,0,1-.28-.11.42.42,0,0,1,0-.58L394.34,240a.41.41,0,0,1,.58,0,.42.42,0,0,1,0,.58l-13.17,14.11A.39.39,0,0,1,381.47,254.82Z"/><path class="cls-2" d="M184.48,430.5a.42.42,0,0,1-.29-.12.41.41,0,0,1,0-.58l24.6-24.6a.41.41,0,0,1,.58.58l-24.6,24.6A.4.4,0,0,1,184.48,430.5Z"/><path class="cls-2" d="M138.14,468.43a.4.4,0,0,1-.29-.12.41.41,0,0,1,0-.58c4.59-4.49,9.47-8.81,14.48-12.85a.41.41,0,0,1,.51.63c-5,4-9.85,8.32-14.43,12.79A.37.37,0,0,1,138.14,468.43Z"/><path class="cls-2" d="M199.3,396.11A.4.4,0,0,1,199,396a.41.41,0,0,1,0-.58L221,374a.41.41,0,0,1,.57.59L199.59,396A.48.48,0,0,1,199.3,396.11Z"/><path class="cls-2" d="M343.78,259a.4.4,0,0,1-.29-.12.41.41,0,0,1,0-.58l12.42-12.42a.41.41,0,1,1,.58.58L344.07,258.9A.4.4,0,0,1,343.78,259Z"/><path class="cls-2" d="M476.05,172.55a.37.37,0,0,1-.29-.13.41.41,0,0,1,0-.58c4.53-4.36,9-8.94,13.13-13.62a.41.41,0,1,1,.61.55c-4.2,4.69-8.63,9.29-13.17,13.66A.44.44,0,0,1,476.05,172.55Z"/><path class="cls-2" d="M259.47,350.57a.37.37,0,0,1-.29-.13.41.41,0,0,1,0-.58l11.45-11a.42.42,0,0,1,.58,0,.41.41,0,0,1,0,.58l-11.45,11A.42.42,0,0,1,259.47,350.57Z"/><path class="cls-2" d="M213.11,440.13a.36.36,0,0,1-.29-.13.41.41,0,0,1,0-.58l49.11-46.86a.41.41,0,0,1,.57.59L213.4,440A.42.42,0,0,1,213.11,440.13Z"/><path class="cls-2" d="M245.13,394.69a.43.43,0,0,1-.26-.09.41.41,0,0,1-.06-.57l6.33-7.79a.4.4,0,0,1,.57-.06.41.41,0,0,1,.06.57l-6.33,7.79A.37.37,0,0,1,245.13,394.69Z"/><path class="cls-2" d="M161.12,474.36a.39.39,0,0,1-.3-.13.41.41,0,0,1,0-.58l15.35-13.89a.41.41,0,0,1,.55.61L161.4,474.26A.44.44,0,0,1,161.12,474.36Z"/><path class="cls-2" d="M286.79,314.07a.42.42,0,0,1-.29-.12.41.41,0,0,1,0-.58l7.06-7.06a.41.41,0,0,1,.58.58L287.08,314A.44.44,0,0,1,286.79,314.07Z"/><path class="cls-2" d="M414.21,199.37a.42.42,0,0,1-.29-.12.41.41,0,0,1,0-.58c13.16-13.21,26.08-27,38.39-41a.41.41,0,0,1,.62.54c-12.32,14-25.25,27.8-38.42,41A.39.39,0,0,1,414.21,199.37Z"/><path class="cls-2" d="M461,158.92a.43.43,0,0,1-.28-.11.4.4,0,0,1,0-.58l11.45-12.42a.41.41,0,1,1,.6.56l-11.45,12.42A.39.39,0,0,1,461,158.92Z"/><path class="cls-2" d="M381.78,215.17a.42.42,0,0,1-.32-.15.4.4,0,0,1,.06-.57l8.28-6.82a.41.41,0,0,1,.58.06.4.4,0,0,1-.06.57L382,215.08A.43.43,0,0,1,381.78,215.17Z"/><path class="cls-2" d="M462.4,123.83a.4.4,0,0,1-.29-.12.41.41,0,0,1,0-.58l.24-.24a.41.41,0,0,1,.58.58l-.24.24A.4.4,0,0,1,462.4,123.83Z"/><path class="cls-2" d="M443.48,61.49h.07A26.25,26.25,0,0,0,451,58.86l.29-.14a266,266,0,0,1,32.13-12.57.51.51,0,1,0-.31-1,269,269,0,0,0-32.25,12.61l-.29.14a25.75,25.75,0,0,1-7.18,2.54A.5.5,0,0,0,443,61,.52.52,0,0,0,443.48,61.49Z"/><path class="cls-2" d="M512.61,171.11a.51.51,0,0,0-.5.51.5.5,0,0,0,.51.5h0a9.72,9.72,0,0,0,6.07-2.3.5.5,0,0,0,0-.71.51.51,0,0,0-.71-.06A8.79,8.79,0,0,1,512.61,171.11Z"/><path class="cls-2" d="M514.59,159.83a.41.41,0,0,0,.16,0,.51.51,0,0,0,.48-.35l.09-.26a.5.5,0,1,0-1,.22l0,.17A.39.39,0,0,0,514.59,159.83Z"/><path class="cls-2" d="M433.71,70.33a.51.51,0,0,0,.65.31c21.95-7.71,43.16-18.09,63.68-28.13a.51.51,0,0,0-.45-.91C477.1,51.63,455.92,62,434,69.69A.49.49,0,0,0,433.71,70.33Z"/><path class="cls-2" d="M502.05,121.05a.48.48,0,0,0,.26.07.51.51,0,0,0,.43-.24l11.86-19.55a.51.51,0,0,0-.87-.53l-11.86,19.56A.51.51,0,0,0,502.05,121.05Z"/><path class="cls-2" d="M502.3,63.39a.49.49,0,0,0,.44-.26,15.37,15.37,0,0,1,3.54-4.24.52.52,0,0,0,.07-.71.51.51,0,0,0-.71-.07,16.28,16.28,0,0,0-3.78,4.52.51.51,0,0,0,.19.69A.47.47,0,0,0,502.3,63.39Z"/><path class="cls-2" d="M488.44,82.25a.52.52,0,0,0,.38.17.5.5,0,0,0,.34-.13l13.15-11.7a.5.5,0,1,0-.67-.75l-13.15,11.7A.49.49,0,0,0,488.44,82.25Z"/><path class="cls-2" d="M481.62,69.58a.5.5,0,0,0,.71.11l15.89-11.52a.51.51,0,0,0-.6-.82L481.73,68.87A.52.52,0,0,0,481.62,69.58Z"/><path class="cls-2" d="M485,35a.51.51,0,0,0-.64-.31C462.62,42.2,441,50.74,419.89,60l.77.77c20.94-9.19,42.45-17.67,64-25.17A.51.51,0,0,0,485,35Z"/><path class="cls-2" d="M407,61.3a.51.51,0,0,0,0-.72.5.5,0,0,0-.71,0,6.59,6.59,0,0,0-1.31,6.73.52.52,0,0,0,.47.33.57.57,0,0,0,.18,0,.5.5,0,0,0,.29-.65A5.61,5.61,0,0,1,407,61.3Z"/><path class="cls-2" d="M403.24,60.74a7.62,7.62,0,0,1,1.93-2.54.5.5,0,0,0,0-.71.52.52,0,0,0-.72,0,8.64,8.64,0,0,0-2.17,2.88A5.24,5.24,0,0,0,402,64a.5.5,0,0,0,.48.35l.15,0a.5.5,0,0,0,.33-.63A4.3,4.3,0,0,1,403.24,60.74Z"/><path class="cls-2" d="M406,59.63a6.89,6.89,0,0,1,7.1-2.06.51.51,0,0,0,.32-1A7.93,7.93,0,0,0,405.2,59a9.63,9.63,0,0,0-2,8.33.5.5,0,0,0,.49.4h.11a.51.51,0,0,0,.39-.6A8.62,8.62,0,0,1,406,59.63Z"/><path class="cls-2" d="M406.89,64.5a6.19,6.19,0,0,0-.61,3.52.5.5,0,0,0,.5.44h.06a.51.51,0,0,0,.44-.57,5.19,5.19,0,0,1,.51-2.93.51.51,0,0,0-.9-.46Z"/><path class="cls-2" d="M514.38,161.36h.12s.07-.06.12-.07l-.62-.72a.49.49,0,0,0-.11.42A.5.5,0,0,0,514.38,161.36Z"/><path class="cls-2" d="M505.49,165.22h0l.91-.06a.5.5,0,0,0,.47-.54.51.51,0,0,0-.54-.47l-.91.06a.5.5,0,0,0-.47.54A.53.53,0,0,0,505.49,165.22Z"/><path class="cls-2" d="M512.32,160.36a.51.51,0,0,0,.39-.18,3.06,3.06,0,0,0,.38-.65l-.76-.86a2,2,0,0,1-.4.86.51.51,0,0,0,.06.71A.52.52,0,0,0,512.32,160.36Z"/><path class="cls-2" d="M408.53,63.8a.51.51,0,0,0,.47-.31,7,7,0,0,1,6-4.23.5.5,0,0,0,.48-.53.51.51,0,0,0-.51-.48h0a8,8,0,0,0-6.85,4.85.51.51,0,0,0,.47.7Z"/><path class="cls-2" d="M505.72,166.61a.5.5,0,0,0,.47.54c.24,0,.48,0,.71,0a10.42,10.42,0,0,0,3.33-.54.51.51,0,1,0-.32-1,9.62,9.62,0,0,1-3.65.47A.5.5,0,0,0,505.72,166.61Z"/><path class="cls-2" d="M510,128a.51.51,0,0,0-.69.2,134.77,134.77,0,0,0-6.83,14.42l.77.77a133.26,133.26,0,0,1,6.94-14.7A.49.49,0,0,0,510,128Z"/><path class="cls-2" d="M515.49,125.09a.51.51,0,0,0-.66.26c-2.91,6.76-6.17,13.45-9.66,19.93l.75.75c3.56-6.59,6.88-13.4,9.84-20.28A.5.5,0,0,0,515.49,125.09Z"/><path class="cls-2" d="M456.16,81.65l-6.39,4.57a.51.51,0,0,0-.12.71.51.51,0,0,0,.7.12l6.39-4.57a.51.51,0,0,0,.12-.71A.5.5,0,0,0,456.16,81.65Z"/><path class="cls-2" d="M473.82,91l-1.46,1.46a.51.51,0,1,0,.72.72l1.46-1.46a.51.51,0,1,0-.72-.72Z"/><path class="cls-2" d="M474.59,78.3a.51.51,0,0,0-.71-.12,52.06,52.06,0,0,0-6.09,5,.52.52,0,0,0,0,.72.52.52,0,0,0,.37.16.54.54,0,0,0,.35-.14,51.09,51.09,0,0,1,6-4.89A.51.51,0,0,0,474.59,78.3Z"/><path class="cls-2" d="M528.1,116.14a.5.5,0,0,0-.67.25c-5.46,11.82-10.45,24-14.92,36.24l.79.79c4.5-12.36,9.54-24.67,15.05-36.6A.51.51,0,0,0,528.1,116.14Z"/><path class="cls-2" d="M478.13,44.27a.5.5,0,0,0-.66-.27L425.58,65.69l.77.77,51.51-21.53A.51.51,0,0,0,478.13,44.27Z"/><path class="cls-2" d="M480.84,56.29a.51.51,0,0,0-.46-.9l-42.62,22a.5.5,0,0,0-.22.26l.65.65h0Z"/><path class="cls-2" d="M484.93,93a.5.5,0,0,0-.71,0L480,97.62a.5.5,0,0,0,.37.84.52.52,0,0,0,.37-.16l4.2-4.57A.5.5,0,0,0,484.93,93Z"/><path class="cls-2" d="M545.69,60.85c-3.83,8.44-7.89,16.91-12.06,25.19a.51.51,0,0,0,.23.68.46.46,0,0,0,.23,0,.5.5,0,0,0,.45-.28c4.17-8.29,8.23-16.78,12.07-25.23a.51.51,0,0,0-.25-.67A.52.52,0,0,0,545.69,60.85Z"/><path class="cls-2" d="M541.71,42.69a.53.53,0,0,0,.24.06.53.53,0,0,0,.45-.27,48.15,48.15,0,0,1,3.79-6,.51.51,0,0,0-.81-.61A49.44,49.44,0,0,0,541.5,42,.52.52,0,0,0,541.71,42.69Z"/><path class="cls-2" d="M532.81,72a.49.49,0,0,0,.45-.28l1.46-2.92a.51.51,0,0,0-.91-.45l-1.46,2.92a.51.51,0,0,0,.23.68A.68.68,0,0,0,532.81,72Z"/><path class="cls-2" d="M520,50.41a.55.55,0,0,0,.37-.15l8.77-9.13a.51.51,0,0,0,0-.72.52.52,0,0,0-.72,0l-8.77,9.13a.51.51,0,0,0,0,.72A.47.47,0,0,0,520,50.41Z"/><path class="cls-2" d="M488.61,104l-4.75,4.75a.51.51,0,1,0,.72.72l4.75-4.75a.51.51,0,1,0-.72-.72Z"/><path class="cls-2" d="M504.8,124l-3.47,5.66a.51.51,0,0,0,.17.7.48.48,0,0,0,.26.07.51.51,0,0,0,.43-.24l3.47-5.66a.51.51,0,0,0-.17-.7A.5.5,0,0,0,504.8,124Z"/><path class="cls-2" d="M527.87,93.83c-4.37,8.24-9,16.44-13.89,24.36a.51.51,0,0,0,.17.7.48.48,0,0,0,.26.07.51.51,0,0,0,.43-.24c4.86-7.94,9.55-16.15,13.93-24.41a.51.51,0,0,0-.9-.48Z"/><path class="cls-2" d="M538.48,34.53a.5.5,0,0,0,.43-.25,17,17,0,0,1,2.66-3.37.51.51,0,0,0-.71-.73A17.67,17.67,0,0,0,538,33.75a.5.5,0,0,0,.17.69A.48.48,0,0,0,538.48,34.53Z"/><path class="cls-2" d="M520.26,174.15a5.52,5.52,0,0,1-3.21,2.16,6.79,6.79,0,0,1-3.35,0,.5.5,0,0,0-.24,1,7.57,7.57,0,0,0,1.83.22,8,8,0,0,0,2-.26,6.55,6.55,0,0,0,3.79-2.57.5.5,0,0,0-.14-.7A.49.49,0,0,0,520.26,174.15Z"/><path class="cls-2" d="M521.63,173.22a.58.58,0,0,0,.19,0,.51.51,0,0,0,.47-.32l.73-1.83a.51.51,0,1,0-.94-.38l-.73,1.83A.51.51,0,0,0,521.63,173.22Z"/><path class="cls-2" d="M512.94,173.19a.48.48,0,0,0-.55-.46,9.36,9.36,0,0,1-4.22-.62.5.5,0,0,0-.65.29.52.52,0,0,0,.29.66,10.56,10.56,0,0,0,3.81.72,8.44,8.44,0,0,0,.87,0A.52.52,0,0,0,512.94,173.19Z"/><path class="cls-2" d="M502.23,154a3.66,3.66,0,0,1-1.44.8.5.5,0,0,0-.35.62.5.5,0,0,0,.49.37l.14,0a4.62,4.62,0,0,0,1.85-1,.5.5,0,0,0,0-.71A.51.51,0,0,0,502.23,154Z"/><path class="cls-2" d="M500.54,147.67a.5.5,0,0,0-.65.31,2.14,2.14,0,0,1-1.13,1.23.5.5,0,0,0-.25.67.51.51,0,0,0,.46.3.41.41,0,0,0,.21-.05,3.15,3.15,0,0,0,1.66-1.81A.49.49,0,0,0,500.54,147.67Z"/><path class="cls-2" d="M557.7,11.43a.51.51,0,0,0-.72,0L550.17,18a.51.51,0,0,0,.35.87.52.52,0,0,0,.35-.14l6.81-6.59A.5.5,0,0,0,557.7,11.43Z"/><path class="cls-2" d="M511.53,169.63a10.17,10.17,0,0,0,6.63-3.56.51.51,0,1,0-.8-.62,9.19,9.19,0,0,1-6,3.18,28.75,28.75,0,0,1-7.18-.12.5.5,0,1,0-.11,1,44.82,44.82,0,0,0,4.66.32A17.38,17.38,0,0,0,511.53,169.63Z"/><path class="cls-2" d="M571.66,17.35a.5.5,0,0,0-.71,0,16.05,16.05,0,0,0-3,3.53.5.5,0,0,0,.16.7.53.53,0,0,0,.27.08.5.5,0,0,0,.43-.24,15.09,15.09,0,0,1,2.81-3.31A.53.53,0,0,0,571.66,17.35Z"/><path class="cls-2" d="M567.59,8.29l1.1.36a.41.41,0,0,0,.16,0,.5.5,0,0,0,.48-.35.51.51,0,0,0-.32-.64l-1.1-.36a.51.51,0,0,0-.64.32A.5.5,0,0,0,567.59,8.29Z"/><path class="cls-2" d="M571.08,20.17a41.33,41.33,0,0,1-8.21,7.64.51.51,0,0,0,.29.92.52.52,0,0,0,.29-.09,42,42,0,0,0,8.41-7.83.5.5,0,1,0-.78-.64Z"/><path class="cls-2" d="M561,6.86a7.43,7.43,0,0,1,4.13.31.5.5,0,0,0,.62-.36.51.51,0,0,0-.36-.62,8.24,8.24,0,0,0-4.72-.3,8.17,8.17,0,0,0-2.79,1.88l-11.6,10.47a.5.5,0,0,0,0,.71.52.52,0,0,0,.38.17A.5.5,0,0,0,547,19L558.58,8.52A7.41,7.41,0,0,1,561,6.86Z"/><path class="cls-2" d="M411,63.43a.51.51,0,0,0,0,.71.5.5,0,0,0,.71-.06,6.78,6.78,0,0,1,2.58-1.85.51.51,0,0,0,.28-.66.5.5,0,0,0-.66-.28A8,8,0,0,0,411,63.43Z"/><path class="cls-2" d="M558.82,10a.5.5,0,0,0,.15.7.46.46,0,0,0,.28.08.49.49,0,0,0,.42-.23,4,4,0,0,1,3.77-1.69.51.51,0,0,0,.58-.42.52.52,0,0,0-.42-.58A5,5,0,0,0,558.82,10Z"/><path class="cls-2" d="M560.09,11.63a7.35,7.35,0,0,0-2.22,1.7.5.5,0,0,0,0,.71.5.5,0,0,0,.34.13.52.52,0,0,0,.38-.17,6.69,6.69,0,0,1,1.92-1.47.51.51,0,0,0,.23-.68A.54.54,0,0,0,560.09,11.63Z"/><path class="cls-2" d="M544.67,90a.5.5,0,0,0-.64.32,262.62,262.62,0,0,1-11.51,28.62.5.5,0,0,0,.24.67.54.54,0,0,0,.22.05.52.52,0,0,0,.46-.29A264.68,264.68,0,0,0,545,90.63.52.52,0,0,0,544.67,90Z"/><path class="cls-2" d="M520.89,164.61a.51.51,0,0,0-.38.61,7.72,7.72,0,0,1-8,9.49.51.51,0,1,0-.07,1l.57,0A8.72,8.72,0,0,0,521.49,165,.48.48,0,0,0,520.89,164.61Z"/><path class="cls-2" d="M414.68,75.81l-.3.55a.51.51,0,0,0,.2.69.54.54,0,0,0,.25.06.49.49,0,0,0,.44-.26l.3-.55a.51.51,0,0,0-.2-.69A.5.5,0,0,0,414.68,75.81Z"/><path class="cls-2" d="M416.88,78.11a1.71,1.71,0,0,0-.45,2,.51.51,0,0,0,.46.29.41.41,0,0,0,.21,0,.52.52,0,0,0,.25-.67.7.7,0,0,1,.18-.79.51.51,0,0,0,.07-.71A.52.52,0,0,0,416.88,78.11Z"/><path class="cls-2" d="M417.86,65.55a15,15,0,0,0-3,3.08.52.52,0,0,0,.11.71.54.54,0,0,0,.3.1.49.49,0,0,0,.41-.21,14,14,0,0,1,2.78-2.87.51.51,0,0,0-.63-.81Z"/><path class="cls-2" d="M415.3,72.45a.51.51,0,1,0-.72-.72l-.79.79a.51.51,0,1,0,.72.72Z"/><path class="cls-2" d="M408.77,66.66a.5.5,0,0,0-.6.39,4.82,4.82,0,0,0-.07,1.56.51.51,0,0,0,.5.45h.06a.49.49,0,0,0,.44-.56,3.7,3.7,0,0,1,.06-1.24A.51.51,0,0,0,408.77,66.66Z"/><path class="cls-2" d="M412.56,64.88A5.4,5.4,0,0,0,411,66.24a.51.51,0,0,0,.4.82.53.53,0,0,0,.4-.19,4.17,4.17,0,0,1,1.3-1.1.51.51,0,0,0-.49-.89Z"/><path class="cls-2" d="M410.6,69.79a.5.5,0,0,0-.64.32l-.37,1.1a.51.51,0,0,0,.32.64.41.41,0,0,0,.16,0,.5.5,0,0,0,.48-.35l.37-1.09A.51.51,0,0,0,410.6,69.79Z"/><path class="cls-2" d="M574,15a.5.5,0,0,0-.56-.45.51.51,0,0,0-.45.56,5.93,5.93,0,0,1-1.19,4.22.51.51,0,1,0,.8.62A6.94,6.94,0,0,0,574,15Z"/><path class="cls-2" d="M420.51,84.28a.51.51,0,0,0-.32.64l.18.54a.51.51,0,0,0,.48.35l.16,0a.52.52,0,0,0,.33-.64l-.18-.55A.52.52,0,0,0,420.51,84.28Z"/><path class="cls-2" d="M450.06,105.93a.52.52,0,0,0-.55.46l-.12,1.46a.5.5,0,0,0,.46.54h0a.5.5,0,0,0,.5-.47l.12-1.46A.49.49,0,0,0,450.06,105.93Z"/><path class="cls-2" d="M438.86,84.27a.51.51,0,0,0-.65-.3,5.42,5.42,0,0,0-2.41,1.76.51.51,0,1,0,.8.62,4.45,4.45,0,0,1,2-1.43A.51.51,0,0,0,438.86,84.27Z"/><path class="cls-2" d="M438.23,87.59a2.44,2.44,0,0,0-1,2.06.52.52,0,0,0,.51.49h0a.5.5,0,0,0,.49-.52,1.44,1.44,0,0,1,.6-1.2.51.51,0,1,0-.58-.83Z"/><path class="cls-2" d="M563.42,43.49l-.14-.16c-1,2.64-2,5.26-3,7.88l.27-.59A55.27,55.27,0,0,0,563.42,43.49Z"/><path class="cls-2" d="M571.73,7.37C567,2.63,560.13,1.8,556.42,5.51L543.78,18.15l-6.91-6.91a2.37,2.37,0,0,0-3.26-.41,2.36,2.36,0,0,0,.41,3.26l30.07,30.07a2.37,2.37,0,0,0,3.26.41,2.36,2.36,0,0,0-.41-3.26l-6-6,0,0L543.8,18.13l.72-.72,17.17,17.17L573.6,22.67C577.31,19,576.48,12.11,571.73,7.37Zm-3.82,0,1.1.36a.51.51,0,0,1,.32.64.51.51,0,0,1-.48.35.45.45,0,0,1-.16,0l-1.1-.36a.5.5,0,0,1-.32-.64A.51.51,0,0,1,567.91,7.33ZM546.64,19.12a.52.52,0,0,1-.38-.17.5.5,0,0,1,0-.71L557.9,7.77a8.22,8.22,0,0,1,2.79-1.88,8.16,8.16,0,0,1,4.72.3.51.51,0,0,1-.26,1A7.36,7.36,0,0,0,561,6.86a7.2,7.2,0,0,0-2.43,1.67L547,19A.54.54,0,0,1,546.64,19.12ZM564,8.39a.49.49,0,0,1-.58.42,4,4,0,0,0-3.77,1.69.51.51,0,0,1-.42.23.6.6,0,0,1-.28-.08.51.51,0,0,1-.15-.7,4.93,4.93,0,0,1,4.76-2.14A.51.51,0,0,1,564,8.39ZM550.88,18.74a.49.49,0,0,1-.35.14.51.51,0,0,1-.36-.15.52.52,0,0,1,0-.72L557,11.42a.51.51,0,0,1,.71.73Zm9.67-6.2A6.55,6.55,0,0,0,558.63,14a.52.52,0,0,1-.38.17.51.51,0,0,1-.38-.84,7.68,7.68,0,0,1,2.22-1.7.51.51,0,1,1,.46.9Zm10.72,9a42.79,42.79,0,0,1-8.41,7.83.52.52,0,0,1-.29.09.51.51,0,0,1-.41-.21.51.51,0,0,1,.12-.71,41.33,41.33,0,0,0,8.21-7.64.5.5,0,0,1,.78.64Zm-2.47-.13a.52.52,0,0,1-.43.24.45.45,0,0,1-.27-.08.5.5,0,0,1-.16-.7,15.82,15.82,0,0,1,3-3.53.5.5,0,0,1,.71,0,.5.5,0,0,1,0,.71A15.37,15.37,0,0,0,568.8,21.38Zm3.42-1.29a.45.45,0,0,1-.31-.11.51.51,0,0,1-.09-.71A5.87,5.87,0,0,0,573,15.05a.51.51,0,0,1,.45-.56.5.5,0,0,1,.56.45,6.93,6.93,0,0,1-1.4,5A.51.51,0,0,1,572.22,20.09Z"/><path class="cls-2" d="M561.06,40.76l-1.12-1.25c-3,10.3-7.86,20.06-12.58,29.53l-1.62,3.26C533,98,521.6,124.71,510.57,150.69l1.95,1.95C517,140.4,522,128.22,527.44,116.4a.52.52,0,0,1,.67-.25.51.51,0,0,1,.25.67c-5.51,11.94-10.55,24.24-15.05,36.6l2.17,2.17a561.29,561.29,0,0,1,23.28-58.93c1.49-3.23,3-6.45,4.5-9.67,6.74-14.41,13.67-29.28,19.28-44.53l-.72-.83C556.19,56.46,549.89,71.17,543,85.41a.51.51,0,0,1-.45.29.54.54,0,0,1-.22,0,.5.5,0,0,1-.23-.68C549,70.59,555.4,55.73,561.06,40.76Z"/><path class="cls-2" d="M561.45,51a56.55,56.55,0,0,0-3,7.4,186.12,186.12,0,0,1-10,25.85.52.52,0,0,1-.46.29.59.59,0,0,1-.22,0,.5.5,0,0,1-.24-.67,184.56,184.56,0,0,0,9.94-25.71c.09-.3.2-.58.29-.87-4.31,10.25-9,20.3-13.6,30.14-1.5,3.22-3,6.43-4.5,9.66a558.8,558.8,0,0,0-23.4,59.31l2.17,2.17a328.21,328.21,0,0,1,13.46-38.72.5.5,0,0,1,.93.39A328.82,328.82,0,0,0,519.32,159l45.4-114-.54-.62A59.76,59.76,0,0,1,561.45,51Zm-28,68.32a.52.52,0,0,1-.46.29.59.59,0,0,1-.22-.05.5.5,0,0,1-.24-.67A264.65,264.65,0,0,0,544,90.31a.51.51,0,0,1,1,.32A264.62,264.62,0,0,1,533.44,119.36Z"/><path class="cls-2" d="M521.58,163.13,416.05,57.6l0,0-.2-.2A9.11,9.11,0,0,0,403,70.24L508.74,176a9.11,9.11,0,1,0,12.88-12.88Zm-2.83,6a.51.51,0,0,1,0,.71,9.68,9.68,0,0,1-6.07,2.3h0a.51.51,0,0,1-.51-.5.5.5,0,0,1,.5-.51A8.67,8.67,0,0,0,518,169,.52.52,0,0,1,518.75,169.1Zm-4-10.24a.5.5,0,0,1,.6.38l-.09.26a.51.51,0,0,1-.48.35l-.16,0a.48.48,0,0,1-.23-.19l0-.17A.52.52,0,0,1,514.71,158.86Zm-.71,1.69.62.72s-.07.06-.12.07h-.12a.5.5,0,0,1-.49-.39A.48.48,0,0,1,514,160.55Zm-2.07-1a2.19,2.19,0,0,0,.4-.86l.76.86a3,3,0,0,1-.38.65.5.5,0,0,1-.39.18.52.52,0,0,1-.33-.12A.51.51,0,0,1,511.93,159.52ZM510.55,166a.5.5,0,0,1-.32.64,10.42,10.42,0,0,1-3.33.54l-.71,0a.51.51,0,0,1,.07-1,9.42,9.42,0,0,0,3.65-.47A.51.51,0,0,1,510.55,166Zm-5.09-1.78.91-.06a.52.52,0,0,1,.54.47.5.5,0,0,1-.47.54l-.91.06h0a.5.5,0,0,1-.5-.47A.49.49,0,0,1,505.46,164.21ZM402.66,64.35a.39.39,0,0,1-.15,0A.5.5,0,0,1,402,64a5.3,5.3,0,0,1,.29-3.69,8.74,8.74,0,0,1,2.17-2.88.52.52,0,0,1,.72,0,.5.5,0,0,1,0,.71,7.89,7.89,0,0,0-1.93,2.54,4.22,4.22,0,0,0-.25,3A.53.53,0,0,1,402.66,64.35Zm1.12,3.32h-.11a.5.5,0,0,1-.49-.4,9.63,9.63,0,0,1,2-8.33,8,8,0,0,1,8.18-2.35.51.51,0,0,1-.32,1,6.88,6.88,0,0,0-7.1,2.06,8.61,8.61,0,0,0-1.79,7.44A.51.51,0,0,1,403.78,67.67Zm1.79,0a.57.57,0,0,1-.18,0,.49.49,0,0,1-.47-.33,6.63,6.63,0,0,1,1.31-6.73.5.5,0,0,1,.71,0,.51.51,0,0,1,0,.72A5.59,5.59,0,0,0,405.86,67,.51.51,0,0,1,405.57,67.63ZM407.79,65a5.22,5.22,0,0,0-.51,2.93.51.51,0,0,1-.44.57h-.06a.51.51,0,0,1-.5-.44,6.22,6.22,0,0,1,.61-3.52.5.5,0,0,1,.68-.22A.51.51,0,0,1,407.79,65Zm.27-1.86a8,8,0,0,1,6.85-4.85h0a.51.51,0,0,1,.51.48.5.5,0,0,1-.48.53,7,7,0,0,0-6,4.23.5.5,0,0,1-.47.31.41.41,0,0,1-.19,0A.51.51,0,0,1,408.06,63.1Zm6.55-1.52a.51.51,0,0,1-.28.66,6.78,6.78,0,0,0-2.58,1.85.5.5,0,1,1-.76-.65,7.78,7.78,0,0,1,3-2.13A.49.49,0,0,1,414.61,61.58Zm-5.5,6.92a.5.5,0,0,1-.44.56h-.06a.51.51,0,0,1-.5-.45,4.82,4.82,0,0,1,.07-1.56.5.5,0,0,1,.6-.39.5.5,0,0,1,.39.6A3.7,3.7,0,0,0,409.11,68.5Zm1.44,3a.51.51,0,0,1-.48.35.45.45,0,0,1-.16,0,.51.51,0,0,1-.32-.64l.37-1.1a.51.51,0,0,1,1,.32Zm2.5-5.75a4.17,4.17,0,0,0-1.3,1.1.5.5,0,0,1-.4.19.51.51,0,0,1-.4-.82,5.28,5.28,0,0,1,1.61-1.36.51.51,0,0,1,.69.2A.52.52,0,0,1,413.05,65.77Zm.74,7.47a.51.51,0,0,1,0-.72l.79-.79a.51.51,0,1,1,.72.72l-.79.79a.51.51,0,0,1-.72,0Zm1.78,3.05-.3.55a.49.49,0,0,1-.44.26.57.57,0,0,1-.25-.06.52.52,0,0,1-.2-.69l.3-.55a.52.52,0,0,1,.69-.2A.52.52,0,0,1,415.57,76.29Zm2,2.6a.69.69,0,0,0-.18.79.5.5,0,0,1-.25.67.54.54,0,0,1-.21.05.52.52,0,0,1-.46-.29,1.72,1.72,0,0,1,.45-2,.5.5,0,0,1,.65.77Zm1-12.54a14.27,14.27,0,0,0-2.78,2.87.5.5,0,0,1-.71.11.5.5,0,0,1-.11-.71,15.48,15.48,0,0,1,3-3.08.51.51,0,0,1,.71.09A.5.5,0,0,1,418.48,66.35ZM421,85.79a.41.41,0,0,1-.16,0,.51.51,0,0,1-.48-.35l-.18-.54a.51.51,0,0,1,.32-.64.5.5,0,0,1,.64.32l.18.55A.5.5,0,0,1,421,85.79Zm15.2.76a.45.45,0,0,1-.31-.11.51.51,0,0,1-.09-.71A5.42,5.42,0,0,1,438.21,84a.51.51,0,1,1,.35,1,4.5,4.5,0,0,0-2,1.43A.51.51,0,0,1,436.2,86.55Zm2.61,1.87a1.41,1.41,0,0,0-.6,1.2.5.5,0,0,1-.49.52h0a.52.52,0,0,1-.51-.49,2.41,2.41,0,0,1,1-2.06.51.51,0,0,1,.58.83Zm11.59,19.52a.51.51,0,0,1-.5.47h0a.5.5,0,0,1-.46-.54l.12-1.46a.51.51,0,0,1,.55-.46.5.5,0,0,1,.46.54Zm48.79,42.19a.54.54,0,0,1-.21.05.5.5,0,0,1-.46-.3.51.51,0,0,1,.25-.67A2.2,2.2,0,0,0,499.9,148a.5.5,0,0,1,.65-.31.51.51,0,0,1,.31.65A3.23,3.23,0,0,1,499.19,150.13Zm3.72,4.61a4.74,4.74,0,0,1-1.85,1l-.14,0a.52.52,0,0,1-.49-.37.49.49,0,0,1,.35-.62,3.66,3.66,0,0,0,1.44-.8.51.51,0,0,1,.69.75Zm.73,14.22a.48.48,0,0,1,.56-.45,28.28,28.28,0,0,0,7.18.12,9.21,9.21,0,0,0,6-3.18.51.51,0,1,1,.8.62,10.17,10.17,0,0,1-6.63,3.56,18.57,18.57,0,0,1-2.78.2,44.82,44.82,0,0,1-4.66-.32A.5.5,0,0,1,503.64,169Zm4.16,4.09a.51.51,0,0,1-.29-.66.51.51,0,0,1,.65-.29,9.53,9.53,0,0,0,4.22.62.49.49,0,0,1,.55.46.51.51,0,0,1-.46.55c-.29,0-.58,0-.87,0A10.34,10.34,0,0,1,507.8,173.05Zm13.3,1.67a6.52,6.52,0,0,1-3.79,2.57,7.65,7.65,0,0,1-2,.26,7.51,7.51,0,0,1-1.83-.22.5.5,0,0,1,.24-1,6.79,6.79,0,0,0,3.35,0,5.5,5.5,0,0,0,3.21-2.16.5.5,0,1,1,.83.57Zm1.63-4.27a.5.5,0,0,1,.28.66l-.73,1.83a.51.51,0,0,1-.47.32.43.43,0,0,1-.19,0,.5.5,0,0,1-.28-.66l.73-1.83A.52.52,0,0,1,522.73,170.45Zm-3.07,2.2a8.91,8.91,0,0,1-6.69,3.08l-.57,0a.51.51,0,1,1,.07-1,7.72,7.72,0,0,0,8-9.49.51.51,0,0,1,1-.24A8.91,8.91,0,0,1,519.66,172.65Z"/><path class="cls-2" d="M538.59,18.05c-1.08-1-2.16-1.95-3.26-2.91-24.06,11.37-48.87,23-74.11,32.48-3.52,1.33-7.07,2.62-10.61,3.91-9.32,3.4-18.92,6.91-28.12,11.09l3.07,3.07L477.45,44a.5.5,0,0,1,.39.93L426.33,66.46l11.18,11.18a.44.44,0,0,1,.22-.26l42.62-22a.51.51,0,1,1,.46.9l-42.62,22h0l64.35,64.35a134.77,134.77,0,0,1,6.83-14.42.52.52,0,0,1,.69-.2.51.51,0,0,1,.2.69,133.26,133.26,0,0,0-6.94,14.7l1.87,1.87c3.49-6.48,6.75-13.17,9.66-19.93a.5.5,0,1,1,.92.4c-3,6.88-6.28,13.69-9.84,20.28l3.88,3.88c11-25.87,22.37-52.51,35-78.06l1.62-3.26c4.8-9.62,9.72-19.54,12.68-30l-.19-.21c-3.06,4.71-6,9.59-8.69,14.5a.49.49,0,0,1-.44.26.5.5,0,0,1-.24-.06.52.52,0,0,1-.2-.69c2.76-5,5.75-10,8.87-14.79l-2.08-2.27a136.34,136.34,0,0,1-8.33,13.39.51.51,0,0,1-.41.21.52.52,0,0,1-.29-.09.5.5,0,0,1-.12-.7,137.88,137.88,0,0,0,8.37-13.47s.06,0,.09-.07c-2.19-2.34-4.41-4.66-6.67-6.92-1.89-1.89-3.85-3.75-5.82-5.6-17.36,8.62-34.56,18-51.18,27.92a.48.48,0,0,1-.26.07.5.5,0,0,1-.25-.94c16.54-9.89,33.65-19.2,50.93-27.79-.93-.87-1.87-1.72-2.81-2.57L490.18,42.89a.59.59,0,0,1-.22,0,.48.48,0,0,1-.45-.28.51.51,0,0,1,.23-.68ZM443.42,60.48a25.44,25.44,0,0,0,7.18-2.54l.29-.14a268,268,0,0,1,32.25-12.61.51.51,0,0,1,.64.33.5.5,0,0,1-.33.64,266,266,0,0,0-32.13,12.57l-.29.14a26.25,26.25,0,0,1-7.47,2.62h-.07a.51.51,0,0,1-.07-1Zm13.33,22-6.39,4.57a.52.52,0,0,1-.29.09.49.49,0,0,1-.41-.21.51.51,0,0,1,.12-.71l6.39-4.57a.51.51,0,0,1,.71.12A.53.53,0,0,1,456.75,82.48ZM468.15,84a.5.5,0,0,1-.37-.16.51.51,0,0,1,0-.72,52.06,52.06,0,0,1,6.09-5,.51.51,0,1,1,.59.82,51.93,51.93,0,0,0-6,4.89A.5.5,0,0,1,468.15,84Zm6.38,7.71-1.46,1.46a.51.51,0,0,1-.72-.72L473.81,91a.51.51,0,0,1,.72.72Zm5.85,6.73a.5.5,0,0,1-.34-.13.5.5,0,0,1,0-.71l4.2-4.57a.51.51,0,1,1,.74.69l-4.2,4.57A.54.54,0,0,1,480.38,98.47Zm8.95,6.24-4.75,4.75a.51.51,0,0,1-.72-.72l4.75-4.75a.51.51,0,1,1,.72.72Zm16.33,19.82-3.47,5.66a.51.51,0,0,1-.69.17.52.52,0,0,1-.17-.7L504.8,124a.51.51,0,1,1,.86.53ZM528.77,94.3c-4.38,8.26-9.06,16.47-13.93,24.41a.51.51,0,0,1-.69.17.52.52,0,0,1-.17-.7c4.85-7.92,9.53-16.11,13.89-24.36a.5.5,0,0,1,.68-.21A.52.52,0,0,1,528.77,94.3Zm17.84-33c-3.84,8.45-7.9,16.94-12.07,25.23a.5.5,0,0,1-.45.28.64.64,0,0,1-.23,0,.51.51,0,0,1-.23-.68c4.16-8.28,8.22-16.75,12.06-25.19a.51.51,0,0,1,.67-.25A.48.48,0,0,1,546.61,61.27Zm-1.23-25.36a.51.51,0,0,1,.81.61,46.31,46.31,0,0,0-3.79,6,.51.51,0,0,1-.45.27.53.53,0,0,1-.24-.06.5.5,0,0,1-.21-.68A48.21,48.21,0,0,1,545.38,35.91ZM538,33.76a18.11,18.11,0,0,1,2.82-3.57.52.52,0,0,1,.72,0,.51.51,0,0,1,0,.72,16.67,16.67,0,0,0-2.66,3.37.5.5,0,0,1-.43.25.48.48,0,0,1-.26-.07A.53.53,0,0,1,538,33.76Zm-5.68,37.48,1.46-2.92a.51.51,0,1,1,.91.45l-1.46,2.92a.5.5,0,0,1-.45.28.64.64,0,0,1-.23,0A.51.51,0,0,1,532.36,71.24ZM519.65,49.55l8.77-9.13a.51.51,0,0,1,.72,0,.52.52,0,0,1,0,.72l-8.77,9.13a.51.51,0,0,1-.74-.71Zm-5.22,51.08a.52.52,0,0,1,.17.7l-11.86,19.55a.51.51,0,0,1-.69.17.51.51,0,0,1-.17-.69l11.86-19.56A.5.5,0,0,1,514.43,100.63Zm-12.57-38a16.28,16.28,0,0,1,3.78-4.52.5.5,0,0,1,.64.78,15.2,15.2,0,0,0-3.54,4.24.51.51,0,0,1-.44.26.45.45,0,0,1-.25-.07A.51.51,0,0,1,501.86,62.63Zm.48,7.25a.5.5,0,0,1,0,.71l-13.15,11.7a.55.55,0,0,1-.34.13.52.52,0,0,1-.38-.17.5.5,0,0,1,0-.71l13.15-11.7A.51.51,0,0,1,502.34,69.88Zm-4.71-12.52a.51.51,0,0,1,.71.11.52.52,0,0,1-.11.71L482.34,69.7a.54.54,0,0,1-.3.1.49.49,0,0,1-.41-.21.52.52,0,0,1,.11-.71Zm-.05-15.76a.51.51,0,0,1,.45.91c-20.52,10-41.73,20.43-63.68,28.13a.51.51,0,0,1-.65-.31.52.52,0,0,1,.31-.65C455.91,62,477.1,51.63,497.58,41.6Z"/><path class="cls-2" d="M484.36,34.65a.5.5,0,1,1,.33,1c-21.59,7.49-43.1,16-64,25.17l1.11,1.11c9.33-4.27,19.06-7.86,28.51-11.3,3.54-1.29,7.08-2.58,10.6-3.9,25.06-9.44,49.72-21,73.64-32.27l-.19-.17c-14.1,6.89-28.61,13.39-43.13,19.31a.43.43,0,0,1-.19,0,.51.51,0,0,1-.47-.32.51.51,0,0,1,.28-.66c14.37-5.86,28.73-12.29,42.7-19.1l-.08-.07L418.93,59.05l1,1C441,50.73,462.62,42.19,484.36,34.65Z"/><rect class="cls-2" x="561.51" y="34.21" width="1.01" height="0.28" transform="translate(140.43 407.58) rotate(-45.02)"/></g></g></svg>