<svg xmlns="http://www.w3.org/2000/svg" viewBox="0 0 576.61 576.61"><defs><style>.cls-1{fill:#f8b133;}.cls-2{fill:#662482;}</style></defs><g id="Layer_2" data-name="Layer 2"><g id="Layer_1-2" data-name="Layer 1"><circle class="cls-1" cx="283.72" cy="287.33" r="219.84"/><path class="cls-2" d="M461.4,467.06h55.29a8.71,8.71,0,0,1,2.34,0c1.45.4,2.84,1,4.25,1.54-1.26.62-2.46,1.61-3.78,1.79a67.9,67.9,0,0,1-8.79.54c-26.28.12-52.56.17-78.84.31a49.87,49.87,0,0,0-6.5.85c2.14.17,4.28.43,6.42.49q23.23.64,46.46,1.22a13.14,13.14,0,0,1,2.35.07,8.55,8.55,0,0,1,1.85.85c-.63.31-1.25.89-1.88.89-5.29,0-10.59,0-15.88-.25-9.79-.44-19.58-1.4-29.37-1.48-10.36-.08-20.74.54-31.1,1.09-1.34.07-2.6,1.56-3.9,2.4,1.47.56,2.93,1.58,4.41,1.61,25.69.42,51.38.66,77.07,1.09,3.19.05,6.36,1,9.54,1.56-3.22.74-6.45,2.16-9.65,2.1-24.31-.45-48.62-1.27-72.93-1.74-2.68-.05-6.37-2-8.07,2.19,2.67.56,5.31,1.47,8,1.62,15.46.82,30.93,1.45,46.4,2.18a17,17,0,0,1,2.68.56c-1,.41-1.94,1.2-2.88,1.16-11.36-.44-22.72-1-34.07-1.54-5.68-.26-11.36-.59-17-.68-1.09,0-2.2,1-3.3,1.48,1.09.51,2.16,1.44,3.26,1.48,10.58.36,21.17.57,31.76.82,1.76,0,3.53,0,5.29.13a4.21,4.21,0,0,1,1.37.66c-.44.3-.86.84-1.31.87-1.76.11-3.52.11-5.28.06-10-.25-20-.53-30-.76a15.42,15.42,0,0,0-4.67.23c-.9.26-1.5,1.52-2.24,2.33.83.57,1.62,1.57,2.49,1.64,4.49.36,9,.53,13.51.67q23.22.72,46.45,1.39a5.6,5.6,0,0,1,1.75.11c2,.76,4,1.62,6,2.44a34,34,0,0,1-5.95.9c-22.55-.47-45.09-1-67.64-1.58a5,5,0,0,0-2.31.23,10.5,10.5,0,0,0-2.05,1.86,7.41,7.41,0,0,0,2.42,1c7.84.1,15.69.1,23.53.12,3.14,0,6.28-.14,9.41,0a25.5,25.5,0,0,1,4.69,1.16,35,35,0,0,1-4.42.52c-12.55,0-25.11-.17-37.66-.16a22.87,22.87,0,0,0-4.67,1,23.8,23.8,0,0,0,4.41.95c15.49.44,31,.72,46.46,1.24,2.36.08,4.68,1.16,7,1.77-2.34.44-4.69,1.29-7,1.25-18-.34-36.07-.87-54.11-1.31-3.73-.09-7.45-.14-11.18-.09a11.49,11.49,0,0,0-2.73.72c.93.5,1.84,1.39,2.79,1.44,15.28.71,30.56,1.27,45.84,2q7.05.32,14.05,1.2c1,.13,1.84,1.48,2.76,2.27a10.33,10.33,0,0,1-3.08.86c-26.43-1.19-52.86-2.56-79.3-3.61-5.64-.22-11.31.95-17,1-39.79.55-79.58.77-119.36,1.56-16.06.32-32.1,1.78-48.14,2.72-2.54.15-5.09.36-7.63.41a6.13,6.13,0,0,1-2-.72c.56-.38,1.09-1,1.68-1.1,3.5-.41,7-.81,10.54-1q28.78-1.42,57.57-2.74a20.35,20.35,0,0,0,2.35-.08,11.25,11.25,0,0,0,2-.73c-.61-.41-1.18-1.12-1.82-1.19-12.79-1.42-25.42-4.5-38.49-2.58-6,.88-12.12.7-18.19,1a9.82,9.82,0,0,1-2.17-.39,17.32,17.32,0,0,1,2.22-.5c8.59-.75,17.18-1.45,25.77-2.22a7.26,7.26,0,0,0,2-.83c-.53-.51-1-1.25-1.61-1.49-5.1-1.94-10-4.15-15.83-3.64-8.19.72-16.46.65-24.69.87a11.11,11.11,0,0,1-2.24-.4,10.88,10.88,0,0,1,2.06-.51c7.43-.48,14.87-.86,22.3-1.45,1.16-.09,2.25-1.08,3.37-1.66-1.06-.7-2.07-1.92-3.19-2-19.75-1.82-39.5-2.73-59.22.48a56.21,56.21,0,0,1-7.36.27c2.3-.76,4.55-1.84,6.91-2.21a195,195,0,0,1,46.3-2.12,61,61,0,0,0,7.63.35c1,0,2-1,3.07-1.52a22.9,22.9,0,0,0-2.71-3.3c-.45-.39-1.51-.11-2.3-.1-12.94.21-25.88.47-38.82.58a37.2,37.2,0,0,1-6.22-1,53.75,53.75,0,0,1,5.45-.78c4.09-.18,8.2-.19,12.3-.25,9.4-.14,18.81-.16,28.2-.52a4.71,4.71,0,0,0,3.29-2.85c.65-2.25-.64-3.69-3.21-3.59-1.37.05-2.75,0-4.12,0Q133.2,481.72,97.65,483c-3.71.14-7.41.73-11.11,1.07a5.87,5.87,0,0,1-1.62-.31,5.08,5.08,0,0,1,1.52-.74c6.23-.68,12.45-1.63,18.7-1.88,21.35-.88,42.72-1.45,64.07-2.3,2.34-.09,6.31,1.53,6.56-2.5.29-4.77-4.1-3.29-6.61-3.3-16.67-.05-33.34.15-50,.26-.75,0-1.5-.11-2.25-.17.78,0,1.56-.13,2.34-.16l50-1.49a15.21,15.21,0,0,0,4.07-.34,2.63,2.63,0,0,0,1.53-2,3.7,3.7,0,0,0-1.72-2.52,8.41,8.41,0,0,0-3.47-.29c-21.18.07-42.37-.09-63.54.31-14.28.27-28.55,1.35-42.83,2a11.92,11.92,0,0,1-3.09-.68,12.64,12.64,0,0,1,3.06-.93q48.19-1.71,96.41-3.33c3.33-.11,6.67-.05,10-.28,2.16-.15,5.36.6,5.1-3.09-.24-3.4-3.21-2.13-5.1-2.08-13.91.31-27.82.75-41.72,1.16a13,13,0,0,1-1.76,0c-1.41-.13-2.81-.32-4.21-.49,1.35-.15,2.69-.4,4-.45,8.62-.32,17.24-.53,25.85-.92,6.65-.3,13.29-.86,19.94-1.15,2.53-.11,3.4-1.25,3.42-3.65,0-2.74.49-5.49.43-8.22-.24-10.58,6.36-16.08,15.11-19.07,9.42-3.22,19.31-5.05,28.83-8,5.73-1.78,11.18-4.49,16.67-7,2.09-.94,3.12-2.51,2.47-5.23-1.35-5.61.14-8.19,4.86-11a61.88,61.88,0,0,0,7.74-5.91c1.89-1.61,2.93-3.22.95-5.95-.94-1.3-.7-4.46.28-5.92,2.38-3.55.72-5.88-1.43-8.33-3.36-3.82-6.79-7.58-10.16-11.4-5.71-6.47-6.34-13.65-2.75-21.3,2.06-4.38,4.29-8.53,8.07-11.93,3.63-3.27,7.39-7.06,5.45-13a2.93,2.93,0,0,1,.36-2.27c3.22-4.57.43-7.11-2.68-10.29-7.95-8.12-15.43-16.7-23.15-25a17.38,17.38,0,0,0-3.06-2.17,12.61,12.61,0,0,0-.92,3.28c0,10.18-7.86,17.36-18.9,19.06a35.24,35.24,0,0,1-27.2-6.68c-6.26-4.58-8.31-11-6.29-18.12,1.1-3.89,3.46-6.06,7.52-6.13s6.64,1.85,8,5.64c.78,2.21,1.88,4.32,2.51,6.57,1.18,4.19,4.47,4.75,7.88,4.42a7.51,7.51,0,0,0,7-6c1.38-5.27.19-9.81-3.89-13.21a62.18,62.18,0,0,0-10.67-7.16c-37.8-20-71.46-45.35-99.62-77.56C82.79,168.13,79,159.6,75,151.55c-8.29-16.88-16.25-34-20.53-52.4A86.93,86.93,0,0,1,53.38,63c3.5-18.38,17.41-28.76,36.09-28.55,18,.2,27.75,10.9,34.51,25.64a113.32,113.32,0,0,1,5.6,16.7c1.6,5.69,6,8.52,10.55,11.24,2.13,1.26,2.82,0,2.84-1.92.05-4.69.29-9.39,0-14.06-.25-4,1.94-5.61,5.11-6.79,22-8.24,44.83-12.68,68.12-14.81,18.34-1.68,36.72-3.59,55.11-3.87,29.15-.45,58.38-2.82,87.46,2,15.06,2.49,30.37,3.57,45.3,6.63,9.49,2,18.5,6.3,27.64,9.78a4.58,4.58,0,0,1,2.23,3.34c.41,5.24.55,10.5.59,15.75,0,3,1.5,3.88,3.49,2.06a38,38,0,0,0,7.83-9.14c3.4-6.15,5.73-12.88,9-19.09,4-7.47,10.35-12.84,17.74-16.71,16-8.35,35.22-1.87,44.45,14.31,6.21,10.88,7.72,22.58,6.59,34.65C520,129.51,501.42,161.72,475,190.19c-24.34,26.18-53.05,46.33-84.34,63.15-5,2.69-9.82,5.73-14.58,8.83-3.29,2.14-5.84,5.13-4.47,9.32.62,1.89,2.49,4.34,4.19,4.72,4.22.93,8.24-.29,10.65-4.39,1.59-2.7,2.53-5.94,4.6-8.16s5-4.46,7.55-4.37c2.15.07,4.83,3.09,6.12,5.44,2.52,4.57,1.87,9.55-.48,14.13-5.48,10.63-14.45,16.4-26.18,17.44-9.8.88-20.51-8.54-22.91-19.34-.41-1.86-1.11-3.66-1.68-5.48a45.92,45.92,0,0,0-4.48,3.45q-12.33,12-24.51,24.22c-.89.89-2,2.2-1.95,3.27.19,3.78.35,7.69,1.46,11.26a16.82,16.82,0,0,0,4.79,7.12,28,28,0,0,1,2.79,39.5c-2.6,2.93-5,6-7.5,9.05-1.57,1.9-2.27,3.28.61,5.06,4.62,2.87,5.07,5.59,1.18,9.38-2.66,2.59-1.75,3.79.4,5.42a86.55,86.55,0,0,0,7.05,5.21c4.9,3,6.37,5.19,4.73,10.62-1.08,3.57.52,4.94,2.81,6.7,7,5.37,15.5,6.09,23.67,8.09a185.1,185.1,0,0,1,23.43,7.5c6.93,2.72,11,7.75,10.29,16-.37,4.25.4,8.6.64,12.9.14,2.64,1.45,3.66,4.14,3.68,13.52.12,27,.39,40.57.6a18.58,18.58,0,0,1,2.35-.08c1.84.28,3.65.7,5.47,1.06-1.73.11-3.46.35-5.19.32-14.11-.24-28.22-.55-42.34-.8-1.85,0-4.32-.69-4.39,2.36s2.52,2.46,4.31,2.53q28.8,1.09,57.61,2.08C461.39,467.63,461.4,467.35,461.4,467.06ZM198.33,284.21l-3.18-.8c.1.48.21,1,.31,1.44l2.78-.77c3.41,1.77,3.47,1.77,3.55-.61l2.06-1.23-1.67-1.34L200.59,283Zm228.11-65-2.41.34c-.26-.65-.53-1.3-.79-2l-7.63,5.2c.48.49,1.25,1.49,1.4,1.4,2.12-1.21,4.17-2.57,6.23-3.89,1.36,2.18,1.36,2.18,3.7-.54l2.5-2.46Zm-254,11.94,2.77,2.27c.17-.26.35-.52.52-.79l-3.39-1.36-4-2.21a4.31,4.31,0,0,0-.09.91C169.66,230.43,171.05,230.8,172.44,231.18ZM98.19,172.43c-1.82-1.6-3.6-3.26-5.51-4.75-.45-.35-1.36-.1-2.06-.13a7.7,7.7,0,0,0,.9,1.79,20.75,20.75,0,0,0,2.08,1.88c-4.43,1.52-.5,2.9.3,3.61,3.69,3.26,7.62,6.25,11.46,9.34l-2.54.7c2.37,1.89,4.72,3.79,7.12,5.64.14.11.92-.31.91-.36a3,3,0,0,0-.58-1.5c-1.66-1.59-3.39-3.09-5.1-4.63,1.65-.61,3-1.31,1-3.09L101.73,177l2-1.83Zm28.92,30.81,5.8.53c-1,4.85,4.35,4.51,6,7.23.27.44,2,0,3,0-.23-1-.14-2.57-.75-2.93-2.7-1.58-5.6-2.81-8.43-4.16a36.56,36.56,0,0,0-4-3.31,9.38,9.38,0,0,0-3.13-.7c.44,1.11.88,2.23,1.31,3.34-1.44-.56-2.86-1.16-4.32-1.67-.3-.11-.72.11-1.08.18.1.46.05,1.18.33,1.35,1.47.91,3,1.67,4.55,2.49Zm83.11,82.14c1.56-2.27,3.2-4.49,4.58-6.86.23-.4-.63-1.44-1-2.18-.42.56-1.12,1.08-1.22,1.7-.72,4.35-1.81,4.72-3.88.58-.32-.64-1.87-.66-2.86-1-.09,1.19-.69,2.76-.15,3.48a33,33,0,0,0,4.63,4.35l-6.39,1.76c-6.51,1-12.94,1.41-18.8-2.5a1,1,0,0,0-.54-.22c-.72,0-1.44.13-2.16.21.49.59.86,1.37,1.48,1.74a25.67,25.67,0,0,0,14.48,3.75c2.51-.1,4.73-.13,5.47-3.1C207.07,290.47,208.54,287.53,210.22,285.38Zm-52.1-62.28c-.88-3-10.54-11.29-13-11.11-.5,0-1.41.61-1.38.79a4.23,4.23,0,0,0,.95,2.35c2.23,1.88,5.37,3.14,6.75,5.47,1.9,3.21,4.12,2.87,6.83,2.36-3.91,1.93-.76,3.36.35,4.94-1.45-.56-2.87-1.18-4.35-1.63a2,2,0,0,0-1.33.56c.38,1.89,3.71,2.41,5.52.91l3.1,1.53c-3.23,5.09,2.75,4.29,4.21,6.38.34.49,1.72.24,2.62.34-.35-.76-.66-1.54-1.05-2.27-.6-1.13-1.64-2.17-1.83-3.35C164.48,224.11,164.32,223.87,158.12,223.1ZM389.86,495.59c.93-.35,2.66-.68,2.67-1,.09-3.51-.11-7-.25-10.55a5.51,5.51,0,0,0-.26-1.12,15,15,0,0,0-.56,1.92c-.56,3.64-1.09,7.29-1.62,10.94.27-13.29.57-26.57.74-39.86,0-1.32-.82-2.66-1.25-4-1.05,1.36-2.51,2.58-3,4.11-.45,1.34.11,3.06.34,4.59.46,3,1.3,6,1.43,9,.2,4.29-.39,8.61-.1,12.89S389.21,491.21,389.86,495.59ZM259,290.41a31.77,31.77,0,0,0-4,.41c-.61.13-1.11.81-1.66,1.23.47.59.89,1.66,1.41,1.7,4.57.44,10.51,2.6,13.4.54,4.05-2.89,7.84-2.35,11.82-3a10.6,10.6,0,0,0,1.63-.51c-.39-.3-.76-.82-1.18-.88-5.75-.79-11.51-1.6-17.28-2.23-2-.22-4,.12-4.22,2.82Zm95.29-37.7c-.57-.12-1.14-.27-1.72-.34-1.92-.23-4.35-.88-4.55,2-.12,1.69.55,4.54,1.6,4.94,1.5.57,4-.16,5.46-1.2,1.17-.83,1.45-2.93,2.12-4.47C364.29,249,368.46,242,373,235.15c.19-.29-.33-1.05-.52-1.58.58,0,1.48.11,1.7-.2,4.24-6,8.43-12,12.49-18.13.23-.34-.69-2-1.36-2.28-5.54-1.92-11.11-3.75-16.75-5.32-1-.28-3.24.57-3.38,1.22a4.81,4.81,0,0,0,1,4c1.42,1.19,3.51,1.56,5.28,2.35a5.87,5.87,0,0,1,1.29,1.07,6.89,6.89,0,0,1-1.58-.09c-2.45-.66-4.87-1.47-7.34-2a2.7,2.7,0,0,0-2.33.59c-1.8,2.91,0,8.93,3,10.34a11.87,11.87,0,0,1,1.63,1.13l-1.73,0-4.07.07c.07.81.15,1.63.22,2.44-3,1.67-3.82,3.36-.09,5.17a16.93,16.93,0,0,1,1.91,1.25c-.89.08-1.93.5-2.63.18-3.85-1.78-4,2.21-5.87,3.57,2.55,2.92.51,2.83-1.79,3a2.84,2.84,0,0,0-1.84,2.08c-.08,1.88,4.23,4-.4,5.62a7.14,7.14,0,0,0,1.36,1.6A32.1,32.1,0,0,0,354.3,252.71ZM372,488.37c.46-1.88,1-3.73,1.35-5.63.76-4.53,1.37-9.09,2.11-13.62a18.09,18.09,0,0,1,.88-2.7,15.91,15.91,0,0,1,.48,2.95c0,2.15-.28,4.29-.43,6.44-.56,7.81-1.2,15.61-1.59,23.42-.06,1.24,1,2.55,1.56,3.82,1.55-1.17,3.78-2,4.46-3.58.8-1.82.31-4.23.3-6.38-.05-8.22-.36-16.45-.09-24.67.12-3.77,1.37-7.51,2.12-11.27.13-.67.31-1.33.47-2a5.74,5.74,0,0,0-2.18-.2c-3,1-5.89,2.12-8.86,3.11-7,2.32-6.87,2.28-5.88,9.21a142.76,142.76,0,0,1,1.66,16c.14,5.07-.63,10.15-.78,15.23a38.54,38.54,0,0,0,.73,6c.53-2.1,1.42-4.18,1.53-6.31.47-8.6.66-17.21,1.07-25.81a14.32,14.32,0,0,1,1.2-3.65,17.36,17.36,0,0,1,.55,3.39c-.13,5.47-.38,10.93-.58,16.4-.28,4.26-.58,8.53-.81,12.79a4.35,4.35,0,0,0,.55,1.57c.31-.56.91-1.14.89-1.69C372.54,496.88,372.26,492.63,372,488.37ZM450.48,197c-.34,1.18-.67,2.36-1,3.55,1.3-1.21,4.51-1.18,2.82-4.33,2.22-1.19,4.45-2.34,6.65-3.56,5.1-2.83,11.25-4.68,15-8.73,8.2-8.79,15.21-18.71,22.66-28.2a12.85,12.85,0,0,0,2-3.55,2.44,2.44,0,0,0-.56-2.23c-2.32-1.18-13.74,3.06-15.26,5.39-1.73,2.65-3.55,5.24-5.39,7.81-7.72,10.76-15.51,21.47-25.76,30.09C450.85,194,450.87,195.73,450.48,197ZM314.22,322.3c1.56.13,3.12.26,4.68.36,0,0,0-.3.05-.46l-4.84.16c-.8-.82-1.58-2.32-2.4-2.35a52.49,52.49,0,0,0-7.58.7c-4.59.54-9.28.83-12.69,4.62-.38.42-.9.81-1.05,1.31-.07.22.56.87,1,1,1.48.44,3,.75,4.52,1.11l-4.8,1.51a1.17,1.17,0,0,0-.53.23c-.32.39-.58.82-.86,1.24a2.9,2.9,0,0,0,1,.26,19,19,0,0,1,2.31-.36,9,9,0,0,1,2.09.57,8.71,8.71,0,0,1-1.57,1.36c-.68.35-1.53.36-2.24.68-.94.42-1.81,1-2.71,1.5.93,1.34,1.79,2.73,2.83,4,.25.3,1.13,0,1.71.1s1.43.31,2.15.47c-.67.17-1.36.28-2,.51-1.58.54-3.14,1.13-4.7,1.7,1.69.69,3.36,1.4,5.07,2,.34.13.78,0,1.17,0,.57.05,1.13.15,1.7.23-.55.43-1,1.11-1.67,1.25-1.84.42-4.75.22-3.73,3,.78,2.14-.35,6,3.84,6.18.76,0,1.51.12,2.27.18a20.71,20.71,0,0,1-2.45,1,16.73,16.73,0,0,0-2.31.3,22.67,22.67,0,0,0-2.93,1.78c1,.86,1.92,2.37,3,2.46,6,.52,12.06.74,18.09,1,1.11,0,3.22-.33,3.22-.54.1-4,3.75-3.23,5.84-4.49.81-.49,2.31-1.42,2.29-1.45-2.06-3.55,1.21-2.31,2.51-3a19.39,19.39,0,0,0,3.33-3l-3.68-2c-.55-.3-1.09-.62-1.64-.93a7.55,7.55,0,0,1,1.47-.75c.56-.15,1.18,0,1.75-.16,3.21-.63,3.2-.64,1.72-4-.05-.11.37-.45.6-.65.77-.65,1.55-1.28,2.33-1.91a31.28,31.28,0,0,0-2.77-2.25c-.41-.27-1.07-.16-1.62-.22.17-.28.36-.54.51-.83.59-1.11,1.17-2.22,1.75-3.33a42.61,42.61,0,0,0-4.79-1.23,9.54,9.54,0,0,0-2.8.41c.83-.53,2.1-.9,2.37-1.64.36-1,.35-3-.19-3.29-2.21-1.2-4.7-1.86-7-2.85C315.17,323.55,314.74,322.82,314.22,322.3ZM79.73,150.85a45.53,45.53,0,0,0,2.71,6.51c.36.61,2.11.42,3.22.59a9.53,9.53,0,0,0-1.3-2.7c-1.47-1.53-3.16-2.86-4.76-4.27-1.58-7-1.58-7,5.29-9.64-2.65,1.75-2.74,3.65-.16,5.48a11.68,11.68,0,0,0,3,1.06c-.62-1.7-1.19-3.42-1.88-5.1a6.27,6.27,0,0,0-1.07-1.37,26.45,26.45,0,0,0-1-3.35,180.39,180.39,0,0,1-13-41.77c-2-11.08-4.52-22.13-1.57-33.46C72.66,49.24,87.35,44.06,98,50.73c7.19,4.53,10.2,11.51,12.82,19,1.81,5.16,3.81,10.25,5.89,15.3.89,2.16,2.39,3.71,5,2.13,2-1.21,5.41-1.12,4.91-4.78-.37-2.7-1.39-5-4.86-4.34l.13.14c2.92-1.53,2.72-3.68,1.64-6.4-1.3-3.3-3.31-1.64-5.24-1.16,1-1.62,3-3.35,2.81-4.83-.56-4.69-3-6.53-7.75-6.9l-1.9-.13c.78,0,1.56,0,2.35,0,1.85-.06,3.27-.42,1.82-2.72-4.31-6.88-9.94-12.26-18.25-13.34-7.68-1-15-2-23,1.78S61,53.18,57.82,60.54C52.45,73.11,54,86.16,57.19,99c.26,1,3.42,1.47,3.51,2.35.19,1.93-1.57,4.22-1.05,5.91,1.41,4.62,3.58,9,5.46,13.5l-.14-.14c4.13,9.63,8.23,19.26,12.45,28.85C77.73,150.14,78.94,150.4,79.73,150.85ZM507.51,62.66l-.11-.08a59.06,59.06,0,0,1,1.12,21.87c-1,6.91-3.39,13.65-4.1,20.58s-5.13,12.43-5.09,19.69c0,4.1-4.29,8.13-6.29,12.37-.8,1.7-3.81,3.85-.11,5.81a60,60,0,0,0-4.92,4c-.57.57-.55,1.75-.79,2.65a10.14,10.14,0,0,0,2.76.27c3-.57,6.23-.93,9-2.12a12.14,12.14,0,0,0,4.78-4.43c1.25-1.85.33-2.91-2-2.36-3,.71-6,1.39-9.07,2.08,2.74-1,5.4-2.41,8.22-2.87,4.23-.69,6.36-3,7.84-6.84,5.7-14.61,10.6-29.43,12.52-45.08.77-6.21.69-6.3-5.72-4.75l.08,0c.57-.49,1.1-1.35,1.72-1.42,4.66-.59,5.27-3.36,4-7.16-1.91-5.72-3.26-11.74-6-17.07-7.31-14.43-25.9-19.55-40.65-12.75C459.87,52,453.39,64.93,448,79c-.8,2.07-.3,3.09,2.13,2.22s4.82-1.63,7.23-2.45c2.16-.73,5.05-.91,4.3-4.2-.08-.36-3.62.05-5.56.17-.89.06-1.77.29-2.66.44a8,8,0,0,1,2.4-1.41c5.39-.89,7.94-4.12,10.06-9.13,1.63-3.85,5.34-7.24,8.88-9.78,6.68-4.8,17.52-4.13,24.19.84C501.9,57.87,504.66,60.32,507.51,62.66ZM191.26,431.16c-.75-.64-1.8-2-2.19-1.81-1.92.86-4.24,1.72-5.34,3.33-1.4,2.06-2.82,5.07-2.32,7.22.59,2.52,3.7,6.68,4.93,6.42,4.15-.88,5,2.43,7.3,3.92a38.63,38.63,0,0,0,5.67,2.77,4.26,4.26,0,0,0,1.63,0c-.26-.45-.4-1.05-.78-1.33-2-1.49-4.15-2.86-6.19-4.34A11.75,11.75,0,0,1,191.41,431c-.32,2.57-1.79,5.8-.76,7.61a27.28,27.28,0,0,0,18.88,13.73c16.72,3.21,33.36,7.11,50.6,6.55,7.05-.23,14.12.13,21.18.29a13.4,13.4,0,0,1,2.74.63,14,14,0,0,1-2.95.82,256.11,256.11,0,0,1-60.87-4,33.57,33.57,0,0,0-6,0,56.45,56.45,0,0,0,6,2c22.18,4.8,44.73,5.63,67.28,5.2,20.55-.39,41.18-.94,61.59-3.19,14.25-1.57,28.58-5.09,39.95-15.25a13.19,13.19,0,0,0,2.58,1.1,42.45,42.45,0,0,0,4.48-7.54c.4-1-.78-2.61-1.24-4l-2.29,3.34a6.74,6.74,0,0,0,.16-1.16c-.1-3.31-.11-3.3-2.88-2.26-.1,0-.43-.2-.43-.31,0-5.28-4.47-5.75-7.95-7.19-2.93-1.21-3.86-.75-2.83,2.75,2.08,7,.75,10-5.45,13.65a52.73,52.73,0,0,1-5.82,2.79c-12.95,5.67-26.66,7.41-40.62,8.38-19.11,1.32-38.06,3.54-57.38,2.5s-38.64-3-57.35-8.45c-3.43-1-6.61-3.1-9.68-5.05-1.26-.8-1.92-2.56-2.85-3.89,1.27.86,2.49,1.81,3.82,2.57s2.81,1.36,4.23,2c18.68,8.41,38.75,10.07,58.66,10.12,22.48.05,45-1.85,67.43-3.49a97.93,97.93,0,0,0,37.55-11c2.53-1.29,6.15-4.61,5.82-6.33-.5-2.56-4-4.54-6.33-6.72a4.51,4.51,0,0,0-1.56-.79c-1.75-.64-3-.79-2.82,1.86.37,6-3.26,9.48-8.12,11.77-3.52,1.66-7.23,3.37-11,3.89-12.2,1.69-24.44,3.37-36.72,4.07-17.37,1-34.83,2.07-52.16,1.23-13.19-.64-26.35-3.7-39.31-6.61-9.82-2.2-11.8-6.54-9.25-15.73a9.3,9.3,0,0,0,.08-2.12,6.94,6.94,0,0,0-2.2.44c-3.16,1.88-6.26,3.87-9.37,5.81l.1.09c.09-.76.17-1.53.26-2.29.15-1.17.31-2.34.47-3.51-1.38.52-3,.76-4.08,1.63A30.51,30.51,0,0,0,191.26,431.16ZM417,91.3c-1.72-.36-3.42-.81-5.15-1-4.58-.64-9.18-1.23-13.78-1.72-.67-.07-1.4.5-2.1.78a20,20,0,0,0,1.9.84c3.32,1.11,6.68,2.14,10,3.34.47.17.67,1.09,1,1.66a8.28,8.28,0,0,1-1.65,0c-3.63-.64-7.24-1.36-10.88-1.93a6,6,0,0,0-2.19.56,13.66,13.66,0,0,0,2.14,1.45,17.67,17.67,0,0,0,2.8.82c4.52,1.24,9.05,2.44,13.55,3.74.59.17,1,.86,1.55,1.3a5,5,0,0,1-1.08.11c-4.37-.46-8.75-1-13.12-1.41a24.29,24.29,0,0,0-2.83,0c.64.61,1.24,1.27,1.92,1.82,1.44,1.16,2.93,2.26,4.4,3.38-1.85,0-3.7-.12-5.55,0a24.28,24.28,0,0,0-3.32.64c1.05.69,2,1.7,3.16,2,6.59,1.82,13.24,3.42,19.82,5.27,1.07.3,1.88,1.5,2.82,2.29a15.2,15.2,0,0,1-4,.06c-1.06-.25-1.88-1.39-2.93-1.82-1.59-.66-3.85-2-4.83-1.38-3.58,2.18-6.75.23-10.08-.15l-1.67-.19a11,11,0,0,0,1.36,1.44c.87.66,1.82,1.21,2.74,1.81a31.26,31.26,0,0,0-3.21,0,20.45,20.45,0,0,0-2.65.55c.69.82,1.22,2,2.1,2.4,2.63,1.09,5.4,1.86,8.12,2.75l.08-.1c-4.5-.18-9-.38-13.51-.5a9.54,9.54,0,0,0-2.18.46,14.2,14.2,0,0,0,2.13,1.47c.7.31,1.56.23,2.29.5,1.06.4,2.05,1,3.08,1.44-1.1.42-2.2.83-3.28,1.28-.61.25-1.19.56-1.78.84a12.46,12.46,0,0,0,1.64.52c2.7.46,5.44.75,8.11,1.38a28.74,28.74,0,0,1,4.47,1.86c-1.51.36-3,1.06-4.53,1-4.3-.14-8.59-.66-12.89-.87-1-.05-1.94.59-2.92.91l2.34,1.48c6.12,3.83,14.75,1.85,19.69,8.49a14.84,14.84,0,0,0,2.52,2.2c-1.09.6-2.22,1.77-3.27,1.71-4.86-.29-9.69-1-14.54-1.4a28.51,28.51,0,0,0-4.31.27c1,1.14,1.8,2.56,3,3.34,1.06.68,2.57.68,3.89.9,2.51.42,5,.75,7.54,1.21.37.07.64.65,1,1-.31.2-.62.58-.93.59-1.53,0-3.07,0-4.61,0-4.08-.24-8.15-.59-12.23-.77a7.41,7.41,0,0,0-2.42.83c.57.48,1.06,1.19,1.71,1.41,4.38,1.42,8.81,2.72,13.21,4.11a9.19,9.19,0,0,1,1.65,1,5.55,5.55,0,0,1-1.53.59c-4.83.24-9.67.35-14.5.69-1,.07-2,.91-3,1.4.86.65,1.64,1.64,2.61,1.89,2.64.69,5.55.64,8,1.71,1.73.76,2.88,2.85,4.29,4.35-1.45.09-2.9.29-4.35.24-3.24-.1-6.47-.39-9.7-.44a7.61,7.61,0,0,0-2.53.92,8.56,8.56,0,0,0,1.76,2.11c4.18,2.52,8.44,4.92,12.66,7.39a7.75,7.75,0,0,1,1.2,1.1c-.56,0-1.13,0-1.69-.14-3.47-.53-6.93-1.4-10.41-1.48-1.87,0-3.77,1.26-5.66,2a34.35,34.35,0,0,0,4,4.05c1,.76,2.61.76,3.84,1.33,1.75.81,1.75,1.61,1.31,3.85-.68,3.47-2.12,1.22-3,1.07-1.72-.27-3.37-1-5.08-1.43a5,5,0,0,0-1.66.15,6.76,6.76,0,0,0,1,1.76,17.87,17.87,0,0,0,2.32,1.58c-1.11-.2-2.25-.33-3.34-.62-4.63-1.23-4.7-1.23-3.65,3A3.59,3.59,0,0,0,375,196.3c3.94,1.59,1.29,3-.14,4.18a9.48,9.48,0,0,1-3.27,1.15c-2.38.71-1.74,1.77-.2,2.64,4.21,2.37,8.48,4.66,12.75,6.93,3.32,1.77,5.75,1.18,7.57-2.42,3.61-7.17,7.85-14,11.19-21.33,10.54-23,20.4-46.25,23.55-71.7.77-6.22,2.17-12.39,2.56-18.63.52-8.35.5-16.76.32-25.13a5.88,5.88,0,0,0-3.09-4.25c-5.6-2.29-11.39-4.13-17.17-6-.88-.28-2,.34-3.08.54l1.89,1.9L410,66.34a23,23,0,0,1-2.65.79,11,11,0,0,1-2.14,0,7.45,7.45,0,0,0,1.64,1.41c5.21,2.26,10.46,4.42,15.67,6.69.64.28,1.09,1,1.63,1.51a9.7,9.7,0,0,1-2.08.05c-5.11-1-10.2-2.07-15.3-3.07a15.64,15.64,0,0,0-3.47-.33,6.64,6.64,0,0,0-2,.75c.6.45,1.13,1.12,1.8,1.31,3.19.9,6.43,1.64,9.63,2.52a7.65,7.65,0,0,1,1.83,1.15,5.68,5.68,0,0,1-2,.34c-3.44-.75-6.83-1.72-10.28-2.39-.91-.18-2,.44-3,.69a26,26,0,0,0,1.71,2.21c1,1.09,5.93,1.57.5,3.6,0,0,.21,1.93.68,2.12,4.84,2,9.76,3.85,14.65,5.73ZM246.37,74.59l-4.49-1.5a28.25,28.25,0,0,1,4.32-1.88c2.83-.72,5.75-1.12,8.61-1.76a7.89,7.89,0,0,0,2-1.09,10.53,10.53,0,0,0-2.44-.7c-3.13-.12-6.27,0-9.4-.2-.61,0-1.19-.74-1.78-1.14.72-.33,1.44-.93,2.16-.93,3.71,0,7.43.24,11.14.13.78,0,1.52-1.19,2.28-1.82-.77-.7-1.49-1.9-2.33-2-1.5-.17-3.07.47-4.61.51a33.89,33.89,0,0,1-7.13-.22c-1.24-.23-2.27-1.59-3.39-2.44,1.08-1.16,1.94-2.84,3.27-3.38,2.7-1.08,5.66-1.49,8.48-2.3a10.27,10.27,0,0,0,2.3-1.4c-.91-.52-1.82-1.49-2.73-1.48-3.91,0-7.83.19-11.73.54-14.82,1.33-29.72,2.18-44.42,4.34-11.36,1.67-22.47,5-33.67,7.69-.65.15-1.17.81-1.76,1.24a13.64,13.64,0,0,0,2.14.6c1.22.14,2.45.14,3.68.2l-1.38,1.55a14.78,14.78,0,0,0,2.73.13c3.29-.45,6.56-1.07,9.86-1.46.56-.07,1.21.65,1.81,1-.52.47-1,1.21-1.58,1.35-1.32.31-2.79.08-4.07.49-3.45,1.1-6.87,2.33-10.22,3.72-.67.28-1,1.46-1.43,2.23,1,.24,2,.81,3,.66,3.66-.6,7.29-1.46,10.94-2.16a10.79,10.79,0,0,1,2.2,0,9.2,9.2,0,0,1-2.2,1.22c-4,1-8.06,1.66-12,2.86-1,.3-1.54,2.07-2.3,3.17,2.28,1.25,1.91,2-.38,2.7-.91.3-1.57,1.36-2.35,2.08a10.35,10.35,0,0,0,2.61,1.11,19.41,19.41,0,0,0,5.1.19c2.9-.38,5.76-1.15,8.65-1.61a26.37,26.37,0,0,1,4-.08,22.07,22.07,0,0,1-3.54,1.4c-4.78,1-9.63,1.78-14.37,2.94a48.7,48.7,0,0,0-6.8,2.72c2.06-.12,4.11-.27,6.17-.32a4.1,4.1,0,0,1,1.44.56,5.62,5.62,0,0,1-1.09,1.18c-1.64.95-3.32,1.82-5,2.72,1.92-.43,3.87-.79,5.77-1.32,2.07-.57,4.08-1.39,6.16-1.92A72.65,72.65,0,0,1,176,91.27c.49-.07,1.1.69,1.66,1.07-.39.38-.71.93-1.18,1.09-1.29.44-2.66.66-3.95,1.08-4.64,1.51-9.28,3-13.88,4.65-.72.26-1.19,1.23-1.77,1.87.73,0,1.46,0,2.18,0,5.94-.43,11.87-1,17.81-1.28,1.19-.06,2.43.67,3.65,1a19.46,19.46,0,0,1-3.61,1.89c-5.27,1.47-10.59,2.75-15.86,4.21-.49.14-.77,1-1.15,1.58a5.15,5.15,0,0,0,1.65.28c4.05-.66,8.08-1.42,12.12-2.07a9.11,9.11,0,0,1,2.25.18,11,11,0,0,1-1.89.8c-2.49.52-5,.83-7.47,1.52-.65.18-1,1.44-1.48,2.2.79.32,1.63,1,2.36.89,3.48-.5,6.93-1.28,10.41-1.78.76-.11,1.64.54,2.46.84-.72.44-1.44,1.27-2.17,1.27-7.43,0-14.16,1.87-19.63,7.21-.81.79-1.6,1.6-2.4,2.4,1.24-.11,2.75.21,3.67-.39,5-3.25,10.33-3,15.79-2.24a31,31,0,0,1,3.73,1c-1.33.35-2.65.77-4,1-5.34,1-10.74,1.87-16,3.2-1,.26-1.52,2.47-2.26,3.78a26.24,26.24,0,0,1,2.94-1.5,14.72,14.72,0,0,1,3.94-1.08c3.4-.22,6.82-.3,10.23-.23a10.26,10.26,0,0,1,3,1.07c-.75.66-1.4,1.62-2.28,1.92-1.65.56-3.46.65-5.15,1.13a8.32,8.32,0,0,0-2.11,1.38,15,15,0,0,0,2.18.36c2.61.08,5.21.1,7.82.14-2.49,1-5,1.89-7.45,3a21.35,21.35,0,0,0-3.25,2.27c1.35,1.18,1,4.34,4.5,3.06,3.07-1.12,6.51-1.27,9.82-1.64.72-.08,1.55.73,2.33,1.14a10,10,0,0,1-1.91,1.83,9.52,9.52,0,0,1-2.82.79c-4.05.7-10.05,3-12.72,5.18a16,16,0,0,0-2.27,3,15.43,15.43,0,0,0,3.85.33c5.21-.86,10.39-1.92,15.59-2.84a5.63,5.63,0,0,1,2,.38,13.28,13.28,0,0,1-1.61.55c-2.67.6-5.49.84-8,1.89-1.06.45-1.83,2.55-1.89,3.94,0,.6,2.1,1.78,3.27,1.81,1.91,0,3.83-.74,5.76-1,.59-.08,1.26.44,1.89.69-.48.52-.86,1.27-1.45,1.5a25.86,25.86,0,0,1-3.43.77c-5.32,1.28-10.67,2.49-15.95,3.93-.87.24-2.12,1.55-2,2.24a5,5,0,0,0,1.91,3.29c.57.37,2.17-.47,3.07-1.1s1.61-2.41,2.58-2.58c4.58-.78,9.22-1.22,13.85-1.69a5.54,5.54,0,0,1,2,.64c-.44.71-.73,1.82-1.35,2-2.74,1-5.59,1.73-8.35,2.67a7.34,7.34,0,0,0-1.83,1.38c.66.53,1.81,1,1.87,1.61.12,1.08,3-.69,1.53,2-2,3.55-.78,5,3.19,4.39a33.85,33.85,0,0,0,5.51-1.82h0c-.44.6-.84,1.23-1.33,1.79-.65.74-1.37,1.42-2.06,2.13a17,17,0,0,0,2.85.08c2.91-.36,5.8-.85,8.71-1.21a4.15,4.15,0,0,1,1.49.42,6.59,6.59,0,0,1-1.44.65c-3.27.57-6.58,1-9.83,1.65-2.54.51-2.91,2-1.88,4.37,1.92,4.37,4.47,1,6.78.71,1.66-.23,3.32-.51,5-.76-1.34.88-2.63,1.85-4,2.62-1,.56-2.36.62-3.23,1.32a3.49,3.49,0,0,0-1.34,2.69,3.38,3.38,0,0,0,2.27,2c1.07.27,2.31-.31,3.47-.27,2.49.09,5,.33,7.47.52-2.31.72-4.69,1.26-6.9,2.2a29.74,29.74,0,0,0-4.4,2.85c1.65,1,3.2,2.45,5,2.89s4-.06,5.95-.16l-5.63,2.42c-.18.08-.42.09-.54.22-.64.67-1.25,1.38-1.87,2.07.64.57,1.19,1.44,1.94,1.66,2.73.82,5.55,1.34,8.3,2.14a8.3,8.3,0,0,1,2.17,1.52,13.8,13.8,0,0,1-2.18,1.28c-.51.19-1.27-.19-1.72,0a11.11,11.11,0,0,0-1.91,1.67c.7.52,1.33,1.3,2.1,1.48s1.93-.19,2.91-.17a12.54,12.54,0,0,1,2.17.4c-.52.47-1,1.15-1.59,1.38-1.51.56-3.92.06-3.24,2.93.56,2.34,1.44,3.87,4.52,2.83.91-.31,2.59,1.66,3.91,2.59-.68.61-1.73,1.1-2,1.85-.39,1.22-.83,3.23-.21,3.82A79.7,79.7,0,0,0,213,237.8l-.05,0c-1,2.42-1.3,4.24,2.4,3.51.41-.08,1,.79,1.52,1.22-2.61,1.09-2.57,3-.71,4.39a10.08,10.08,0,0,0,5.43,1.76c1.85.06,3.74-.81,5.61-1.27h-.12c-1.7,1.22-3.47,2.35-5.05,3.7-.56.48-1.09,2-.87,2.22,3,2.61,6.12,5.1,9.28,7.52.27.2,1.06-.28,1.62-.45l-.14-.09c-.31,1.68-1.43,3.83-.79,5,3,5.23,5.91,10.71,10,15,2,2.09,6.51,2,9.94,2.35,1.21.12,2.48-1.83,3.9-2.23a15.36,15.36,0,0,1,4.89-.14c.33,0,.61.77.92,1.18-1.16.67-2.29,1.41-3.49,2-.87.43-1.89.58-2.74,1a9.61,9.61,0,0,0-1.66,1.42c.61.32,1.22.91,1.84.91q6.77,0,13.51-.18a5.07,5.07,0,0,0,.41-1.94c.07-.88,0-1.77,0-2.65s.48-1.85.13-2.28a13.07,13.07,0,0,0-2.81-2,27.83,27.83,0,0,0,4.09-.13,46.66,46.66,0,0,0,5.67-1.45c.17-.05.21-1.3.13-1.32-6.11-1.63-12.11-5-18.56-1-1.45.9-3.36,1.82-4.89,1.6s-2.77-1.88-4.14-2.91a16.86,16.86,0,0,1,3.45-1c6.6-.46,13.21-.71,19.8-1.24,1.39-.11,2.7-1.11,4.05-1.69-1.2-.46-2.41-.91-3.61-1.39a5.35,5.35,0,0,1-2.09-1c-1.46-1.71-2.69-3.9-4.44-.22a11.73,11.73,0,0,1-2.55-.63c.36-.69.54-1.71,1.1-2a56.91,56.91,0,0,1,5.53-2.29c.85-.33,2.48-.62,2.47-.87-.05-1.12-.25-2.62-1-3.21a6,6,0,0,0-3.79-1c-2.7.14-5.37.72-8.07.95-.51,0-1.09-.75-1.64-1.16a4.72,4.72,0,0,1,1.41-.59c3.12-.07,6.25.06,9.36-.16.83-.06,2.24-1.14,2.24-1.75,0-1.46-.82-4.23-1.06-4.2-3.71.41-7.82-2.28-11.21,1.34-.44.47-2-.06-3.06-.26-.25,0-.41-.58-.61-.89a7.69,7.69,0,0,1,2.43-1.06c3.33-.14,6.67,0,10-.14.92,0,2.5-.2,2.63-.65a35.12,35.12,0,0,0,1.59-8.14c0-.39-3-.86-4.64-1.44a2.77,2.77,0,0,1-1.41-1.33c-.16-.35.3-1,.49-1.47-5.45.48-10.91.92-16.36,1.48-.7.07-1.33.72-2,1.1a9.91,9.91,0,0,0,2,1.83c1.7.84,3.51,1.46,5.28,2.17l-6.32-1a2.93,2.93,0,0,1-1.14-.24c-1.37-.94-2.7-1.94-4-2.92,1.41-.79,2.76-2.08,4.24-2.27,5.82-.73,11.69-1.07,17.54-1.66.77-.08,1.94-.61,2.13-1.2.55-1.62.44-1.57,1.23-2,1.29-.68,2.5-1.52,3.75-2.29-1.35-1.74-2.49-4.74-4.08-5-5.17-.84-10.51-.76-15.78-.82-1.05,0-2.08,1.2-3.18,1.33-.68.08-1.47-.84-2.21-1.3,1.86-.4,3.72-.81,5.59-1.19a7.58,7.58,0,0,1,1.17-.06c5.34-.3,11.37,1.37,14.52-5.16.22-.46.89-.75,1.4-1,1.29-.69,2.6-1.32,3.91-2-1.68-.28-3.35-.58-5-.84-.38-.06-.79.1-1.17,0-2.43-.43-4.86-.89-7.29-1.34,2.46-.9,4.92-1.84,7.4-2.68.52-.18,1.2.12,1.75,0,2-.48,3.95-1,5.92-1.58-2-.38-3.95-.7-5.9-1.16s-4-1.08-6-1.63c1.83-.58,3.69-1.1,5.48-1.78a7.64,7.64,0,0,0,1.72-1.33c-.52-.47-1-1.3-1.56-1.34-2.5-.17-5-.06-7.51-.15-1.25,0-2.48-.32-3.73-.48a20.68,20.68,0,0,1,4-2.95c.93-.39,2.3.15,3.45.39,3.48.73,2.37-3.81,4.86-4.18a33.2,33.2,0,0,0-4-1.64,20.23,20.23,0,0,0-2.92,0c-2.15-.25-4.28-.61-6.42-.92l6.63-1.08,6.37-1.09c-2.17-.62-4.34-1.28-6.52-1.86s-4.54-1.14-6.81-1.7c2.22-.47,4.45-.87,6.65-1.42,1.33-.33,2.61-.88,3.92-1.34-1.27-.85-2.5-1.77-3.83-2.52-.45-.25-1.18,0-1.74-.09a25.92,25.92,0,0,1-2.53-.85,7.75,7.75,0,0,1,2.31-1c1.95-.15,3.92,0,5.88-.09a4.47,4.47,0,0,0,1.51-.67c-.56-.35-1.13-1-1.68-1-6.25.18-12.49.46-18.74.71-.69,0-1.38,0-2.07-.07.69-.44,1.35-1.15,2.09-1.25,1.54-.2,3.13,0,4.7-.09q8.81-.33,17.59-.74a5.08,5.08,0,0,0,1.58-.69,5.37,5.37,0,0,0-1.76-.69c-3.33,0-6.66.25-10,.19-1,0-2.07-.74-3.1-1.14.86-.51,1.69-1.09,2.59-1.53,1.25-.61,2.56-1.12,3.84-1.67-1.35-.45-2.71-.87-4.05-1.35a12,12,0,0,1-1.43-.73,5.2,5.2,0,0,1,1.16-1c1-.45,2.16-.77,3.24-1.14-1.15-.14-2.3-.36-3.45-.41-5.82-.25-5.65.32-10.85,1.94-3.36,1-7.33.17-11,.05-.34,0-.66-.8-1-1.23a4.66,4.66,0,0,1,1.5-.77c3.32-.28,6.64-.58,10-.65,4.92-.11,10.18.67,11.68-6.07.1-.44,1.3-.61,2-1s1.28-.7,1.91-1c-.67-.64-1.24-1.58-2-1.84-1.07-.35-2.33-.07-3.48-.26a36,36,0,0,1-3.62-1c1.26-.58,2.49-1.22,3.78-1.71.52-.2,1.18,0,1.75-.1,1.28-.23,2.55-.53,3.83-.79a34.33,34.33,0,0,0-3.31-2.85c-.59-.4-1.54-.22-2.28-.47a5.37,5.37,0,0,1-1.32-1,7.73,7.73,0,0,1,1-1.14c.78-.61,1.63-1.14,2.45-1.71a13.94,13.94,0,0,0-2.71-2,38,38,0,0,0-5-1.54,9.66,9.66,0,0,0-1.72-.15c.55,0,1.11.06,1.66,0a34.92,34.92,0,0,0,6.42-.57c.85-.22,1.64-1.71,1.92-2.76.17-.65-.57-2.17-1.09-2.26-2.14-.37-3.5-1.3-2.52-3.47.58-1.29,2-2.22,3.1-3.23a21.9,21.9,0,0,1,2.21-1.56,11.51,11.51,0,0,0-2.47-2c-.84-.37-1.94-.08-2.9-.25-1.29-.23-2.55-.61-3.82-.93l3.92-.91c.19,0,.41,0,.58,0,.8-.3,1.58-.62,2.37-.94a8.54,8.54,0,0,0-2.43-1.46,10.55,10.55,0,0,0-3.5,0c-4.26.54-8.51,1.18-12.77,1.72-.49.06-1-.34-1.57-.52.39-.33.73-.86,1.18-1,5.15-1.28,10.33-2.44,15.46-3.78a9.67,9.67,0,0,0,2.59-1.76c-.82-.63-1.6-1.71-2.47-1.8-3.7-.35-7.43-.4-11.15-.56-.56,0-1.12-.1-1.68-.16a4.85,4.85,0,0,1,1.44-.78c2.12-.32,4.29-.4,6.39-.82a52.19,52.19,0,0,0,5.26-1.61c-1.63-.33-3.26-.63-4.87-1a6.73,6.73,0,0,1-1.44-.73,7.9,7.9,0,0,1,1.64-1.11c.52-.19,1.2.07,1.74-.1a18.88,18.88,0,0,0,2.42-1.12,14.38,14.38,0,0,0-2.55-1.91c-.65-.3-1.56,0-2.32-.1-1.9-.32-3.78-.74-5.66-1.11,1.89-.52,3.78-1,5.68-1.54,2.1-.56,4.21-1.09,6.32-1.64l-6.32-1.41-3.25-.74c1.06-.52,2.1-1.1,3.2-1.52.52-.2,1.27.13,1.73-.12A37.72,37.72,0,0,0,256,89.89c-1.31-.72-2.83-2.27-3.88-2-3.37.88-5.76.86-6.57-3.23-.1-.49-1.21-.78-1.85-1.16a7.63,7.63,0,0,1,2.17-.33c2.69.38,5.36,1,8.06,1.31.63.08,1.34-.56,2-.87a6.35,6.35,0,0,0-1.84-.92c-2.52-.37-5.07-.52-7.57-1-.54-.09-1-1-1.43-1.47.47-.29.92-.77,1.43-.85,2.13-.31,4.29-.44,6.42-.76A9,9,0,0,0,255,77.8c-.69-.57-1.29-1.4-2.08-1.65-2.17-.68-4.41-1.11-6.63-1.64,3.28.06,6.57.18,9.85.1.43,0,.83-1.09,1.25-1.67-.51-.25-1.08-.81-1.51-.71C252.68,72.93,249.53,73.78,246.37,74.59ZM355.35,181l.12,0-1.72-1.57c.57-.26,1.17-.8,1.7-.73,2.88.36,5.75,1.19,8.62,1.19,1.31,0,2.62-1.54,3.93-2.38-1.08-.69-2.11-1.81-3.27-2-2.5-.34-5.07-.1-7.6-.26a13.76,13.76,0,0,1-3-.9,15.93,15.93,0,0,1,3.21-.71c2.93-.07,5.86.08,8.78.05a9.11,9.11,0,0,0,2.12-.56,6.08,6.08,0,0,0-1.77-1.18c-3.39-.82-6.85-1.39-10.21-2.32a28.6,28.6,0,0,1-4.69-2.22l-.1.09c5.07.46,10.13,1,15.21,1.3.92.06,1.89-.79,2.84-1.22-.75-.65-1.59-1.91-2.23-1.82-2.27.32-3.31-.13-3.34-2.65,0-.55-1.59-1.33-2.55-1.55-1.51-.36-3.11-.27-4.65-.52-.46-.07-.84-.65-1.25-1a4.23,4.23,0,0,1,1.49-.5c4.5.26,9,.73,13.48.8,1.68,0,4.8-.72,4.84-1.29.23-3.11-2.31-3.46-4.77-3.62-2.15-.14-4.3-.34-6.43-.62-.47-.06-.89-.59-1.33-.9a5,5,0,0,1,1.55-.58,32.77,32.77,0,0,1,5.87.26c3.64.67,6-.67,7.29-4-.49,1.75-.89,3.53,1.68,3.87a5.35,5.35,0,0,0,2-.58c-1-.78-2-1.55-3-2.35-.29-.24-.54-.53-.81-.8-3-3.38-6.52-1.23-9.88-1.07a25.54,25.54,0,0,1-4.15-.44,19.68,19.68,0,0,1,4-1.75c2.29-.46,4.67-.47,7-.81.58-.08,1.08-.7,1.61-1.07a7.8,7.8,0,0,0-1.54-.63,6.11,6.11,0,0,0-1.76,0c-2.54.29-4.73,0-5.63-2.91a55,55,0,0,1,5.55-1.64c2.2-.42,4.47-.52,6.71-.75-2.23-.63-4.45-1.29-6.69-1.9-2.87-.78-7.71,2.36-7.87-4,0-.21-1.39-.45-2.15-.57-2.31-.39-4.64-.72-6.95-1.08l-2.86-.47a19.38,19.38,0,0,1,3.21-.21c6.6.67,13.19,1.47,19.8,2.07,1.22.11,2.51-.48,3.77-.74-1.35-1.24-2.55-2.74-4.11-3.6-.83-.46-2.31,0-3.43.32-4.28,1.15-4.19-1.57-3.6-4.26a3.81,3.81,0,0,1,2.47-2.27c1.68-.39,3.52,0,5.26-.25.73-.1,1.36-.92,2-1.41-.66-.3-1.33-.87-2-.85-2.35.07-4.69.38-7,.49-.44,0-.9-.47-1.36-.73.41-.3.79-.8,1.22-.86,2.72-.36,5.45-.59,8.17-.94a11.57,11.57,0,0,0,2.16-.7c-.69-.52-1.34-1.39-2.09-1.51-5.22-.8-10.48-1.4-15.71-2.16-2.24-.33-4.44-.91-6.65-1.37,2.31.15,4.64.22,6.94.46,5.26.56,10.5,1.24,15.76,1.77.58.06,1.23-.58,1.85-.89a5.47,5.47,0,0,0-1.33-.92c-2.27-.71-4.58-1.34-6.87-2l7.47,0a1.89,1.89,0,0,0,.58,0c.79-.29,1.56-.61,2.34-.92-.58-.46-1.1-1.14-1.76-1.34-5.67-1.77-11.38-3.44-17.06-5.17a11.46,11.46,0,0,1-1.63-.76,9.15,9.15,0,0,1,1.72-.11c5,.69,10.07,1.49,15.13,2.07.88.1,1.86-.64,2.8-1a8.1,8.1,0,0,0-2.26-1.36c-3.07-.62-6.19-1-9.25-1.61-.77-.16-1.39-1.06-2.07-1.62.8-.31,1.65-1,2.41-.87,3.49.45,6.94,1.21,10.44,1.64,1.1.13,2.28-.43,3.43-.67a15.25,15.25,0,0,0-2.81-1.62c-4.25-1.37-10,.82-12.32-5.25-.19-.5-1.8-.48-2.76-.66-1.92-.35-3.86-.65-5.78-1a7.26,7.26,0,0,1-1.5-.7,7.14,7.14,0,0,1,1.67-.29c1.56.12,3.13.27,4.67.54,5.79,1,11.56,2,17.35,3a6.23,6.23,0,0,0,2.18-.52c-.61-.59-1.17-1.59-1.86-1.7-3.67-.57-7.39-.87-11.07-1.39a10.43,10.43,0,0,1-2.48-1c1-.34,2-1,2.9-1,3.12.19,6.22.77,9.35.93,1,0,2-.73,3-1.14a9.93,9.93,0,0,0-2.5-1.59c-5.2-1.36-10.43-2.57-15.64-3.88a5.76,5.76,0,0,1-1.45-.87,10.83,10.83,0,0,1,1.59-.21c2.69,0,7,1.17,7.76,0,2.27-3.53,4.84-2.22,7.62-2.1,1.07,0,2.17-.78,3.26-1.21-.87-1.12-1.53-2.88-2.64-3.22-2.49-.77-5.2-.83-7.82-1.18,2.7-.22,5.41-.37,8.09-.72.77-.1,1.46-.81,2.18-1.24-.45-.75-.94-2.18-1.34-2.15-6.29.39-9.85-6.86-16.34-5.78a4.43,4.43,0,0,1-1.51-.31,11.45,11.45,0,0,1,1.14-.22c4.63-.47,9.72,1.16,13.53-3.26.48-.55,2.59.46,3.94.46a32,32,0,0,0,4.33-.54c-1.19-.69-2.31-1.77-3.59-2-5.78-1.07-11.64-1.7-17.39-2.86-28.14-5.71-56.61-4-85-4a9.64,9.64,0,0,0-2.62.77,7.37,7.37,0,0,0,2.49,1.07c4.7.06,9.41-.07,14.11,0,.61,0,1.21.66,1.82,1a6,6,0,0,1-1.8.82c-8.57.75-17.15,1.42-25.72,2.16a30.64,30.64,0,0,0-3.38.68A22.76,22.76,0,0,0,270.49,58a9.33,9.33,0,0,0,2.91.26c9.74.13,19.48.23,29.22.35a19.1,19.1,0,0,1,2.12.24L303,59q-14.94,1.92-29.88,3.86a23.38,23.38,0,0,0-3,.84c1,.44,2.08,1.23,3.13,1.26,6.26.21,12.53.15,18.78.4,1.22,0,2.4,1,3.6,1.6-1.43,2.84,1.25,2.23,2.33,2.5,2.26.58,4.64.71,6.94,1.15a16.45,16.45,0,0,1,2.7,1,9.52,9.52,0,0,1-2.63.2c-4.71-1-9.22-1.56-12.82,2.83-.57.7-2.19.64-3.34.74-6.2.56-12.41,1-18.62,1.59a13.92,13.92,0,0,0-2.18.55,7.33,7.33,0,0,0,2,.68c3.92.19,7.95-.24,11.73.53,5.95,1.21,13.18-2.51,17.77,4.31.14.21.75.13,1.14.14,4.19.06-.19.72,0,1.31.73,2.71-1.58,2.47-3.21,2.57-9,.55-17.95,1-26.93,1.6a62.56,62.56,0,0,0-6.61,1.14c2.29.57,4.57,1.57,6.88,1.64,7.25.21,14.51,0,21.77.12.73,0,1.44.82,2.16,1.25a6.07,6.07,0,0,1-2.05.91c-6.66.22-13.32.28-20,.56a45.58,45.58,0,0,0-6.29,1.12,52,52,0,0,0,6.29.79c8.63.09,17.26,0,25.89.07a10.37,10.37,0,0,1,2.08.42c-.58.47-1.09,1.21-1.74,1.36a22.47,22.47,0,0,1-3.5.2c-9.19.6-18.38,1.18-27.56,1.85a30.65,30.65,0,0,0-4.46,1c1.54.61,3,1.34,4.63,1.79a10.92,10.92,0,0,0,2.92.07c8.4,0,16.8.06,25.2.13a9,9,0,0,1,2,.51c-.7.16-1.42.29-2.11.5s-1.24.49-1.86.74a14.1,14.1,0,0,0,2.11.43c2.93.14,5.86.19,8.8.32a13.79,13.79,0,0,1,1.9.35c-.58.06-1.16.16-1.74.17-4.7.14-9.41.25-14.11.42-2,.07-3.91.28-5.86.42,1.82.21,3.65.38,5.45.66a12.73,12.73,0,0,1,2.11.7,7.78,7.78,0,0,1-2.38,1.08c-2.14.18-4.31,0-6.46.17-1.79.1-4.47-.7-4.12,2.43.08.73,2.44,1.63,3.8,1.72,3.71.24,7.45,0,11.17.17.67,0,1.31,1,2,1.53-.69.46-1.38,1.32-2.07,1.32-3.92,0-7.84-.4-11.76-.44-5.09-.05-10.18.06-15.27.22-.57,0-1.12.79-1.68,1.21a6.32,6.32,0,0,0,1.58.66c3.89.5,7.79.87,11.66,1.43,1.07.16,2.68.54,3,1.28,1.65,3.77,1.54,3.72,5.49,3.85,3.32.11,6.62.51,9.94.72,1.56.1,3.13,0,4.7.06-1.42.14-2.95,0-4.22.5a28.23,28.23,0,0,0-6.55,3.56c-.37.28.59,2.72,1.34,3.91.33.53,1.66.44,2.54.63-1,0-1.94.11-2.91.11-6.85,0-13.7-.1-20.56-.07-.68,0-1.35.59-2,.9a7.31,7.31,0,0,0,2.08.8c6.45.36,12.9.62,19.35,1a16.76,16.76,0,0,1,3.12.78,9.51,9.51,0,0,1-2.9,1.11c-6.66.2-13.33.21-20,.39a24.18,24.18,0,0,0-4.15.82,21.3,21.3,0,0,0,4.29,1.51c4.84.62,9.72,1,14.57,1.54a8,8,0,0,1,2.31,1.1,7.71,7.71,0,0,1-2.38,1.13c-3.12.26-6.27.31-9.4.48-2,.11-4,.3-6,.46,2.2.61,4.39,1.67,6.6,1.74,6.25.2,12.51,0,18.77,0,2,0,3.93.15,5.89.24a60.46,60.46,0,0,1-6.86,1.3c-7.62.6-15.26,1-22.87,1.58-1.36.11-2.66,1-4,1.56a19.51,19.51,0,0,0,3.73,1c6.25.42,12.5.67,18.75,1.09a7.33,7.33,0,0,1,2.37,1.13c-.71.53-1.38,1.44-2.14,1.52-3.11.34-6.26.38-9.39.63a7.27,7.27,0,0,0-2,.76,12.43,12.43,0,0,0,2.14.76c4.72.79,9.45,1.52,14.17,2.29.54.09,1.07.29,1.6.43a16.37,16.37,0,0,1-1.7.19c-4.9.13-9.8.22-14.7.38a5.78,5.78,0,0,0-1.59.55,5,5,0,0,0,1.53.59c2.74.11,5.49.1,8.23.21a7.36,7.36,0,0,1,1.81.59,8.83,8.83,0,0,1-1.63.46c-3.51.34-7.05.49-10.54,1a72.55,72.55,0,0,0-7.16,1.76c2.38.27,4.79.37,7.13.84,6.87,1.37,14.81-3.54,20.72,3.55a8,8,0,0,0,2,1.26,11.86,11.86,0,0,1-2.69.61c-5.1,0-10.2-.23-15.29-.23a34.26,34.26,0,0,0-5,.71,28.16,28.16,0,0,0,5.16,1.27c3.72.22,7.45.05,11.17.21a15.48,15.48,0,0,1,3.53,1,29.42,29.42,0,0,1-3.78.76c-5.86.4-11.73.68-17.59,1.08a7.22,7.22,0,0,0-2,.82,6.44,6.44,0,0,0,1.78,1.24,20.47,20.47,0,0,0,4,.64c8.21.52,16.42,1,24.63,1.48.75,0,1.5.15,2.25.23-.77.08-1.54.14-2.3.23-6,.7-11.94,1.38-17.89,2.16-.58.08-1.07.83-1.6,1.27a5.5,5.5,0,0,0,1.55.7c2.91.35,5.84.58,8.76.93.45.06.85.55,1.27.84-.44.3-.87.87-1.3.86-2.35,0-4.83-.72-7-.15-1.49.39-2.54,2.44-3.79,3.76,1.14,1,2.11,2.47,3.45,3s3.1.16,4.66.3c.47,0,.89.51,1.33.79a5.16,5.16,0,0,1-1.3.78c-.55.14-1.2-.07-1.75.08-2.05.56-4.07,1.2-6.11,1.81l5.27,1.31c.4.1.81.18,1.21.27-.39,0-.79,0-1.17.05l-6.36.77c2.15.35,4.32.62,6.46,1.08a12.31,12.31,0,0,1,2.54,1.16,12.43,12.43,0,0,1-2.4.66c-1.36.1-2.75-.08-4.11,0a9,9,0,0,0-2.09.73c.72.51,1.4,1.38,2.16,1.47,3.11.36,6.25.47,9.38.68l1.74.15a14.81,14.81,0,0,1-1.46.36c-3.07.43-6.14.92-9.23,1.21-2.49.23-2.45.12-2.44,2.73,0,.37-.7.71-1,1.12a7.56,7.56,0,0,0-.57,1c.78.08,1.56.15,2.34.26,2.71.38,5.42.78,8.13,1.17-2.42.44-4.86.82-7.25,1.37-.64.15-1.16.83-1.74,1.27a7.71,7.71,0,0,0,2.07.6c5.49,0,11-.18,16.47-.22a7,7,0,0,1,2,.65,8.82,8.82,0,0,1-2.07.55c-5.49.11-11,.14-16.47.26-.49,0-1,.42-1.44.64a5.31,5.31,0,0,0,1.28.92c.54.2,1.18.09,1.73.27,1,.33,2,.76,3,1.15-1.16,0-2.33,0-3.49-.08-3.52-.14-7-.34-10.57-.38-.64,0-1.28.64-1.92,1,.66.5,1.25,1.25,2,1.45,3.47,1,7,1.74,10.48,2.64a5.15,5.15,0,0,1,1.32.88c-.4.31-.75.79-1.2.89-.75.17-1.58,0-2.34.15a9.78,9.78,0,0,0-1.92.83,10.86,10.86,0,0,0,2.21.56c2.74.12,5.49.17,8.23.18,4.12,0,8.24-.09,12.36,0a8,8,0,0,1,2.38.85,10.41,10.41,0,0,1-2.57.79c-2.35.11-4.71,0-7.06.05-4.51.05-9,.11-13.53.23a7.59,7.59,0,0,0-2,.65c.49.24,1,.52,1.46.72.85.34,1.73.64,2.59,1-1,.25-2,.54-3,.75-.76.16-1.69,0-2.28.36a17,17,0,0,0-2.43,2.3c.92.57,1.79,1.48,2.78,1.66,2.69.49,5.45.63,8.16,1a7.69,7.69,0,0,1,1.8.74,8.94,8.94,0,0,1-1.69.24c-3.72-.12-7.45-.33-11.17-.39a10.06,10.06,0,0,0-2.65.72c.74.38,1.48.74,2.2,1.14l6.81,3.83c-2.34.5-4.69,1-7,1.52a28.23,28.23,0,0,0-2.69.89c.9.6,1.74,1.6,2.7,1.73,4.81.63,9.64,1.1,14.47,1.49,2.72.22,5.45.19,8.18.28-2.63.14-5.26.32-7.9.41s-5.1,0-7.65.17a6.06,6.06,0,0,0-1.86.78c.48.24.95.51,1.44.72.67.29,1.36.55,2,.82a21,21,0,0,1-2.34,1c-1.11.35-2.32.43-3.38.87a8.83,8.83,0,0,0-2,1.58c.67.35,1.32,1,2,1,4.1.25,8.21.35,12.32.53a8.33,8.33,0,0,1,1.54.34,12.35,12.35,0,0,1-1.53.49c-3.58.69-7.22,1.19-10.73,2.15-.94.26-1.74,1.82-2.12,2.95-.21.61.59,2.26.94,2.26,3.09,0,5.16.15,1.26,3-.08.06.82,2.18,1.62,2.52,1.19.52,2.71.17,4,.46a9.08,9.08,0,0,1,2.32,1.26,7.37,7.37,0,0,1-1.93,1c-4.39.87-8.8,1.62-13.18,2.49a7.53,7.53,0,0,0-1.94,1.09c.56.34,1.08.91,1.67,1,6.57.83,13.15,1.76,19.75,2.32,6.39.54,12.82.69,19.23,1a4.24,4.24,0,0,0,1.41-.49c-.25-.26-.53-.5-.75-.78-.63-.79-1.25-1.6-1.87-2.4a29.56,29.56,0,0,1,3.27-.83c1.36-.17,2.78,0,4.09-.26.52-.12,1.32-1.57,1.17-1.75-2.93-3.59.61-2.48,2-2.73,3-.53,4-3.26,2-5.67-.48-.58-1.54-.76-1.83-1.36a2.41,2.41,0,0,1,.46-2c5.37-.49,6.81-5.61,10.07-8.54a2.34,2.34,0,0,0-.42-2.1,14.08,14.08,0,0,0-3.43-.65l-2.84-.5c1-.8,2-2,3.14-2.29,1-.27,2.34.86,3.34.6a26.19,26.19,0,0,0,4.77-2.25c-.91-1-1.65-2.28-2.76-2.84a55.64,55.64,0,0,0-6.51-2.41c2.42.18,4.84.47,7.25.48a17.74,17.74,0,0,0,3.73-.79c-.92-1-1.8-2-2.77-3a12.47,12.47,0,0,0-1.79-1.21c.68,0,1.54.36,2,.07a51.06,51.06,0,0,0,4.8-3.49c.12-.09-.13-1-.43-1.19a31.41,31.41,0,0,0-2.75-1.77,9.27,9.27,0,0,0,2.9-.12c1-.36,2.51-1.32,2.44-1.83a4.76,4.76,0,0,0-1.86-3.2,49.18,49.18,0,0,0-6.59-2.63c2.47.19,5.22,1.14,7.35.38,2.44-.87,4.33-3.27,6.46-5-1.57-.89-3.1-1.86-4.73-2.64a16.42,16.42,0,0,0-2.84-.73c-.55-.14-1.08-.34-1.62-.52a8.89,8.89,0,0,1,1.91-.43c3.34,0,6.75,1.82,9.36-2.56,2.53-4.23,2.34-6-2.43-7.1-1.84-.4-3.66-.93-5.49-1.39,1.86.16,3.71.29,5.57.47a14.49,14.49,0,0,0,3.49.34A3.68,3.68,0,0,0,358,209a3.27,3.27,0,0,0-.3-3,9.54,9.54,0,0,0-4.05-2c-4.37-1.08-8.79-1.92-13.18-2.91-1.13-.25-2.22-.69-3.33-1.05a18.39,18.39,0,0,1,3.85,0c4.8,1,9.56,2.09,14.36,3.06a5.79,5.79,0,0,0,2.17-.49c-.56-.5-1.05-1.24-1.7-1.44-1.86-.55-3.8-.85-5.7-1.32a7.29,7.29,0,0,1-1.54-.8,6.19,6.19,0,0,1,1.95-.31c3.66.61,7.29,1.39,11,1.94.75.11,1.61-.47,2.42-.73-.46-.57-.81-1.38-1.41-1.67-4.32-2.1-8.7-4.06-13-6.14a18.23,18.23,0,0,1-2.59-1.84c.95-.29,2-.94,2.84-.8,5.21.88,10.38,2,15.57,2.95a7.73,7.73,0,0,0,1.66,0A5.37,5.37,0,0,0,366,191c-1.68-1.19-3.27-2.66-5.15-3.35s-4.24-.66-6.36-1a16,16,0,0,1-2.19-.72,10.77,10.77,0,0,1,2.55-.34c2.53.27,5,.87,7.56,1,.92,0,1.88-1,2.83-1.53-.8-.68-1.5-1.66-2.43-2C360.45,182.27,357.88,181.67,355.35,181ZM89.85,54.26c-12.82.05-21,8.51-20.06,19.89.72,9.15,1.65,18.4,3.76,27.3,5.14,21.71,13.41,42.31,27.58,59.72,9.7,11.92,20.67,22.87,31.58,33.73a200,200,0,0,0,53.08,37.41c2.54,1.25,5.23,2.21,7.85,3.31-1.24-2.51-2.15-5.27-3.78-7.5-12.13-16.71-21.27-35-28.94-54.08a231.66,231.66,0,0,1-13.75-50c-1.55-9.74-5.13-16-14.67-19.51-11.87-4.38-18.69-13.68-21.53-26a54.65,54.65,0,0,0-3.34-10.6A23,23,0,0,0,89.85,54.26ZM506.94,76.45c-.73-5.21,1.4-10-3.51-12.83-3.64-2.09-6.95-5.3-10.85-6.28-11.71-3-22.38,3.49-26.72,15.57-1.38,3.85-2,8-3.1,11.92-4.22,14.49-14,23.73-28,28.48-3.05,1-4.43,2.18-4.82,5.46-2.83,23.76-10.78,46.07-20.25,67.84a260,260,0,0,1-26.76,47.54,15.78,15.78,0,0,0-1.4,3.51c1.24-.35,2.48-.69,3.7-1.07a6.46,6.46,0,0,0,1-.56c18.08-8.93,33.49-21.72,49-34.28,30.32-24.52,54.35-53.53,64.93-92C503.33,98.4,506.88,87.19,506.94,76.45ZM192,478c0,6.47,0,12.94.06,19.4,0,.76.86,1.5,1.32,2.25a7.87,7.87,0,0,0,1.48-2.06,12.28,12.28,0,0,0,.12-2.92q.62-15.24,1.26-30.48a12.46,12.46,0,0,1,.45-2.15,11.37,11.37,0,0,1,.5,2.25c.06,5.1.11,10.19,0,15.29-.08,6.27-.36,12.54-.39,18.82,0,3.22,4,6.34,7.82,5.95s2-3.64,2-5.52c-.18-9.4-.68-18.8-1-28.19A14.33,14.33,0,0,1,206,468a17.54,17.54,0,0,1,.58,2.81c.31,7.63.75,15.26.8,22.89.09,13.08,1.05,14.16,14.4,14.5.59,0,1.18,0,1.76.08,2.55.29,3.55-.88,3.49-3.38-.08-3.33,0-6.67,0-10,0-.78,0-1.56.07-2.35,0,.75.09,1.49.1,2.24,0,3.33.13,6.67,0,10-.1,2.95,1.19,4.18,4.09,4.48,10.71,1.12,21.4,3.37,32.1,3.43,25.27.15,50.54-.72,75.81-1.17a5.85,5.85,0,0,0,.59,0c6.07-.65,6.42-1.09,6.66-7.16.37-9,.82-18,1.29-27a9.44,9.44,0,0,1,.79-2.37,16.13,16.13,0,0,1,.22,2.29c-.42,9.59-.94,19.18-1.21,28.78,0,1.06,1.34,2.17,2.07,3.25a29.28,29.28,0,0,0,2-3c.25-.46,0-1.16.08-1.74.05-.88.12-1.76.18-2.64,0,.78.11,1.55.16,2.33a4.67,4.67,0,0,0,.14,1.74,13.77,13.77,0,0,0,1.61,2c.43-.75,1.15-1.46,1.22-2.24a26.33,26.33,0,0,0-.18-4.69c-.7-7.18-1.49-14.35-2.14-21.53a18.43,18.43,0,0,1,.47-3.87,20.84,20.84,0,0,1,2.48,3.73c.42,1,.15,2.32.21,3.49.36,7.24.66,14.48,1.18,21.71.07,1,1.22,2.8,1.86,2.8a4.5,4.5,0,0,0,3.2-1.86,8.13,8.13,0,0,0,.87-4c.53-12.13.9-24.27,1.52-36.4.2-3.81-1.42-4-4.53-3.44-10.21,1.78-20.43,3.64-30.71,4.87-32.77,3.91-65.41,1.2-97.79-3.68-13.21-2-26-7-38.83-11-3-.93-4.44-1.23-4.41,2.4a26.44,26.44,0,0,0-.17,2.93,20,20,0,0,0,.93,3.13l1.43-2.12c.51.54,1.46,1.08,1.47,1.63C192.05,465.84,192,471.92,192,478Zm109.92-36.48c0-.16.05-.31.07-.47,2,0,3.92,0,5.88,0a5.37,5.37,0,0,1,1.4.43,10.61,10.61,0,0,1-1,.44c-.71.21-1.43.38-2.15.57a10.3,10.3,0,0,0,2.21.44c10.31-.07,20.67.45,30.9-.51,6.48-.61,12.81-3.25,19.06-5.41,2.07-.72,3.77-2.68,5.44-4.28.55-.53.49-1.71.7-2.59-.76.31-1.55.57-2.28,1-4.64,2.43-9.22,5-13.94,7.27-1.48.71-3.35.64-5,.92,1.32-.89,2.6-1.84,4-2.64,1-.58,2.31-.75,3.17-1.47a9.15,9.15,0,0,0,1.57-2.68,7.7,7.7,0,0,0-2.64.09c-2.35.94-4.58,2.23-6.95,3.09-.95.35-2.17-.06-3.27-.12.7-.61,1.37-1.28,2.12-1.82,2.11-1.53,4.26-3,6.39-4.5l-8,.8-1.67.19c.4-.5.82-1,1.19-1.51.66-.93,1.29-1.87,1.93-2.81-1.09.06-2.18.18-3.27.16-.92,0-2.6-.09-2.64-.33-.45-3-2.18-2.73-4.27-1.93-.29.11-.72-.13-1.08-.21.3-.41.58-.84.91-1.23,1.31-1.5,2.63-3,3.95-4.46-1.9.19-3.81.33-5.7.58-1.16.16-2.29.55-3.45.7a5.12,5.12,0,0,1-1.62-.37c.38-.4.68-1,1.14-1.15,2.05-.64,4.15-1.12,6.21-1.73a6.82,6.82,0,0,0,1.41-.84,5,5,0,0,0-1.52-.42c-6.32.43-12.65.8-19,1.39-6.79.63-13.57,1.49-20.35,2.21-1,.1-2-.06-2.93,0a3.53,3.53,0,0,0-1.06.43c.4.35.75.89,1.21,1,.74.17,1.57-.05,2.33.07a18.29,18.29,0,0,1,2.47.72c-.65.65-1.18,1.61-2,1.9-2,.74-4.11,1.14-6.14,1.79-.43.14-.7.75-1,1.14.43.33.84.91,1.29.94,2.34.14,4.7.12,7.05.2.77,0,1.54.17,2.31.26a20.6,20.6,0,0,0-2.23.69c-.91.38-1.77.87-2.65,1.32.83.41,1.64.86,2.5,1.21A4.92,4.92,0,0,0,294,430c2.39.34,4.77.7,7.16,1.05-2.25.18-4.51.27-6.74.59a8.83,8.83,0,0,0-2.4,1.16,7,7,0,0,0,2.2,1.14c1.75.19,3.52.06,5.28.16.44,0,.86.42,1.29.65a4.64,4.64,0,0,1-1.45.71c-2.53.2-5.11,0-7.57.52-2,.4-3.93,1.54-5.89,2.35,1.91.51,3.79,1.13,5.72,1.5C295,440.47,298.47,441,301.93,441.51ZM276,368.6c2.29-.31,3.46-.44,4.61-.64a4.57,4.57,0,0,0,1-.47,7.66,7.66,0,0,0-1.11-.88c-3-1.65-3.14-4.18-.62-6.51a13.43,13.43,0,0,0,1.8-2.69c-.92-.24-1.84-.49-2.77-.7-.68-.15-1.37-.24-2.05-.36a11.42,11.42,0,0,0,1.68-.39c3.4-1.38,5-4.73,2.83-7.53s-1.5-3.68,1-5.47c3.3-2.35-.16-2.19-1.4-2.75l3.91-2.35a26.48,26.48,0,0,0-3.1-3.16c-.5-.38-1.54,0-2.3-.13a9.84,9.84,0,0,1-2-.77,13.17,13.17,0,0,0,1.74-1.05c.53-.43,1.45-1.15,1.34-1.48-.65-2.08-.7-2,1-2.83a10.76,10.76,0,0,0,2-1.65,15.66,15.66,0,0,0-2.35-1.4c-2.52-1-5.8-1.18-7.47-2.94-3.89-4.08-9.14-3.95-13.77-5.6s-1.84,5.13-5.31,5.15c.64.61,1.54,1.11,1.83,1.86a2.33,2.33,0,0,1-.52,2.15c-2.22,1.32-4.59,2.37-6.88,3.57a7.07,7.07,0,0,0-1.22,1.05,8.32,8.32,0,0,0,1.34.8c1.28.47,2.58.88,3.88,1.31l-4.39.81c-.38.07-.86-.08-1.16.1-.78.48-1.48,1.08-2.21,1.63a17.67,17.67,0,0,0,2.33,1.36c.51.2,1.19-.05,1.74.09a13.39,13.39,0,0,1,1.95.85c-.67.29-1.35.56-2,.89a16.09,16.09,0,0,0-2.51,1.39,10.07,10.07,0,0,0-1.45,1.71,18.41,18.41,0,0,0,2.44.91c.55.12,1.24-.28,1.73-.09a31.62,31.62,0,0,1,3.22,1.66,30.71,30.71,0,0,1-2.9,2.2,14.05,14.05,0,0,1-2.6.92c.84.26,1.71.47,2.52.79,1.34.54,2.65,1.16,4,1.75l-3.41,1.62-1.45.68a16.39,16.39,0,0,0,1.68.4c.58.09,1.18,0,1.76.12,1.11.13,2.22.31,3.34.46-1.13.15-2.27.24-3.39.48a14,14,0,0,0-2.09.79c.23.49.46,1.4.7,1.4,5.5.08,10.06,1.39,11,7.84,0,.12.31.22.5.29C267.4,365.5,272.17,367.22,276,368.6Zm-48.79,61.06-4.63.94c1.26.75,2.5,1.55,3.8,2.24.68.37,1.48.52,2.19.85a11.49,11.49,0,0,1,1.36.86c-.52.13-1,.29-1.56.39-1.07.21-2.14.39-3.21.59,1.08.67,2.14,1.38,3.25,2a12.56,12.56,0,0,0,1.67.55c.7.28,1.38.62,2.07.93a7,7,0,0,1-2.14.25c-2.87-.61-5.7-1.39-8.56-2-1.26-.27-2.58-.31-3.87-.46,1.22.77,2.34,2,3.66,2.25,8.78,1.92,17.66,3.41,26.39,5.52,6.27,1.51,12-.59,17.92-1.61,1.06-.18,1.9-1.59,2.85-2.43-.94-.34-1.9-.64-2.83-1s-1.7-.79-2.54-1.18a19.84,19.84,0,0,0,3,.1c3.09-.33,6.17-.73,9.25-1.18.47-.07.88-.57,1.32-.87-.37-.4-.68-1-1.14-1.16-1.12-.32-2.31-.33-3.45-.59-1.92-.43-3.82-1-5.73-1.45a40.73,40.73,0,0,0,5.73.17,21.35,21.35,0,0,0,4.34-1.36c-1.24-.46-2.48-.89-3.71-1.38-.52-.2-1-.5-1.51-.75a10.93,10.93,0,0,1,1.82-.64c.57-.1,1.18.1,1.75,0a8.41,8.41,0,0,0,1.56-.58,9.68,9.68,0,0,0-1.61-1.21,11.63,11.63,0,0,0-1.72-.33c-.74-.21-1.45-.5-2.18-.76.79-.15,1.56-.34,2.36-.43a12.09,12.09,0,0,0,2.86-.26,2.55,2.55,0,0,0,1.35-1.73c.06-.41-.79-1.14-1.38-1.41a24.69,24.69,0,0,0-3.3-1,23.44,23.44,0,0,0,3.67-.77,8.51,8.51,0,0,0,2-1.61,13.23,13.23,0,0,0-2.5-.92c-8.26-1.4-16.52-2.85-24.82-4-1.42-.2-3,.87-4.54,1.36.69,1.08,1.33,2.19,2.09,3.22a32.06,32.06,0,0,0,2.13,2.4c-1.22.53-2.49,1.57-3.66,1.47-1.89-.17-3.69-1.21-5.59-1.66a8.21,8.21,0,0,0-2.7.28,12.16,12.16,0,0,0,1.74,2,33.57,33.57,0,0,0,3.33,2c-1.3,0-2.61,0-3.9-.13-.77-.07-1.52-.44-2.28-.46a4.57,4.57,0,0,0-1.54.56A6.26,6.26,0,0,0,237,427a15.93,15.93,0,0,0,2.28,1.58,32,32,0,0,1-3.25-.16c-1-.13-1.88-.52-2.83-.7-.33-.06-.72.2-1.08.31.22.43.33,1,.68,1.24.63.44,1.43.63,2.1,1a17.44,17.44,0,0,1,1.69,1.28,9.57,9.57,0,0,1-2.14,0C232,430.92,229.55,430.26,227.21,429.66Zm61.4-111.35c9.67-1.46,18.77-2.51,27.7-4.39,2.27-.48,4-3.61,6-5.53-2.68-.48-5.7-2-8-1.28-17.52,5.78-34.88,6.06-52.28-.24-2.93-1.06-5.53-.59-7,2.12-.19.36,2.83,3.34,4.66,3.75C269.37,314.85,279.14,316.53,288.61,318.31Zm16.71,87c5.86-1.58,11.34-3,16.75-4.56a26.77,26.77,0,0,0,4.59-2.39l-4.64-.08c-.78,0-1.8.27-2.3-.11a18,18,0,0,1-3.29-3.46c-.1-.13,1.15-1.31,1.81-1.95a12.54,12.54,0,0,1,1.28-1c-.6-.38-1.17-1-1.81-1.11-8.17-1.08-16.35-1.36-24.47.37-1.05.22-1.88,1.52-2.81,2.32.8.65,1.59,1.33,2.41,2s1.73,1.24,2.6,1.85a11.16,11.16,0,0,1-2.69,1.75c-3.48,1.05-1.31,2,.1,2.51C297,402.82,301.16,404,305.32,405.3Zm-7.58-17.24c7.2-1.36,15.46-2.72,23.6-4.64,1.56-.37,2.61-2.92,3.9-4.46-1.91-.53-4.19-2-5.67-1.44-16.12,6.19-32.66,4.58-49.18,3-4.42-.43-8.7-2.06-13.09-2.92-1.09-.21-2.36.44-3.54.69.55.88.89,2.12,1.68,2.58,2.17,1.25,4.45,2.8,6.84,3.11C273.68,385.48,285.13,386.64,297.74,388.06Zm1.45,24.4c13.5-.67,23.41-2.79,31.71-7.7a18.45,18.45,0,0,0,3.8-2.71c.46-.47.2-1.65.27-2.51-.85.12-2.12-.08-2.48.4-4.08,5.46-10.54,6.53-16.23,7.05-19.07,1.74-38.25,4.1-57.36.36-5.19-1-11-1.28-14-7.12-.29-.57-2.21-.91-2.93-.52-1.07.57-2.42,1.92-2.38,2.87s1.46,2.25,2.56,2.79a70.26,70.26,0,0,0,28.27,7C280,412.73,289.61,412.46,299.19,412.46Zm-29.44-6.35c3.56-1.23,7.14-2.45,10.68-3.76.1,0,0-1.46-.34-1.67-1.26-.76-5.58.33-1.49-3.34.69-.62-1.12-5.63-3-6.95-1.58-1.13-5-3.39-7.49.51-1.22,1.9-3.68,3.19-5.83,4.28-2.91,1.48-2.95,1.3-3.89,4.57-.13.47-1.11.71-1.71,1s-1.28.59-1.93.88c.52.52,1,1.35,1.58,1.5C260.72,404.19,265.1,405.1,269.75,406.11ZM145,102.23c-1.56-2.5-2.34-5.26-3.71-5.6-2.69-.67-5.66-3.38-8.62-.39a7.07,7.07,0,0,1-1.45.9c0-.55-.16-1.25.1-1.64,2.65-3.88-1.79-4.79-3.05-7-.12-.21-2.13.66-3.27,1,3.94,3.77-.62,2.06-1.66,2.84-.41.31-.33,2,.11,2.62,4.33,6.34,11.23,7.94,18.12,9.37C142.42,104.54,143.55,103.19,145,102.23Zm37.46,374,.2,0c0,4.88-.18,9.76.1,14.62.1,1.73,1.17,3.46,2.05,5.05.28.5,1.37.56,2.09.81,0-.71.12-1.42.08-2.12-.44-6.76-1.27-13.52-1.28-20.27,0-7,.87-14,1.12-21,0-1.44-.93-2.93-1.43-4.39-.51,1.51-1.36,3-1.48,4.54C183.34,461,182.94,468.62,182.48,476.2ZM302.26,287.41v.06c-2.15,0-4.31-.08-6.46,0-1.73.09-3.45.41-5.18.62,1.63.28,3.27.5,4.88.86a18.43,18.43,0,0,1,2.53.95,9.14,9.14,0,0,1-2.31,1.09c-1.73.28-3.54.17-5.24.54-.68.15-1.18,1.14-1.76,1.75.66.27,1.34.81,2,.78,4.68-.25,9.39-2.2,14,.69.57.35,2.1-.68,3.11-1.23a41.71,41.71,0,0,0,4.43-2.72,10.56,10.56,0,0,0,1.67-2c-.75-.47-1.48-1.31-2.25-1.35C308.53,287.32,305.39,287.41,302.26,287.41Zm155.81-198c-1.68-.62-2.51-1.26-3-1.07-6.77,2.42-13.52,4.91-20.21,7.54-.61.24-.81,1.51-1.2,2.31,1,.17,2.05.67,2.94.47a140.45,140.45,0,0,0,15.22-4C453.91,94,455.5,91.66,458.07,89.42ZM344.33,260.64c-1.3,1.26-4,2.71-4.62,4.78-.75,2.37-.9,4.59-3,6.5-.74.68.28,3.26.49,5,.67-.1,1.63.05,2-.34,3.75-4.18,7.44-8.42,11-12.75.24-.3-.41-1.92-1-2.17C348,261.09,346.6,261.05,344.33,260.64Zm54.48,5.53c-3.84,0-9.08,5.32-8,7.6.9,2,3.88,3,5.93,4.44,1.79-2.55,4.12-4.92,5.09-7.75C402.18,269.34,399.56,267.18,398.81,266.17Zm16.84-34c-.46-.32-.89-.86-1.17-.79q-7.11,1.65-14.17,3.54c-.05,0,0,1.62.42,2a10.23,10.23,0,0,0,2.75,1.22,14.41,14.41,0,0,0-3.14,1.21c-2.21,1.51-4.33,3.17-6.39,4.88-.44.36-.48,1.21-.71,1.83a5.25,5.25,0,0,0,1.63-.36q9.72-6,19.39-12A12.11,12.11,0,0,0,415.65,232.14Zm-241.1,39.38c.7,7.05,1.88,8.49,7.76,8.7a16.28,16.28,0,0,0,2.66-.34c-.5-.95-1-1.89-1.48-2.86-.81-1.76-1.53-3.57-2.35-5.33-1.08-2.33-2.22-4.64-3.33-6.95C176.72,267,175.64,269.27,174.55,271.52ZM461.4,81.08c-2-.36-3.16-.92-4.07-.66a88.44,88.44,0,0,0-9.9,3.44,10.58,10.58,0,0,0-3.37,3c-.42.48-.33,1.41-.46,2.14a6.18,6.18,0,0,0,2.14.21C449.85,88,454,86.92,458,85.41,459.13,85,459.77,83.23,461.4,81.08ZM307,368.43c.06-.2.12-.4.17-.6a8.22,8.22,0,0,0,2.33,0,31,31,0,0,0,3.46-1.51c-1.17-.7-2.27-1.84-3.51-2-4.22-.61-8.49-.92-12.74-1.24a11.29,11.29,0,0,0-2.82.49c.68.58,1.27,1.44,2.06,1.69C299.6,366.37,303.31,367.37,307,368.43ZM447.13,99.08c-.4-.24-.87-.74-1.15-.65-4.23,1.35-8.45,2.72-12.62,4.24-.46.17-1,1.65-.8,1.85.56.57,1.68,1.3,2.21,1.07,3.9-1.64,7.71-3.48,11.53-5.31C446.59,100.15,446.73,99.68,447.13,99.08Zm-195-39.72.09.37,7.1-1.73c-.11-.33-.18-.93-.34-1-2.57-.36-5.15-.76-7.74-.88a5.87,5.87,0,0,0-2.64,1,5.44,5.44,0,0,0-1.15,1.19,6.71,6.71,0,0,0,1.78.92A17.54,17.54,0,0,0,252.14,59.36ZM370.66,278.62l-3-2.82c-1.47,2.13-3,4.2-4.31,6.44-.24.42.69,1.52,1.12,2.28,0,.08.43.09.52,0C366.81,282.67,368.59,280.79,370.66,278.62Zm-247-80.93c-2.82-2-4.57-3.46-6.51-4.58a14,14,0,0,0-3.68-1c0,.82-.27,2.09.14,2.37a49.2,49.2,0,0,0,6.45,3.81C120.68,198.62,121.67,198.09,123.7,197.69Zm270.2-57.53,2.89-1.1a21.45,21.45,0,0,0-3.38-1.31,11.38,11.38,0,0,0-3.4-.08c-.47,0-.89.56-1.34.85.37.33.69.83,1.12.94C390.9,139.76,392.05,139.87,393.9,140.16ZM285.05,298.35l3.9-1.23c-1.84-.13-3.67-.28-5.51-.38a4.88,4.88,0,0,0-1.71.16,13.38,13.38,0,0,0-1.88.88c.72.19,1.42.44,2.15.56C282.57,298.42,283.15,298.35,285.05,298.35ZM173.66,238.06l-1.49.75c.54.72.93,1.7,1.65,2.11a51.32,51.32,0,0,0,5,2.25c.06-.49.34-1.27.14-1.42C177.18,240.41,175.3,239.17,173.66,238.06ZM380.55,251.9c2.49-2.05,4.41-3.61,6.26-5.24.13-.12-.24-.82-.38-1.25-1.77,1-3.56,2-5.31,3.09a2.54,2.54,0,0,0-1.11,1.28C379.89,250.22,380.24,250.79,380.55,251.9ZM287,84.9l6.26-1.47a43.35,43.35,0,0,0-5.65-.69,40.06,40.06,0,0,0-5.5.73ZM110.91,184.67c-.33.09-.92.13-1,.3-.12.47-.21,1.29,0,1.46,1.73,1.16,3.54,2.21,5.36,3.24.09.05.47-.41.72-.63l-4.6-4.14A1.86,1.86,0,0,0,110.91,184.67ZM99.63,168.84a5.82,5.82,0,0,0-1-1.31c-1.66-1.18-3.37-2.28-5.1-3.36-.06,0-.46.45-.69.69,1.86,1.54,3.72,3.08,5.59,4.6.13.1.42.18.53.1A4,4,0,0,0,99.63,168.84ZM390.32,276.4l-1.44.6a21,21,0,0,0-1.22,3.25c-.07.35.73.88,1.13,1.33a12.4,12.4,0,0,0,2.68-2.74C391.72,278.36,390.74,277.23,390.32,276.4Zm16.82-44.74,4.08-2.64c-.8-.46-1.86-1.48-2.36-1.26a19,19,0,0,0-3.56,2.64Zm-129.25,143,2.13-.61a10.88,10.88,0,0,0-2.12-.84c-1.69-.3-3.4-.47-5.1-.64-.08,0-.21.5-.32.77ZM138.16,212.18c-1.92-1.33-3.92-2.75-6-4.1-.19-.12-.65.18-1,.28.41.74.64,1.77,1.27,2.18,1.7,1.11,3.58,2,5.38,2.9C137.94,213.13,138,212.82,138.16,212.18Zm198.32,136c-.92-.55-1.68-1.36-2.28-1.25s-1.45,1.28-1.33,1.78a10,10,0,0,0,1.63,2.74ZM119.1,186.11c-2.12-1.51-3.6-2.58-5.13-3.56a11.37,11.37,0,0,0-1,1.18c1.38,1.06,2.73,2.15,4.15,3.14C117.33,187,117.87,186.6,119.1,186.11ZM382.27,80.28l-3.72.63c1.53.48,3,1,4.6,1.38.53.11,1.2-.43,1.8-.67Zm-270,100c-2-1-3.43-1.79-5-2.44-.16-.07-.66.67-1,1,1.4.94,2.78,1.92,4.24,2.78C110.67,181.78,111.26,181.11,112.24,180.31Zm93.94,79.33c-1-1.24-1.69-2.12-2.46-2.89-.08-.08-.79.48-1.2.74.68.84,1.33,1.72,2.08,2.48C204.75,260.13,205.34,259.83,206.18,259.64ZM304.12,377.7l3.94-2c-.52-.29-1.14-.93-1.54-.81-1.56.46-3,1.17-4.56,1.78Zm100.44,92.49-2.45.64a6.59,6.59,0,0,0,2,.46,17.73,17.73,0,0,0,2.84-.67ZM120.48,191.47l-1.3.35c1.06,1,2.09,2,3.22,2.87.21.17.8-.14,1.21-.23Zm305.47,32-1.77-.57c-.76,1.33-1.53,2.66-2.25,4,0,0,.7.62.82.54a38.19,38.19,0,0,0,3.68-2.61C426.56,224.77,426.12,224,426,223.49ZM384,471.75c-.1-.8-.2-1.56-.3-2.32a18.44,18.44,0,0,0-.3,2.2,22.31,22.31,0,0,0,.2,2.3C383.75,473.2,383.88,472.47,384,471.75Zm35.2-244.3c-.75-.82-1.14-1.51-1.38-1.47-1.29.26-2.54.71-3.8,1.09.39.6.86,1.76,1.14,1.71A25.75,25.75,0,0,0,419.21,227.45ZM306.37,297.77c-.84-.37-1.37-.83-1.75-.73-1.59.44-3.14,1-4.71,1.59.39.19.82.61,1.15.54C302.71,298.81,304.33,298.32,306.37,297.77ZM406,141.34c-1.93-.56-3.16-1-4.42-1.23-.23,0-.61.72-.92,1.1,1.22.43,2.43.91,3.68,1.23C404.63,142.52,405.06,142,406,141.34ZM288.22,306c-1.55-.16-2.06-.26-2.57-.26s-1.1.08-1.65.13a10.22,10.22,0,0,0,1.54.3A26.38,26.38,0,0,0,288.22,306Zm-24.58-4.95,2.76-.92a18.3,18.3,0,0,0-3.13-.76,5.71,5.71,0,0,0-2,.62ZM92,162.25a20.53,20.53,0,0,0-2.81-2c-.17-.09-.86.83-1.31,1.28a25.24,25.24,0,0,0,2.64,1.87C90.73,163.46,91.32,162.81,92,162.25Zm275.11,108a13.72,13.72,0,0,0-.92,3.29c0,.35.94.69,1.45,1,.29-.62.81-1.25.8-1.87S367.88,271.54,367.15,270.24Zm-153.89,159L211.87,431a10.78,10.78,0,0,0,2.27,1.43c.29.1.88-.71,1.33-1.1C214.84,430.76,214.19,430.15,213.26,429.28Zm150.39-4.09a22.79,22.79,0,0,0-2.61-1.06c-.08,0-.71,1.24-.6,1.33a8.84,8.84,0,0,0,2.22,1.31S363.15,426,363.65,425.19Zm-127.23-7.82c.3-.77.71-1.51.61-1.59a5,5,0,0,0-1.94-1c-.34-.07-.81.48-1.22.75ZM97.76,161.5a9.6,9.6,0,0,0-1.19,1.34,15.89,15.89,0,0,0,2.2,2.43c.17.15.82-.23,1.25-.37Zm66.44-4.62a28.77,28.77,0,0,0,1.56-2.64c0-.05-1.09-.84-1.2-.74a7.29,7.29,0,0,0-1.61,2C162.87,155.61,163.58,156.2,164.2,156.88Zm89.52,238.64c.08-.24.16-.47.23-.71a7.26,7.26,0,0,0-1.72-1.1c-.45-.14-1,.14-1.57.24.37.45.66,1.07,1.13,1.31A6.67,6.67,0,0,0,253.72,395.52Zm150.35,77.34a8.22,8.22,0,0,0-1.61-.45c-.3,0-.63.27-.95.42a10.68,10.68,0,0,0,1.68.63C403.41,473.49,403.7,473.12,404.07,472.86ZM253,289.09a6.82,6.82,0,0,0-2-1.2c-.26,0-.68.86-1,1.34a7.9,7.9,0,0,0,1.78,1C252,290.29,252.44,289.65,253,289.09ZM150.13,93.41c-.66.86-1.24,1.29-1.18,1.62a6,6,0,0,0,.91,1.73c.41-.33,1.14-.67,1.15-1A8.6,8.6,0,0,0,150.13,93.41ZM88,151.62c-.09-.29-.1-.73-.28-.81s-.6.08-.91.14c.09.29.1.74.29.84S87.73,151.69,88,151.62ZM225.12,263.07l1.23.78c.07-.31.31-.75.18-.91a5.27,5.27,0,0,0-1.12-.9C225.32,262.33,225.24,262.63,225.12,263.07Zm169.42-25.54-1,1.28c.33.16.79.54,1,.44a5,5,0,0,0,1.05-1.09Zm-35.88,32.76-.79-1.39c-.25.46-.74,1-.7,1.38a4.72,4.72,0,0,0,.83,1.6C358.2,271.38,358.41,270.88,358.66,270.29Zm-35.4,22.65a9.5,9.5,0,0,0-2.51-.61c-.42,0-.78.6-1.17.93.46.46.95,1.32,1.37,1.28C321.55,294.49,322.1,293.8,323.26,292.94ZM385.91,64.7a7.16,7.16,0,0,0-2-.63,4.18,4.18,0,0,0-1.43.63,5,5,0,0,0,1.5.64A6.92,6.92,0,0,0,385.91,64.7ZM189.39,280.28,188,281.45a8.24,8.24,0,0,0,1.62,1.41c.19.1.77-.53,1.17-.83Zm-8-43.93-3-1.53c-.17.44-.58,1-.46,1.3a1.73,1.73,0,0,0,1.13,1C179.52,237.19,180.05,236.82,181.41,236.35Zm-74.23-63c-.59-.3-1.16-.62-1.77-.86a2.5,2.5,0,0,0-.45.75c.52.44,1.1.82,1.66,1.22ZM159,139.13l-1.41-.64c-.19.47-.58,1-.51,1.4s.68.56,1.06.83C158.35,140.27,158.6,139.81,159,139.13Zm280.43,69.74-.25-.42a8.83,8.83,0,0,0-.81.68,2,2,0,0,0,.25.39ZM150.51,120a9.19,9.19,0,0,0-.47,2c0,.3.39.59.6.88.28-.42.74-.82.77-1.25S151,120.75,150.51,120ZM279.63,72.8l-.41,0,.25.19Zm48.72,214.6c-.31-.47-.51-.76-.7-1.06a5.3,5.3,0,0,0-1.12.91c-.08.11.43.88.5.86A7.06,7.06,0,0,0,328.35,287.4Zm71.3-218.81c-.31-.44-.44-.81-.67-.88a1.85,1.85,0,0,0-1.06.08,1.67,1.67,0,0,0,0,.77C398.46,68.61,399,68.59,399.65,68.59Zm-81.23,300.3a10,10,0,0,0-.88,2.11c0,.26.44.82.67.82.43,0,1.13-.26,1.21-.55S319.1,370.41,318.42,368.89ZM144.07,217.34c-.13-.3-.18-.72-.41-.87s-.61,0-.92,0c.14.28.22.65.45.8S143.77,217.35,144.07,217.34Zm67.34,28.22c-.18.27-.54.55-.51.79s.39.58.61.86a4.66,4.66,0,0,0,.67-1.07C212.21,246,211.69,245.76,211.41,245.56Zm142.39-14a8.45,8.45,0,0,0,2.21.57c.39,0,1-.49,1-.81a1.31,1.31,0,0,0-.78-1C355.93,230.15,355.47,230.61,353.8,231.53ZM330,327a6.51,6.51,0,0,0-1.51-.64c-.15,0-.42.55-.63.85a8.46,8.46,0,0,0,1.43.81C329.41,328,329.73,327.42,330,327Zm5.84,16.6.45-.31a8.73,8.73,0,0,0-.59-.77,2.27,2.27,0,0,0-.4.29C335.51,343,335.7,343.3,335.88,343.56Zm-4,11.82a4.44,4.44,0,0,0-.36-.8c0-.06-.43,0-.46.08a4.26,4.26,0,0,0-.13.82Zm-6.62,6.35-.67-.58a3.15,3.15,0,0,0-.3.77c0,.09.29.35.33.32A4.34,4.34,0,0,0,325.28,361.73Z"/><path class="cls-2" d="M327.37,527.05c-23.1.55-46.22.75-69.3,1.74-20.14.87-40.24,2.63-60.35,4a20.68,20.68,0,0,1-2.33.24,22.57,22.57,0,0,1-2.79-.47,8.59,8.59,0,0,1,2.64-1.22c14.44-1.15,28.94-1.74,43.32-3.39,35.53-4.08,71.19-3.1,106.81-3.61,18.21-.26,36.43-.61,54.64-.74,2.6,0,5.21,1,7.81,1.52-2.52.47-5.05,1.33-7.57,1.34-24.29.1-48.58.06-72.87.06C327.37,526.7,327.37,526.88,327.37,527.05Z"/><path class="cls-2" d="M303,540.1q-34.68,0-69.35,0a14.77,14.77,0,0,1-2.75-.51,10.72,10.72,0,0,1,2.88-1c19.39-.46,38.78-.92,58.17-1.23,25.67-.41,51.33-.7,77-1,2.35,0,4.7,0,7.05.08a6.84,6.84,0,0,1,2,.76c-.72.41-1.42,1.17-2.15,1.19-13.51.36-27,.72-40.54.9-10.78.14-21.56,0-32.33,0Z"/><path class="cls-2" d="M307.65,521.51c-21.36.47-42.73.9-64.09,1.42-12.54.31-25.08.78-37.61,1.14-1.54,0-3.09-.14-4.64-.22a42.9,42.9,0,0,1,4.34-.55c44.48-1.28,89-2.64,133.43-3.71,14.1-.34,28.22.13,42.33.26a16.11,16.11,0,0,1,2.63.46,25.25,25.25,0,0,1-2.86.31q-36.75,0-73.51,0C307.65,520.92,307.65,521.21,307.65,521.51Z"/><path class="cls-2" d="M307.77,533.44H264.32c-.78,0-1.55-.11-2.33-.17a14.71,14.71,0,0,1,2-.29q41.1-.56,82.19-1c2.22,0,4.45.76,6.68,1.17-2.29.18-4.59.52-6.88.52-12.72.05-25.44,0-38.17,0Z"/><path class="cls-2" d="M256.73,546c1.46-.45,2.92-1.28,4.39-1.3q39.09-.7,78.18-1.19a12.1,12.1,0,0,1,3.13.83,14.88,14.88,0,0,1-3.54.91c-24.89,0-49.79,0-74.68.06-2.52,0-5,.46-7.56.71Z"/><path class="cls-2" d="M156.54,512.37l-3.23-.5c1.51-.08,3-.23,4.54-.23a24.84,24.84,0,0,1,3,.34Z"/><path class="cls-2" d="M250.67,534.14a5.68,5.68,0,0,1-.95.24c-.55,0-1.11,0-1.67,0a2.33,2.33,0,0,1,.75-.29C249.36,534,249.93,534.1,250.67,534.14Z"/><path class="cls-2" d="M193.29,525.13l-.69-.38a7.34,7.34,0,0,1,1-.11,6.76,6.76,0,0,1,1,.18C194.16,524.92,193.69,525,193.29,525.13Z"/><path class="cls-2" d="M185.81,526.08a2.83,2.83,0,0,1-.65.14c-.11,0-.22-.14-.32-.22Z"/><path class="cls-2" d="M256.66,546l-2.65-.13,2.73.12Z"/><path class="cls-2" d="M298.19,249.72l-3.28-.16c1-.11,1.93-.27,2.91-.33a17.66,17.66,0,0,1,2.3,0c.74,0,1.48.15,2.22.24-.75.07-1.5.18-2.25.21S298.56,249.72,298.19,249.72Z"/><path class="cls-2" d="M308,54.36l-1.53-.44c.75,0,1.5-.12,2.25-.08a12.74,12.74,0,0,1,1.8.36C309.78,54.26,309,54.3,308,54.36Z"/><path class="cls-2" d="M302.31,273.05c-.24,0-.81,0-1.38,0-.36,0-.71-.08-1.07-.12.57,0,1.14,0,1.71,0C301.93,273,302.28,273.05,302.31,273.05Z"/><path class="cls-2" d="M355.35,181l-6.8.34a1.5,1.5,0,0,1,0-.33c2.3,0,4.59,0,6.89,0Z"/><path class="cls-2" d="M312.63,84.52l.95.18c-.33.06-.66.13-1,.17a3,3,0,0,1-.52,0Z"/><path class="cls-2" d="M351.64,167.43a14.8,14.8,0,0,1-1.63.06c-.68-.05-1.35-.19-2-.29a11.49,11.49,0,0,1,2-.18,6.92,6.92,0,0,1,1.54.5Z"/><path class="cls-2" d="M321.47,55.42h-1a2,2,0,0,1,0-.3h1A1.6,1.6,0,0,0,321.47,55.42Z"/><path class="cls-2" d="M320.18,272.89c0,.14-.09.36-.12.36-.31,0-.61-.09-.92-.15,0-.12.09-.33.12-.33C319.57,272.8,319.87,272.85,320.18,272.89Z"/><path class="cls-2" d="M218.9,237.55c2.66-.86,5.31-1.73,8-2.57.05,0,.22.37.33.57l-7.33,1.57c-.37.08-.74.23-1.1.34Z"/><path class="cls-2" d="M232,260.35l8.14-2.46-.11,0-8.16,2.41Z"/><path class="cls-2" d="M183.63,77.9l-1.33-.14a10.64,10.64,0,0,1,1.31-.36,5.44,5.44,0,0,1,1.13.09Z"/><path class="cls-2" d="M205.56,173.28l-1.08-.44a10.93,10.93,0,0,1,1.71-.12,4.53,4.53,0,0,1,1.16.39Z"/><path class="cls-2" d="M196,173.85l1.06.12a5.23,5.23,0,0,1-1.17.4,2.59,2.59,0,0,1-.9-.25C195.33,174,195.66,173.94,196,173.85Z"/><path class="cls-2" d="M262.07,273.77l1.21.25a6,6,0,0,1-1.22.39,4.08,4.08,0,0,1-1.07-.16Z"/><path class="cls-2" d="M185.74,101.37l-.49-.06a2.64,2.64,0,0,1,.55-.34c.14,0,.32,0,.48,0Z"/><path class="cls-2" d="M263.57,245l-1-.2c.22-.11.44-.31.67-.32a4.32,4.32,0,0,1,1,.18Z"/><path class="cls-2" d="M193.85,100.19l-.5-.22a8,8,0,0,1,1.08-.15c.16,0,.33.13.5.2Z"/><path class="cls-2" d="M236,246.21l-.4-.47a1.29,1.29,0,0,1,.5-.07,9.18,9.18,0,0,1,.88.31Z"/><path class="cls-2" d="M186.23,65.64l.5,0a2.54,2.54,0,0,1-.51.37c-.14.06-.33,0-.5,0C185.89,65.89,186.06,65.77,186.23,65.64Z"/><path class="cls-2" d="M185.43,114l.28.21a1.65,1.65,0,0,1-.47.1c-.1,0-.19-.13-.29-.2Z"/><polygon class="cls-2" points="234.35 84.64 234.85 84.57 234.77 84.82 234.35 84.64"/><path class="cls-2" d="M169.51,80c-.17.06-.36.22-.49.17s-.32-.27-.47-.41a2,2,0,0,1,.54,0A1.2,1.2,0,0,1,169.51,80Z"/><path class="cls-2" d="M260.09,225.77h1c0,.1-.05.21-.07.31Z"/><path class="cls-2" d="M240.16,257.89l2.8-.35a3.39,3.39,0,0,1-.08.43c-.95,0-1.89-.07-2.84-.12Z"/><path class="cls-2" d="M243.33,276.3l.48.2-1,.24Z"/><path class="cls-2" d="M252.57,224.48l.61.39c-.16,0-.34.16-.46.12a3.08,3.08,0,0,1-.62-.37Z"/><polygon class="cls-2" points="218.37 224.78 217.98 224.83 218.05 224.63 218.37 224.78"/><path class="cls-2" d="M218.78,237.47l-5.88.28,0,0,6-.23Z"/><path class="cls-2" d="M227.16,247.36l2.72-.45a3.15,3.15,0,0,1,0,.41c-.93,0-1.85,0-2.78,0Z"/><path class="cls-2" d="M185.79,175.32h1.08l1.93.09c-.66.05-1.32.14-2,.14a5,5,0,0,1-1.06-.23Z"/><path class="cls-2" d="M293.37,508.59c-12.81-.6-29.21-1.35-45.62-2.19a58.35,58.35,0,0,1-6.37-1.06c-5.59-.93-7.41-2.8-7.55-8.42-.15-6.07-.21-12.16,0-18.23.27-6.53,2.1-7.79,8.56-7.41,22.87,1.35,45.74,3.14,68.67,1.55,8.19-.57,16.38-1.51,24.51-2.65,4.3-.6,5.52,1,5.5,5,0,8.22.39,16.44.31,24.66-.06,5.82-.55,6.36-6.25,6.71C322.47,507.33,309.75,507.81,293.37,508.59Zm-53.86-31.37c-.53,7.59-1.1,15.18-1.52,22.78,0,.69.93,1.43,1.43,2.15.51-.67,1-1.37,1.55-2,1.17-1.3,2.38-2.56,3.58-3.84,1,1.26,2.93,2.62,2.8,3.75-.47,4,2,4.1,4.65,4.34,2.93.27,5.86.62,8.79.69,8,.21,16.08.45,24.11.3,1.56,0,3.09-1.77,4.63-2.73L287,499.8l.13,0c1.69-5.18-2.71-3.86-5-4.7-1-.37-2.12-.58-3.18-.86a23.82,23.82,0,0,1,2.91-.19q12.84.72,25.66,1.54a7.47,7.47,0,0,1,2.09.83c-.7.22-1.63.25-2,.72a9.46,9.46,0,0,0-1.13,2.61l5,1.35-1.73,3.33c1.19.39,2.4,1.16,3.58,1.11,4.3-.18,8.58-.78,12.88-.92,3.57-.11,6.16-.59,5.53-5.23-.29-2.12.78-4,3.54-3.16s3-.69,3-2.74c0-5.29,0-10.58.22-15.86.11-2.64-.83-3.4-3.4-3.25-14.85.88-29.72,1.61-44.57,2.48a10,10,0,0,0-3,1.23c.63.86,1.24,1.73,1.89,2.58.1.13.36.13.54.21,3.36,1.5.36,7.89,6,7.91.3,0,.3,1.51.93,1.65,1.52.34,3.05.67,4.56,1A14,14,0,0,1,303,492c-.47.2-.94.6-1.4.57-7.4-.44-14.8-.93-22.2-1.42a5.23,5.23,0,0,1-1.08-.29c.41-.25.84-.47,1.24-.74s1-.73,1.49-1.1c-3.13-1.39-2.15-7.88-7.75-6.24a2.38,2.38,0,0,1-1.73-.07,32.12,32.12,0,0,1-3-2.41,14.31,14.31,0,0,0,2.14-1.19,19,19,0,0,0,1.87-1.93,7.53,7.53,0,0,0-2.43-1.17c-6.64-.44-13.28-.74-19.92-1.13-2.41-.14-5.48-1.38-3,3.34.64,1.23-1.07,3.66-1.7,5.54a34.5,34.5,0,0,1-5.54-3.24c-.64-.54-.34-2.21-.47-3.37l2.8-2.13L240.52,474C240.2,475.06,239.86,476.14,239.51,477.22Zm3.07,2.47a8.65,8.65,0,0,0,2.19,1.08c.27,0,.66-.74,1-1.14a6.36,6.36,0,0,0-1.66-1.15C243.84,478.39,243.34,479.06,242.58,479.69Z"/><path class="cls-2" d="M202.38,479.38c0,5.27.15,10.55-.11,15.81-.06,1.16-1.55,2.25-2.38,3.37-.45-1.16-1.27-2.31-1.3-3.48q-.39-13.77-.45-27.55c0-1.15.91-2.3,1.41-3.45.43,1,.85,2,1.29,3,.18.41.39.82.59,1.23a10.62,10.62,0,0,0,.24-1.12,14.41,14.41,0,0,1,.13-1.75,19.58,19.58,0,0,1,.73-2.07,7.78,7.78,0,0,1,.57,2c.05,4.69,0,9.38,0,14.07Z"/><path class="cls-2" d="M212.66,486.62c0-4.89,0-9.77,0-14.66a14.56,14.56,0,0,1,.32-2.14,22.39,22.39,0,0,1,.23,2.3q0,14.08,0,28.16a22.17,22.17,0,0,1-.22,2.29,12,12,0,0,1-.53-2.46c0-4.5,0-9,0-13.49Z"/><path class="cls-2" d="M220.35,484.8c0,4.08,0,8.16,0,12.25a10.24,10.24,0,0,1-.38,1.86,14.15,14.15,0,0,1-.2-1.72q0-13.12,0-26.24a9,9,0,0,1,.3-1.68,12.22,12.22,0,0,1,.38,2.13c0,4.47,0,8.94,0,13.41Z"/><path class="cls-2" d="M405.32,120.67a12.32,12.32,0,0,1,2.28.2,21.55,21.55,0,0,1,2.61,1,21.85,21.85,0,0,1-2.81-.4,11.75,11.75,0,0,1-2-1Z"/><path class="cls-2" d="M416.87,91.41a3.69,3.69,0,0,1,.56-.11l3.9-.1,0,.91L417,91.3Z"/><path class="cls-2" d="M345.84,459.37c-.59,0-1.17,0-1.76,0s-1.13-.15-1.7-.23a8.94,8.94,0,0,1,1.9-.56c9.21-.6,17.53-3.95,25.25-8.68,4.47-2.73,8.4-6.32,12.66-9.41.72-.52,1.85-.47,2.79-.69-.84,1.73,3.4,2.27,1,4.48-3,2.7-5.22,6-10.09,6.08-2.71,0-5.32,2.27-8.09,3.19-7.17,2.37-14.4,4.55-21.61,6.81C346.06,460,346,459.69,345.84,459.37Z"/><path class="cls-2" d="M332.1,460.5l-2.49-.23a20.35,20.35,0,0,1,2.28-.44,16.17,16.17,0,0,1,2.19.12Z"/><path class="cls-2" d="M316.44,461.69l-1.58-.44c.74-.05,1.48-.14,2.22-.15.55,0,1.1.07,1.65.11Z"/><path class="cls-2" d="M198.16,431.1a5.41,5.41,0,0,1,.05,1.13c-.12.69-.33,1.36-.51,2a16.08,16.08,0,0,1-.07-2.19c0-.32.41-.6.63-.9Z"/><path class="cls-2" d="M391.4,441.45l-2.51,4.09Z"/><path class="cls-2" d="M507.51,62.66a17.35,17.35,0,0,1,2.23-.47,15.52,15.52,0,0,1,2.25.13,14,14,0,0,1-2.33.53,11.81,11.81,0,0,1-2.27-.27Z"/><path class="cls-2" d="M515.63,83.48c-.38,0-.76.06-1.13,0-.66,0-1.33-.11-2-.16.7,0,1.41-.15,2.11-.14a4.48,4.48,0,0,1,1.1.29Z"/><path class="cls-2" d="M65.13,120.77c1.77-1.77,3.52-3.56,5.33-5.29a4.46,4.46,0,0,1,1.39-.57,5.15,5.15,0,0,1-.87,1.31c-2,1.51-4,2.94-6,4.41Z"/><path class="cls-2" d="M65.22,96.61l1.26-.94c.1.27.36.61.28.8a1.71,1.71,0,0,1-.76.77C65.9,97.29,65.57,96.91,65.22,96.61Z"/><path class="cls-2" d="M87.36,43.56a5.75,5.75,0,0,1-.62,0s-.09-.11-.14-.16C86.8,43.45,87,43.49,87.36,43.56Z"/><path class="cls-2" d="M121.74,78l-1.41,2.33-.59-.63,2.13-1.56Z"/><path class="cls-2" d="M299.2,439.4l-1.87-.46c.74-.1,1.47-.26,2.21-.29a7.81,7.81,0,0,1,1.5.24Z"/><path class="cls-2" d="M301.06,351.9c-.15.07-.29.2-.41.19a8.14,8.14,0,0,1-1-.19,1.42,1.42,0,0,1,.41-.14C300.41,351.79,300.72,351.85,301.06,351.9Z"/><path class="cls-2" d="M186,437.87a5.42,5.42,0,0,1-.08-2.35c.05.38.13.76.15,1.14A9.2,9.2,0,0,1,186,437.87Z"/><path class="cls-2" d="M258.89,290.48c1.28,0,2.57,0,3.85,0a3.61,3.61,0,0,1,0,.4l-3.77-.42Z"/><path class="cls-2" d="M98.16,174.65l3.75,2.51Z"/><path class="cls-2" d="M98.34,172.3v2.52l-3.69-2.73Z"/><path class="cls-2" d="M337.65,480.4a48.13,48.13,0,0,1-4.84,3c-.41.19-1.27-.58-1.92-.91.56-.48,1.06-1.27,1.69-1.4,1.86-.38,3.26-.72,1.11-2.66-.53-.48-1.15-.87-1.72-1.31.89-.14,2.06-.7,2.6-.33C335.6,477.45,336.27,478.68,337.65,480.4Z"/><path class="cls-2" d="M272.18,486c-.4.08-.72.16-1.05.2a2.28,2.28,0,0,1-.52,0c.17-.1.34-.28.52-.29A7.49,7.49,0,0,1,272.18,486Z"/><path class="cls-2" d="M287,499.79l-2.08.27,2.21-.3Z"/><path class="cls-1" d="M135.4,52.29a280.73,280.73,0,0,1,305.24-.36,43.83,43.83,0,0,1,5.64-4.88,288.77,288.77,0,0,0-314.51-.95A50.59,50.59,0,0,1,135.4,52.29Z"/><path class="cls-1" d="M54.23,447.39c0-1.07,0-2.15,0-3.24A280.71,280.71,0,0,1,58,127a64.51,64.51,0,0,1-6-3.9,288.61,288.61,0,0,0,3.64,335.45A71.59,71.59,0,0,1,54.23,447.39Z"/><path class="cls-1" d="M531.45,429.62a52.43,52.43,0,0,1,3.93,7.45,288.87,288.87,0,0,0-7.61-309.45,43.22,43.22,0,0,1-4.8,5.74,280.72,280.72,0,0,1,8.48,296.26Z"/><path class="cls-1" d="M460.05,510.93a280.69,280.69,0,0,1-352.69-7.42,53.78,53.78,0,0,1-13.81-2.63A288.33,288.33,0,0,0,467.68,514,58,58,0,0,1,460.05,510.93Z"/></g></g></svg>