<svg xmlns="http://www.w3.org/2000/svg" viewBox="0 0 710.41 581.98"><defs><style>.cls-1{fill:#f8b133;}.cls-2{fill:#662482;}</style></defs><g id="Layer_2" data-name="Layer 2"><g id="Layer_1-2" data-name="Layer 1"><path class="cls-1" d="M80.62,89.94A288.23,288.23,0,0,1,188.41,18.75C338.52-37.81,506.66,38.3,563.22,188.42a291.4,291.4,0,0,1,16.15,141.31l-4.85-.66a286.45,286.45,0,0,0-15.88-138.93C503,42.56,337.72-32.27,190.13,23.33a283.46,283.46,0,0,0-106,70Z"/><path class="cls-1" d="M520.14,462.22a285.08,285.08,0,0,1-128.31,96.43c-97.75,36.83-203.25,16.42-279.53-44.43q-1.93,1.6-4,3c77.66,62.5,185.45,83.6,285.29,46a289.9,289.9,0,0,0,130.51-98.09Z"/><path class="cls-1" d="M30.81,421.2c.75-.17,1.51-.33,2.27-.47.77-.45,1.55-.89,2.35-1.31a285.95,285.95,0,0,1-26.36-177l-4.83-.84a290.63,290.63,0,0,0,14.5,152A296.37,296.37,0,0,0,30.81,421.2Z"/><circle class="cls-1" cx="290.97" cy="290.99" r="219.84" transform="translate(-120.54 290.98) rotate(-45)"/><path class="cls-2" d="M58.78,461.12c1.19.68,2.65,1.12,3.53,2.09,11.89,13.11,27.19,20.22,43.81,24.94,9,2.55,17.95,5.38,27.1,7.07,13.93,2.56,28,5,42.06,6.09,15.3,1.15,30.73.59,46.1.86,18.82.33,37.25-3.06,55.78-5.64a312.37,312.37,0,0,0,72.65-19c14.67-5.84,28.66-12.93,40.54-23.74,11.22-10.21,16.17-23,12.89-37.32-2.91-12.75-10.6-23.21-23.29-28.88a8.78,8.78,0,0,1-3.87-3.32A18.94,18.94,0,0,1,389.79,389,62.28,62.28,0,0,1,400,400.42c2.9,4.14,5,8.86,7.52,13.52l5-2.45,1,1c-.92,1.08-1.65,2.5-2.81,3.17-3.83,2.19-4.11,5.09-2.14,9l9-5.31.88.91a14.8,14.8,0,0,1-2.08,3,31.4,31.4,0,0,1-3.88,2.45c-4.47,2.83-4.46,2.84-2.1,8.78l15.82-8.7.91,1a12.66,12.66,0,0,1-2.27,2.63c-3.32,2.18-6.57,4.59-10.18,6.15-4.3,1.85-5.69,5-5.67,9.6L425,437l1,1.41a20.64,20.64,0,0,1-3,2.65,64.7,64.7,0,0,1-6.8,3.57c-7.21,3.25-12.83,8-16.49,15.25-1.56,3.09-4.64,5.4-7,8.07l.58.91L448.53,433l1.32,1.5a20.2,20.2,0,0,1-3.21,3.37q-18.94,12.43-38,24.68c-8.4,5.38-16.91,10.61-25.39,15.87a10.6,10.6,0,0,1-2.09.64c-1.51.52-4,.73-4.34,1.69-1.63,4.61-5.67,6.55-9.21,8.86-12.12,7.9-24.41,15.54-36.64,23.26a3.17,3.17,0,0,1-1.1.2l-.84-.81c1.52-1.51,2.85-3.33,4.61-4.48,7.08-4.62,14.3-9,21.46-13.54a29,29,0,0,0,6.44-5.08c-3.24,1.43-6.49,2.83-9.72,4.28s-6.52,3-9.78,4.46c-3,1.36-6,2.22-8.09,5.38-1.22,1.85-4.39,2.37-6.59,3.64-5.83,3.38-11.61,6.85-17.64,10.41-1.67-2.18.07-3.23,1.66-4.23,4.2-2.65,8.43-5.25,13.32-8.28-14.05.43-23.44,10.13-35.12,14.65-.06-3.25,0-3.16,5.9-5.91a34.9,34.9,0,0,0,7.8-5.08c-12.52.69-22.64,8.6-34.32,11.91.23-2.9.53-3.2,5.37-5.26,2.42-1,4.86-2,7.29-3l-.24-1c-4,.76-8.25,1.06-12.09,2.41-5,1.78-9.79,4.44-14.72,6.6-.72.32-1.76-.07-2.65-.14.5-.74.83-1.75,1.53-2.16a40.26,40.26,0,0,0,5.78-3.5c-8.6-.3-15.78,4.44-23.66,6.59l-.73-1.19,6.3-4.46c-.07-.31-.14-.62-.22-.93l-18.81,4.57-.47-.73c.64-.71,1.29-1.41,2.48-2.73-6.28.87-12.39-1.6-17.38,3.39-4.41-7.71-7.5-.28-11.79.65.24-1.5.41-2.56.57-3.6-5.11-2.73-9.06,2.38-14.18,2.56.35-1.56.59-2.57.82-3.59-4-.93-8.06-2.25-11.56,2.39-.49-1.84-.77-2.85-1-3.78-4.54-2.2-8.76-1.11-13.16,2.39v-4.58H145.53c-3.82-4.48-8.55-2.08-14,.57.83-2.05,1.26-3.12,2.1-5.18l-11.18.8c-1.16-3.68-1.16-3.68-11.26-.38l2-4.57c-3.11-2.69-6.38-1.51-10.26,1,.32-2,.48-3,.78-4.93-3.06-.43-6.17-.9-9.3-1.25-.37,0-.77.77-1.22.85-1.25.22-2.53.26-3.8.37l1.15-3.27c-3-2-3-2-11.72-.81l2.6-3.69c-2.31-3.64-5.28-2.47-8.38.08l-.69-1,1.87-3.79c-2.24-4-5.67-3-9.33-.9-.13-.37-.26-.74-.4-1.11L67,479.88l-7.59-4.24c-.14.29-.27.59-.41.88-.5-1.77-.54-3.93-1.63-5.18s-3.18-1.46-5-2.19c.17-5.11-.13-5.43-5.58-5.38.18-4.19.18-4.19-6.76-5.95l4-3.32a23.89,23.89,0,0,0-3-2.31A22.11,22.11,0,0,0,37.56,451L41,448.27c-.14-.69-.34-1.75-.58-2.93H35.75l-.5-1L40.41,441l-5.33-1.39c.08-.43.06-1.23.28-1.31,4.5-1.59,3.69-5.43,3.78-8.85a41.56,41.56,0,0,1,0-4.6,10.5,10.5,0,0,1,1.39-2.89l1,.22a24.45,24.45,0,0,1,.6,2.77,55.44,55.44,0,0,0,16.18,34.35c.42.42.37,1.31.55,2-3.79,1.65-5.7-1-7.47-3.48-2.28-3.16-4.27-6.53-6.39-9.81l-.9.51c1.06,2.1,1.81,4.42,3.22,6.26A140,140,0,0,0,74.22,482c10.65,8,23,12,35.57,15.75a353.34,353.34,0,0,0,105,14.61c3.11,0,6.34-2.91,7.6-6.64-6,0-12,0-18,0-19,.11-38-.15-56.64-3.73-15-2.9-29.81-7.32-44.67-11.18A98.76,98.76,0,0,1,67.65,473C63.74,470,59.39,466.82,58.78,461.12Zm275.69,25.4c-3.31,1-7.08,1-8.61,2.8-3.06,3.69-4.9,8.41-7.69,13.53,3.44-1.07,7.19-1.1,8.73-3C330,496.17,331.79,491.46,334.47,486.52Zm-3.71,12.23c4.59-1.1,7.61-1.78,9.32-5.88,1.59-3.83,4.66-7.05,7.08-10.54-2.93.42-6.3.78-7.84,2.64C336.14,488.84,333.92,493.52,330.76,498.75Zm26.69-20.31-1-1.14c-2,1.32-4.43,2.32-6,4s-2.43,4.26-3.72,6.36c-1.18,1.94-2.53,3.77-4.24,6.29C352.75,492.56,353.26,483.91,357.45,478.44Zm-45.77,15.08c-8.38-.39-11.67,5-14.27,12.17,2.68-.58,5.75-.33,7.08-1.74C307.36,500.93,309.34,497.05,311.68,493.52Zm-35.85,14.89c6.67-.06,10.52-3.16,13-10.25C281.4,498.62,277.31,501.78,275.83,508.41ZM355.49,488c3.6-1,6.79-1.83,7.88-6.18.78-3.11,3.21-5.82,5.27-9.34C359,474.18,359.22,482.67,355.49,488Zm-92.67,21.38c9.34,3.11,10.21-5.05,14.36-9.12C269.12,498.78,266.85,505.13,262.82,509.42Zm52.36-17.28-6.78,12.74c2.51-.71,4.73-.64,5.49-1.67,3-4,5.46-8.37,8.44-13.11Zm-92.79,19.7c7.06,1.35,9.45.14,12.55-6.27C229,504.18,225,506.59,222.39,511.84ZM392.29,456c-3.39,2.25-6.9,9-7.25,14C391.22,467.34,393.51,462.47,392.29,456Zm-93.42,40.45c-5.14.17-8.91,3.75-11.21,11.21,2.27-.79,4.74-.89,5.77-2.15C295.63,502.76,297.09,499.46,298.87,496.41ZM376.06,468c-7.28,2.94-5.78,10.51-9.73,14.72,2.32-.73,4.85-1.5,5.72-3.15C373.77,476.28,374.57,472.5,376.06,468Zm7.13-4.51c-3.26,1.23-5.73,5.73-7.46,14.49,2.46-1.94,5.43-3.16,6.37-5.29C383.32,470,382.91,466.51,383.19,463.5Zm-118.1,38.33c-6.12.76-9.93,3.74-11.08,8.67C258.06,510.73,261.24,508.25,265.09,501.83Zm-31.08,10c5.57.46,9.28-2.06,11.27-7C239.19,502.93,237.69,508.32,234,511.79Zm11.47-.8c5.27.33,6-4.77,9.8-7.26C248.56,502.71,248.22,508.29,245.48,511Zm149.84-51.6,1.1.46q2.06-5.5,4.12-11C396.75,450.94,396.75,450.94,395.32,459.39Zm11.22-22.86-.87-.23c-1.31,2.72-2.67,5.41-3.89,8.17-.24.54.07,1.32.12,2,.71-.26,1.91-.36,2.06-.8C405,442.66,405.71,439.59,406.54,436.53Z"/><path class="cls-2" d="M248.8,417c-7.48,8.8-16.64,15.78-26,22.69,4.58,1.91,7.84,1.18,11-1.77,4.95-4.65,10.18-9,15.12-13.66,2.59-2.45,4.8-5.3,7.23-7.92a3.51,3.51,0,0,1,2.66-1.2c-5,10.44-15.17,16.16-22.34,24.52,4.13,1.46,7.07.44,10.13-2.63,3.88-3.89,8.27-7.28,12.17-11.15,2.68-2.66,4.9-5.78,8.23-8.82-.22,1.35,0,3.07-.75,4-2.91,3.56-6.11,6.89-9.24,10.27-2.4,2.6-4.84,5.16-7.53,8,4.69.45,8.65.89,12.15-3.44,5.45-6.76,11.63-12.92,17.53-19.31.29-.31.86-.36,1.3-.53l.95.74a50.5,50.5,0,0,1-3.76,5.33c-3.78,4.17-7.79,8.15-11.59,12.31a32.74,32.74,0,0,0-2.91,4.63c5,0,8.92.83,11.67-4.33,2-3.69,6-6.21,8.79-9.56,2.26-2.75,4-6,5.94-8.95A4.89,4.89,0,0,1,292,414c-1.78,9.75-9.62,15.62-16,23.69,4.92-.31,8.67.2,11.37-3.79,4.8-7.1,9.89-14,14.87-21,.56-.79,1.21-1.52,1.82-2.28l1.26.52a24.79,24.79,0,0,1-1.89,4.89c-3.63,5.58-7.44,11-11.18,16.56-.48.72-.89,1.49-1.61,2.71,4.52-.33,8.06-.45,11-4.47,4.77-6.63,9.12-13.29,10.86-21.39.09-.41.59-.73,2-1.08.06,1.54.63,3.31.08,4.57-2.16,4.89-4.64,9.63-7.09,14.39-.8,1.55-1.83,3-3,4.87,3.79.27,6.2-.53,8.54-3.12a60,60,0,0,0,12.32-21.9,8.94,8.94,0,0,1,3-4.06c.3,5-1.66,9.33-3.79,13.52s-4.67,8.36-7.44,13.26c3.59-1,6.63-.59,8.3-4.15,3.85-8.18,8-16.2,12.13-24.27a4.13,4.13,0,0,1,2-2.09c.16,10.05-6.18,17.65-10.17,26.47,4.29-.77,7.59-2.1,10.08-5.79,4.37-6.48,7.79-13.2,8.74-21.07a7.09,7.09,0,0,1,2.31-4c.78,9.21-2.55,17.14-7,24.9,3.47-1,6.86-1.62,8-6.13,1.89-7.68,4.29-15.24,6.54-22.83a3.32,3.32,0,0,1,1.86-1.88c1.59,8.82-3.46,16.37-5,25,3.43-1.42,5.61-2.64,6.12-6.65.68-5.38,2.78-10.58,4.05-15.9a39.86,39.86,0,0,0,.51-6.3l1.29-.33c.44,1.19,1.37,2.44,1.23,3.55-.57,4.55-1.41,9.06-2.26,13.57a48.54,48.54,0,0,1-1.57,5C375,397.09,375,375.45,363,371.1c-.06.11-.2.24-.18.33.6,2.55,2.5,5.81,1.56,7.48a21,21,0,0,1-8,8c-16.46,8.66-33.59,15.7-52.08,18.79-1.92.32-3.89.29-5.84.42-.12-.41-.24-.81-.35-1.22a28.19,28.19,0,0,1,3.38-1.38c10.56-3,21.26-5.54,31.67-9,6.53-2.15,12.64-5.58,18.94-8.44.58-.26,1.16-.54,1.73-.84,8.79-4.72,9.89-12.25,1.53-17.68a156.53,156.53,0,0,0-27.91-14.34c-8.74-3.43-18.23-5-27.38-7.34a10.24,10.24,0,0,1-1.69-.77c-.05-.39-.11-.78-.16-1.17,1.19-.21,2.43-.75,3.56-.58a161.77,161.77,0,0,1,37.13,10.92c4.35,1.81,8.33,4.52,12.69,6.3a59.5,59.5,0,0,1,14.42,8c10.17,7.93,13,23.19,5.59,33.8-2.53,3.64-5.85,6.73-8.71,10.15a4.71,4.71,0,0,0-1.26,2.87c1.31,21.34-4.22,40.76-16.22,58.38-.37.55-1.13.84-2.62,1.91.24-1.93.11-3,.54-3.86,1.06-2,2.35-4,3.61-5.89,9.88-15.09,12.37-31.95,12.2-49.74-3.73.61-5.53,2.32-5.84,6-1.34,15.86-5.18,31.08-13,45-2.74,4.9-6.5,9.22-9.8,13.81l-1.72-.87c.57-1.56.72-3.53,1.78-4.63,11.7-12.14,15.69-27.6,18.91-43.38.71-3.47.87-7.05,1.3-10.69-6.53,1-8.86,3.14-9.82,8.88a123.91,123.91,0,0,1-16.11,44.51c-2.24,3.68-5.32,6.85-8.13,10.16-.45.53-1.49.57-2.25.84a7.66,7.66,0,0,1,0-2.71,8.39,8.39,0,0,1,1.86-2.42c11.86-12.46,17.18-27.92,20.45-44.33.55-2.76,1-5.53,1.45-8.31a3.43,3.43,0,0,0-.29-1.21c-3.38.49-5.5,1.55-6.37,5.57-4.31,19.83-12.56,37.81-26.36,53a11,11,0,0,1-1.85,1.94,5.76,5.76,0,0,1-2.05.42,6.34,6.34,0,0,1,0-2.34,7.39,7.39,0,0,1,1.66-2.07c13.6-14.19,21.52-31.3,25.81-50.27a18.2,18.2,0,0,0,.2-3c-4.89.51-7.36,2.61-8.58,7.59-4.41,18-12.78,33.94-26.18,47-2.29,2.23-4.31,4.74-6.46,7.12l-1.36-.87c.59-1.33.91-2.91,1.83-4,3.46-3.94,7.26-7.59,10.67-11.57,10.41-12.14,16.49-26.38,20.06-41.83-3.95-.74-5.87.78-7.41,4.06-4.38,9.38-8.93,18.7-13.78,27.85-5.36,10.11-13.2,18.2-22,25.35A15.91,15.91,0,0,1,273,493a12.31,12.31,0,0,1-3,.65c.41-1,.53-2.42,1.28-3.1a95.46,95.46,0,0,1,7.72-6.33c8.15-6,13.63-14.23,18.51-22.81,4-7,7.26-14.4,10.77-21.66a26.21,26.21,0,0,0,1.17-4.41c-6.69,1.28-12.66,2.47-18.65,3.56-4.79.87-10.41.37-14.17,2.78-3.52,2.27-4.75,7.84-7.59,11.49-6.58,8.47-12.89,17.31-20.51,24.78-7.17,7-15.85,12.53-23.9,18.65a12,12,0,0,1-2.72,1.16l-.94-.84a12.78,12.78,0,0,1,2.21-3c3.29-2.45,6.68-4.76,10.1-7,15.05-10,26.06-23.73,36.06-38.43a12,12,0,0,0,1.06-2c.58-1.36,1.11-2.74,1.67-4.12l-1-.92a34.69,34.69,0,0,0-3.48,3.37c-3.25,4.15-6.37,8.4-9.55,12.62l-1.6-1.08c1.05-5.41,6.55-8.26,8.84-13-4.85-2-7-1.24-9.84,2.77a19.82,19.82,0,0,1-9.94,7.74c.5-5.18,6.35-6,8.29-10.48-3.25-.39-5.68-.9-8.15,2.28-2.09,2.69-5.78,4.15-9.18,5.61.21-4.44,4.41-4.87,7.66-8.17-3.44.53-6.1.41-8.23,1.41-2.84,1.33-5.22,3.61-7.89,5.33a7.63,7.63,0,0,1-2.73.54c.26-1,.23-2.24.85-2.86,1.22-1.22,2.81-2.08,3.83-3.89l-12.65,6-1-1.26,4-4.18c-4.9-2.13-9,.39-13.88,3.84.53-2.44.77-3.55,1.25-5.78L198,445.11v-4.05l-7.7,3.41v-3.75c-7.32-1.37-14.76-2.66-22.14-4.18a205.77,205.77,0,0,1-49.71-16.79A215.89,215.89,0,0,1,97.9,408.48c-4.16-2.65-7.62-6.41-11.25-9.82-.64-.6-.59-1.94-.86-2.94,1.12.16,2.52-.05,3.3.55,4.86,3.74,9.22,8.23,14.4,11.41A201.19,201.19,0,0,0,166,432.74c15.95,3.51,32.34,5.05,48.56,7.2,1.8.24,4.17-.84,5.71-2,7.61-5.86,15.06-11.94,22.51-18,1.65-1.34,3.13-2.9,4.69-4.35C247.92,416,248.36,416.49,248.8,417Z"/><path class="cls-2" d="M345.57,267.49c.18,3.37.32,6,.46,8.71l-1,.37a31.6,31.6,0,0,1-1.82-2.78c-1.47-2.82-3.48-3.58-6.63-2.62-2.73.83-5.71.78-8.52,1.37-1.25.26-2.86.81-3.48,1.77-2.14,3.33-3.71,7-5.91,10.32-1.36,2-3.48,3.57-5.26,5.33L312,288.74l5.87-8.47L299.45,285l11.77,4-2.3,2.14c1.72,3.61,3.75,7,5,10.73,2.55,7.28-2.59,13.63-10.38,13.05a31.44,31.44,0,0,1-7.93-1.36c-3.69-1.29-5.71.07-6.8,3.37-.82,2.5-1.34,5.11-2,7.67-3.13-1.46-3.13-1.46-1.66-8.19l-3.34,2.71c-1.35-4.42,2.81-6,3.67-9.23l-3.21-1.52-7.27,9.26-1.34-.87c-.16-4.13,4.74-5.71,5.77-9.72l-3.94-2-8.07,11.59c-2.12-3.6.68-5,1.73-6.78a65,65,0,0,1,4.28-5.83c-10.34-4.44-20.36-9-30.6-13-2.1-.82-4.2-1.07-6-2.74-1-.89-3.08-.54-5.18-.81-.65-3.81-3.09-4.64-7.62-.92.7-2.4,1-3.35,1.47-5l-7.35-1.33c-.46-.71-1.22-3.13-2.38-3.33s-2.93,1.56-4.42,2.47l-.8-.6,1.6-4c-2.06-2.4-4.39-2.74-7.43.1.09-1.25.19-2.51.31-4.08l-5.23-2.58c-1.23,4-1.21,8.55-6.86,10.42a22.47,22.47,0,0,1,1.27-3.77c2.7-4.56,2.21-8.57-1.25-12.57a22.77,22.77,0,0,1-3.83-6.14c-2.07-5.09-.26-9.49,4.74-11.76,3.36-1.52,6.88-2.7,10.09-3.94-.49-1.51-1-3.07-1.5-4.62,1.55.78,3.16,1.47,4.65,2.36,6.57,3.92,12.9,8.29,19.7,11.76,12.77,6.51,25.78,12.56,38.77,18.64,1.31.61,3.14.14,4.73.09,1.39,0,2.79-.31,4.18-.3,13.77.18,27.43-.52,40.53-5.37,3.36-1.24,6.66-2.65,10-3.84a5.73,5.73,0,0,1,3.8.11c-17,9.9-35.61,13-55.17,12.69,2.92,1.9,5.12,4.81,9.31,4.14,4.93-.78,10-.74,14.87-1.74,6.47-1.33,12.85-3.21,19.2-5.08,3.45-1,6.7-3.7,9.5-.65l7.71-18.17c-6.44,2.17-12.67,4.35-19,6.37-11.6,3.71-23.67,4-35.69,4.67-1.92.1-3.82.45-5.74.47a6.73,6.73,0,0,1-2.25-.86c.55-.72,1-1.88,1.67-2.07a22.27,22.27,0,0,1,5.29-.65c14-.35,27.91-1.33,41.28-6.05,3.74-1.32,7.46-2.73,11.24-3.93a35.19,35.19,0,0,1,5.28-.77l3.25-6.48-.64-1.25c-20.55,7.49-41.45,12.79-63.69,11.42.34-3.08,2.59-2.78,4.52-2.93,8.93-.7,18-.55,26.76-2.29,11.74-2.34,23.28-5.87,34.7-9.53,2-.65,3-4.43,4.12-7.19-20.63,7.63-41.8,11.31-63.29,13.51-.49,0-1.05-.57-2.59-1.47a36.31,36.31,0,0,1,4.67-1.51c16.64-2.69,33.51-4.19,49.52-10,3.13-1.14,6.18-2.54,9.39-3.38,3.78-1,5.08-3.44,5.36-7.76-5.25,1.65-10.1,3.42-15.08,4.69-9.9,2.52-19.84,4.93-29.82,7.07a149.07,149.07,0,0,1-15.23,2.09c-1,.11-2.08-.68-3.13-1,.94-.62,1.81-1.6,2.83-1.79,14-2.6,28-4.84,41.89-7.74,6.09-1.27,12-3.69,17.84-5.81,4.31-1.55,6.92-6.88,6.18-11.54a10.37,10.37,0,0,1,.55-3.22c.61,1.08,1.85,2.24,1.72,3.21-.66,4.93-.51,10.09-4.46,14.15-.84.87-.47,3.48.08,5a48.7,48.7,0,0,0,4.2,8.88c.86,1.4,2.61,2.29,4,3.29a34.79,34.79,0,0,0,3.21,1.81l-.57,1.52-7.73-.8-6.06,16.15,3.7,2.4-7.07,2.54,5.07,3.23-7.49,1.69c.05.39.09.78.14,1.17C344.28,266.48,345.26,267.24,345.57,267.49Zm-69.07,32.8c-.86-1.67-.86-1.67,3.07-3.68-4.33-3.14-5.32-3-11,1.72l7.89,2c4,4.57,6.73,4.11,12.88.72-2.76-1.78-5.16-3.84-8.61-1.27C279.76,300.49,277.94,300.14,276.5,300.29Zm-31.83-20.6c.87,3.91-3.81,3-4.89,5.86,4.15.59,7.75-.66,11.68-1.84-.58-.62-.78-1-1.09-1.14-1.92-.95-3.87-1.86-5.8-2.77-6-3.54-7.38-3.44-13.06,1.49a14.11,14.11,0,0,0,5.86.64A57.28,57.28,0,0,0,244.67,279.69Zm48.86,10.16c-.41-.41-.73-.58-.74-.77-.05-1,0-1.94,0-3.52l-6.54-.58c-.77-3.27-1.14-3.46-5.05-2.13-1.36-4.07-3.41-4.82-7.05-3.85-1.56-4.18-2.65-4.64-7.56-3.14-.18-4.4-.34-4.46-7.37-2.88.11-1.15.21-2.2.4-4.29h-8c0-.59.11-1.63.19-2.76l-4.2-2-4,2.39-.68-.78,2.14-3.89-7.85-1c-1.24-3.58-3.09-4.66-7.56-3.83-1.45-3.52-4.13-4.31-7.78-2.8,0-4.81-3-3.19-5.09-2.68-.45-1.14-.57-2.26-1.18-2.88-5.37-5.43-9-6.07-16.1-3-1.06.46-2.09,1-3.12,1.49-4.91,2.45-5.87,6.15-2.79,10.61,5.33,7.7,11.82,9.95,21.33,7.06-3.17-1.74-6.12-3.17-8.86-4.93-1.05-.68-1.61-2.11-2.4-3.2,1.27.15,2.71,0,3.8.51,22.11,10.75,44.11,21.7,66.27,32.33,10.5,5,21.29,9.46,31.91,14.24,2.16,1,4.17,2.27,6.46,3.53-.15-1,0-2.59-.62-3.8C309.8,300,307.6,297,306,293.7c-1.48-3.13-2.8-5.55-6.33-2C298.26,286.75,297.43,286.44,293.53,289.85Zm-6.13-10.11c3.8,1,6.8,6,11.54,1.6a3.81,3.81,0,0,1,2.21-.54c5.69-.25,10.92-1.88,16.25-4,3.52-1.39,4.12-3.63,5-5.44ZM340,246.92c7,1.38,8.87.39,10.84-5.44.49-1.45,1.09-2.87,1.46-4.35,1-4,0-7.46-2.7-10.89-1.59,3.73-2.94,7.14-4.48,10.46S341.69,243.44,340,246.92Zm-92,41.74c5,4.38,9.78,1.57,14.83.12C256.63,284.16,255.29,284.16,247.9,288.66Zm-26.29-13.77c3.86,3.89,7.41,4,13.45.44C230,271,228,270.91,221.61,274.89Zm-10.54-6.14c3.55,4.18,6.86,4.66,13.39.88C220.25,264.77,215.7,268.54,211.07,268.75Zm60,24c-4.05-3.25-4.43-3.23-11.52.6C262.73,296,265.65,295.89,271.11,292.75Zm76.45-42.5c-9.18-.24-10.12.06-10.49,3.55h9C346.44,252.84,347,251.6,347.56,250.25ZM286.9,305.79c4.55,4.06,7-1,10.6-1.09C293.24,300.46,290.47,304.14,286.9,305.79ZM331,264.89c3.26-.34,7.32,3.62,9.46-1.95C337.43,264.72,333.25,259.55,331,264.89Zm3-7.54c0,.42.06.84.08,1.26,5.27,2.16,8.7,1.67,10-1.87Zm-38.86,51.73c4.12,2.82,6.84.48,10-1.34C301.82,305.89,301.82,305.89,295.11,309.08Z"/><path class="cls-2" d="M230.73,379.22c7.63-5.3,17.06-6.84,25.35-11-9.5-3.41-17.8.17-26.08,3.57-6.1,2.51-12.11,5.23-18.16,7.85l-.78-.9c1-.88,1.91-2.09,3.1-2.6,7.76-3.33,15.58-6.51,23.38-9.74L241,365l-8.92-3.66c-11.71,6.53-23.67,10-34.9,15.17-.23-.31-.46-.62-.68-.94a11.89,11.89,0,0,1,2.66-2.2c7.78-3.27,15.63-6.39,23.42-9.64,2.1-.88,4.1-2,6.11-3-8.16-4.44-16.22-8.56-24-13.15-8.82-5.2-18-10.1-25.86-16.5-5.5-4.46-10.6-5.46-17.23-5-17.21,1.24-34.06,4-50.25,10-6.43,2.41-12.83,4.94-18,10-8.56,8.34-8.62,14.46-.53,23.77s19.07,14,30.22,17.58c17,5.51,34.22,10.75,51.71,14.3,15.88,3.23,32.23,4.24,48.41,5.85a225.93,225.93,0,0,0,28,1.43c12-.31,24-1.7,36-2.59,1.68-.12,3.37,0,5.06,0,.09.39.17.78.26,1.17-1.11.49-2.2,1.34-3.35,1.43-18.77,1.51-37.5,4.39-56.39,2.66-26.13-2.39-52.34-4.45-77.91-10.82-17.55-4.37-34.92-9.52-50.87-18.18-9.47-5.14-18.36-11.47-21-24.13-1.33,1.84-2.49,3-3.09,4.34-3.72,8.48-3.73,16.61,2.43,24.17.77.94.77,2.5,1.13,3.77-1.3-.65-3.24-1-3.78-2-2.48-4.78-4.57-9.77-7-15.18-16.9,9.87-28.72,23.83-29.71,45.33l-1.48.08c-.54-1.24-1.64-2.52-1.55-3.71a46.8,46.8,0,0,1,12.35-29c5.9-6.44,12.7-11.43,20-16a5.2,5.2,0,0,0,2.34-2.76c1.48-6.85,6.27-11.62,10.24-16.93,10.27-13.76,25.82-18.19,41.15-21.87,14.22-3.41,29-4.5,43.31-6.58-.5-4.72-1.67-10.48-1.58-16.22.09-5.58.46-11.44,3.74-16.29l1.46.29c-.4,3-.77,6.1-1.19,9.14-.92,6.52-1.68,13.13,1.11,19.3,1.37,3,3.38,6.31,6,8.19,20.11,14.28,41.07,27.1,64.71,34.82,4.06,1.33,8.85,1,12.5,2.91,5.91,3.12,10.21-.89,15-2.21,6.8-1.88,12.19-6.22,16.29-12l-.54-1.22a36.45,36.45,0,0,0-4.51,1.85c-4.54,2.59-9,5.4-13.53,7.94-1.34.75-3,.87-4.55,1.28l-.76-1.44L282.13,348c-4.14-1.7-6.34-2.81-10-.23-6.08,4.32-13.17,7.24-19.87,10.68-.56.29-1.41,0-2.12,0l-.61-1.11a36.5,36.5,0,0,1,3.86-2.63c6.1-3.14,12.25-6.19,19.36-9.76-6.17-2.52-11.09-4.6-16.08-6.49a4.13,4.13,0,0,0-2.73.59c-9.07,4.31-18.11,8.67-27.4,13.14-.7-3.72-.13-4.26,3.14-5.52,6.56-2.53,13.05-5.21,19.56-7.88a31.18,31.18,0,0,0,3.1-1.79c-2.36-1.13-4.25-2.15-6.24-2.93a2.9,2.9,0,0,0-2.38.24c-7.6,5.63-16.6,7.74-25.45,10.21-.88.24-2-.35-3-.55.75-.81,1.35-2.05,2.27-2.38,7.1-2.55,14.26-4.9,21.39-7.37a21.83,21.83,0,0,0,3.05-1.75l-7.11-3.15c-9.61,5.67-20,7.12-29.83,10.16l-.81-1.8a24.07,24.07,0,0,1,4.4-2.37c6.49-1.94,13.05-3.68,19.56-5.55a30.71,30.71,0,0,0,3.55-1.55c-3.48-3-6.79-3.48-10.94-2.35-7.64,2.08-15.47,3.5-23.24,5-1,.19-2.15-.56-3.23-.88.92-.7,1.75-1.83,2.77-2,6.52-1.31,13.09-2.39,19.62-3.61,1.48-.28,2.9-.82,5.12-1.46-2.38-2.08-4.07-3-6.82-2.33-5.58,1.39-11.25,2.37-16.9,3.48a7.36,7.36,0,0,1-3,.25,12,12,0,0,1-2.91-1.61c.9-.51,1.75-1.33,2.7-1.46,4.31-.6,8.66-.94,13-1.53a46.36,46.36,0,0,0,5.54-1.54c-3.27-2.42-5.81-4-9.58-2.78a68.85,68.85,0,0,1-11.28,2.23c-.82.12-1.8-.77-2.7-1.2.79-.65,1.51-1.69,2.4-1.87,3.37-.69,6.8-1.11,10.2-1.62.07-.47.15-.94.22-1.41-1.92-.38-3.87-1.16-5.77-1.07-3.27.15-6.52.84-9.78,1.3-.15-.69-.29-1.38-.44-2.08l8.9-2.17a49.63,49.63,0,0,1-5.14-3.66c-.86-.79-1.24-2.09-1.84-3.16,1.26.1,2.74-.2,3.73.37,11.57,6.58,22.66,14.19,34.69,19.76,18,8.31,36.62,15.17,54.94,22.76,3.06,1.27,5.91,3.05,9.11,4.72-.42,4.44-3.62,7.3-6.72,10-5.6,4.91-12,8.12-19.67,8.67-1.77.13-3.34,2-5.14,2.81-3.76,1.63-7.58,3.11-11.41,4.54-5.58,2.07-11.19,4-16.79,6.05C231.17,380.06,231,379.64,230.73,379.22Z"/><path class="cls-2" d="M549.28,376.38c2.23,3,4.7,3.52,7.52,1.1s5.76-5,8.63-7.51c.63-.55,1.23-1.11,2.56-2.31.24,4.39-2.26,6.27-4.36,8.23s-4.46,3.71-6.71,5.55c2.37,3,4.71,3,7.18.92,3.17-2.66,6.3-5.38,9.61-8.21,1.18,3.31-1.28,5.08-3.16,6.92s-4,3.36-6.08,5c2.23,3,4.63,3.59,7.07,1.33,4.13-3.82,8-7.87,12.32-12.09-.09.92.26,2.7-.47,3.68-3.26,4.35-6.82,8.47-10.55,13,1.17,2,3.42,2.41,5.87.57,2.74-2.06,5.29-4.39,7.83-6.69,1.92-1.74,3.71-3.62,6.17-4.87-2.68,6.41-8.14,10.47-13,15.22,2.77,2.83,5.32,3.88,8.62,1,5-4.31,10.16-8.43,16.1-13.32-.88,2.13-1.11,4-2.17,5-3.3,3.21-6.92,6.09-10.4,9.11-1.14,1-2.25,2-3.58,3.19a27.72,27.72,0,0,0,2.21,2.4q9.38,7.92,18.79,15.78c1.93,1.62,3.52,1.32,5.81,0,9.09-5.12,15.53-12.85,21.71-20.92a14.32,14.32,0,0,1,1.78-1.61c2,3.14-.37,4.93-1.83,6.39-6,6-12.14,11.7-18.25,17.51-.64.61-1.35,1.14-2.46,2.08l6.59,4.1c10.49-6.67,19.92-14,25.75-25.89,2,3.52.66,5.66-.79,7.14-5.8,5.92-11.83,11.61-17.8,17.35-.9.87-1.93,1.61-3.48,2.89l7.44,2.58c10.37-6.91,18.64-15.08,24.49-25.61,3.16,1.15,2,3.13.82,4.47-5.59,6.3-11.32,12.48-17.06,18.65a36.15,36.15,0,0,1-3.75,3c6.91,3.71,12.33.6,16.76-3.54,5.16-4.8,9.45-10.54,14.47-16.28,1.61.66,1,2.62-.2,4.13-3.43,4.44-7,8.76-10.68,13a21.83,21.83,0,0,1-3.9,2.9l.9,1.21a31.87,31.87,0,0,0,3.9-1c17.42-6.86,23.82-24.43,13.94-40.63-9.12-14.93-21.19-27.14-38.4-32.71s-34.48-10.57-51.73-15.83a7.06,7.06,0,0,1-2.16-.73c-.51-.38-.72-1.17-1.06-1.78.62-.31,1.29-.95,1.85-.87a50.44,50.44,0,0,1,7.54,1.45c15.81,4.79,31.75,9.2,47.32,14.67,18.33,6.43,31.67,19.22,40.75,36.16,6.47,12.07,5.41,27.12-10.62,40.05-5.79,4.67-12.2,7.81-18.56,11.26-.71.39-1.82.06-2.74.06.48-.9.74-2.17,1.5-2.62a72.16,72.16,0,0,1,6.7-3.11c-10.93-2.86-17.36,5.93-26.42,8.86.32-3.75,3.28-4.37,5.24-5.72s4.38-2.54,7.56-4.34c-4.51-.87-7.49-3-11.46-.11-5.86,4.27-12.28,7.77-18.5,11.55a3.46,3.46,0,0,1-2.84.2c5.34-6.69,13-10.09,20.47-14.81-2.4-1.07-4.4-1.78-6.24-2.8-8.81-4.91-17.44-9.77-25-16.85-7.76-7.23-17.39-12.48-26.34-18.39q-20.85-13.77-41.89-27.23c-7.55-4.82-15.42-9.12-23-13.95-5.27-3.39-10.25-7.24-15.26-11-.68-.52-.8-1.78-1.18-2.7a9.18,9.18,0,0,1,2.75-.12,8.65,8.65,0,0,1,2.25,1.18l8.78-6.59,1.23,1.47-8.26,6.1,5.19,4.31,9.95-6.58,1.1,1.28-8,7.52,4.69,3.56,11.43-8.09c-.7,5.61-5,7.23-8.43,9.7,2.07,1.34,3.88,2.47,5.65,3.66,5,3.38,8.27,3,12.44-1.6a15,15,0,0,1,4.3-3.44c-.12,5.25-4.68,6.76-8.35,9.8l6.16,3.66,9.68-9.17c.56,5.69-4.92,7-7.31,11l4.66,2.53,12.31-11.63.95.78c-1.57,5.48-6.45,8.49-10.64,12.16,2.32,2.57,4.6,3.41,7.26.93s5.15-5,7.79-7.38a7.19,7.19,0,0,1,3.76-1.88C558,368.91,553,372.16,549.28,376.38Z"/><path class="cls-2" d="M289.49,174.17c-14.4-6.28-28.46-13.47-44-16.72-1.74-.36-3.58-.26-5.33-.61a36.17,36.17,0,0,1-4.36-1.39c0-.36.07-.73.1-1.09l4-1.44c-.62-3.27-1.47-6.6-1.81-10-.29-2.84-1.13-6.68.3-8.43,2.89-3.52,6.53-7.39,11.77-7.08,5.74.33,8.74-2.48,10.66-7.34.31-.78,1.1-1.37,2.11-2.58,1.38,4.77-.64,7.62-3.21,10.52,32.32,14.64,66.66,23.9,97.53,42A79.74,79.74,0,0,1,360,162c.48-1,1.89-1.6,2.88-2.39a17.85,17.85,0,0,1,0,3.43c-.26,1.37-.92,2.66-1.26,4-.73,2.94-.34,5.43,2.33,7.5,4.16,3.23,6.7,7.29,5.8,13-.73,4.59-3,7.65-7.44,9.21-3.12,1.08-6,2.76-9.18,3.71a7.21,7.21,0,0,1-4.57-.61c-15-6.67-29.87-13.51-44.86-20.17-4.66-2.07-9.52-3.72-14.28-5.56Zm35.83-2-8.6,9.09a7.48,7.48,0,0,0,4.94-.51c3.34-1.61,6.55-3.48,10.83-5.79l-7.29-2.68c-5.35-2.63-10.81-5.06-16-7.93-4.69-2.58-8.91-4-13,1-.8,1-2.45,1.29-3.7,1.94s-2.25,1.21-3.73,2c8,5,12.67-3.18,18.89-3.79l.64,1.1-8.82,7.16c7.1,4.2,10.88-3.72,16.47-4.5l.75,1-8,7.21c.09.36.17.73.26,1.09,1.73-.29,3.6-.26,5.16-.94C318,176,321.6,174,325.32,172.19Zm-71.66-28.7-.18-1.06c-1.93-.57-3.91-1-5.78-1.77a11,11,0,0,1-2.4-1.86,31.13,31.13,0,0,1,3.2-1.12A2.94,2.94,0,0,1,250,138c12.77,4.54,25.76,8.58,38.26,13.77,17.62,7.31,34.88,15.47,52.29,23.28,8.69,3.9,17.36,7.83,25.9,11.68,1-4.29-1-7.63-7.59-11.08-.43,1.28-.86,2.57-1.28,3.85l-1.53-.32c.3-1.83.6-3.67.93-5.65l-4.23-2.27c-28.22-15.38-59.05-24.63-88.41-37.36a42.13,42.13,0,0,0-13.77-3.11c-6.54-.44-10.56,4.81-9.41,11.16.46,2.52.75,5.06,1.21,7.58.66,3.66,3.73,6,7,4.55,4.84-2.13,9.32-5.06,14.37-7.89-3.73-2.54-6.64-3.32-9.66-.11a11.47,11.47,0,0,1-4.11,2.73c-.89.35-2.14-.24-3.23-.4a11.59,11.59,0,0,1,2-2.22C250.31,145.17,252,144.38,253.66,143.49Zm26,8c-4-1.54-7.95-3-11.88-4.49a2.34,2.34,0,0,0-1.82,0c-3.78,2.72-7.49,5.54-11.83,8.78,7.66,1.53,11.86-4,17.59-6.23a13.3,13.3,0,0,1-3.28,4.86,57,57,0,0,1-5.22,3.87C266.88,160.52,274.41,157.33,279.67,151.54Zm42.93,32.89c3.44,1.06,6.3,3,8,2.26,4-1.71,7.39-4.71,11.29-7.36l-7.09-3Zm-41.94-18.65c3.58,2.28,13-.9,17.67-6.21-3.08-.28-5.17-3.83-8.54-1.06C286.86,160.92,283.85,163.25,280.66,165.78Zm7.54-11.12c-2.08-.18-4.59-1.18-6.15-.37-3.86,2-7.28,4.87-10.95,7.44C275.67,164.64,282.33,162.28,288.2,154.66Zm67.86,30.26c-2-.19-4.61-1.26-6-.4-3.26,2-5.95,4.94-8.8,7.44C344.18,193.9,351.29,191.29,356.06,184.92ZM347.92,183c0-.41-.05-.81-.07-1.22-1.35-.3-3.19-1.3-4-.77-3.39,2.32-6.47,5.09-9.86,7.87l3.76,1.72Zm1,12.21c.05.47.09.94.14,1.42,1.63-.21,3.55.06,4.82-.73a54.14,54.14,0,0,0,6.15-5l4.05,1.34.42-1.14-5.05-3.36Z"/><path class="cls-2" d="M262.61,97.85c4.94,4.7,5.49,11.12,5.85,17.78,1.54.36,3,1,4.46,1a8.5,8.5,0,0,0,3.5-1.49c2.32-1.33,4.58-2.79,6.87-4.17,2.5-1.5,5-3,7.93-4.72-2.86-2.18-5-3.57-7.94-.84a25,25,0,0,1-6.65,3.78c-1,.44-2.3.14-3.47.17.64-.92,1.1-2.11,2-2.71,1.88-1.29,4-2.28,6.64-3.76a67.51,67.51,0,0,1-7.58-2.55c-1-.48-1.57-1.9-2.34-2.9,1.15-.17,2.42-.74,3.44-.45,25.07,7,49.41,16,72.27,28.64,8.61,4.78,17.65,8.8,26.35,13.45,2.3,1.23,4,3.52,6.42,5.67,3.05-2.16,6-5.26,5.19-10.39-.88-5.52-1.35-11.21-3.06-16.48-2.48-7.66-9.06-11.79-15.7-15.6a195.79,195.79,0,0,0-53.44-20.92c-7.61-1.77-15-4.47-23-3.42-4.12.54-8.17,1.6-13.09,1.91.93-1,1.65-2.55,2.81-3a35.36,35.36,0,0,1,23-1.91c14.47,3.79,29,7.75,43,13,9.64,3.58,18.66,9,27.61,14.26,9.59,5.58,13.91,14.66,14.8,25.5.14,1.65.35,3.3.47,4.95.68,9.14-4.34,13.48-11.91,17.23-4.36,2.16-8.66,4.45-13.72,7.06-16.48-10.73-36.06-18.07-55.51-25.48-12.39-4.73-25.4-7.84-38.18-11.5-2.75-.79-4.55-.77-4.08-5,.43-3.88-1.77-8.07-2.87-12.11-.4-1.48-1-2.92-1.48-4.37Zm25.23,22.61c2.11.52,4,1.69,5.13,1.15,5.44-2.65,10.66-5.76,16.94-9.24-5.9-2.14-10.63-3.92-15.43-5.52-.58-.19-1.58.4-2.19.88-2,1.55-3.79,3.34-5.82,4.8-2.4,1.73-5,3.22-7.58,4.88,4.85,4.23,7.57-.84,10.87-2,3.76-1.31,7.06-3.94,10.56-6,.26.42.52.84.77,1.26C298.1,115.33,292.61,116.89,287.84,120.46Zm9.35,3.05c2.92.72,5.28,2.14,6.73,1.5,5.27-2.34,10.24-5.36,15.32-8.13-.05-.38-.11-.75-.16-1.13-2.26-.57-5.06-2.27-6.68-1.49C307.39,116.64,302.85,120,297.19,123.51Zm27.62,10.66c2.66.88,5.16,2.63,6.51,2,4.25-2.06,8.07-5,12.06-7.62,0-.42,0-.84-.05-1.26-2-.59-4.64-2.28-6-1.57C333.18,127.81,329.53,130.86,324.81,134.17Zm9.64,4.36c2.72.69,5.13,2.17,6.62,1.52,4-1.74,7.58-4.4,11.32-6.69,0-.43,0-.87,0-1.3-2.26-.57-5.07-2.26-6.68-1.49C341.9,132.4,338.69,135.41,334.45,138.53Zm-4.06-17.44-13.91,9.35,4.38,2,14.8-8.85Zm22.29,24.63c3.21,2.88,9.34.92,15.67-4.8-5-4-5.21-4-9.79,0C356.73,142.44,354.84,143.94,352.68,145.72Zm-40.13-16.67L326.9,120c-.08-.41-.17-.83-.25-1.24-1.5-.09-3.3-.77-4.43-.17-4.7,2.49-9.19,5.36-14.44,8.49Zm46.9,6.62c-1.81-.48-3.53-1.52-4.28-1-3.55,2.26-6.84,4.94-10.42,7.61C348.72,144.43,353.87,142.07,359.45,135.67Zm.48,14.23c4.11,3.59,4.36,3.5,7.56-.17a39.85,39.85,0,0,1,4.63-3.91c.75-.63,1.45-1.31,2.18-2l-.81-1.2C368.4,143.8,364.54,147.41,359.93,149.9Z"/><path class="cls-2" d="M413.56,274.05a87.87,87.87,0,0,1-25.89-20.17l-6.24,15.69,8.9-.71c.1.56.21,1.12.31,1.68-2.44.77-4.85,1.72-7.34,2.26s-5.05.94-6.2,4.83l17.7-3.52c-1.75,4.3-13.94,7.58-19.27,5.2-1.11,1.75-2.24,3.53-3.78,5.94l8.24-.62-.36-.71c1.08-.83,2.05-2.13,3.25-2.39,5-1.11,10-2,15.09-2.77a31.43,31.43,0,0,1,4.95,0l.15,1.3c-2.88.79-5.75,1.62-8.64,2.37s-5.86,1.44-8.89,2.18c8.06,4,15.57-1.81,23.33-.87.09.34.18.69.26,1l-10.89,4c4.66,2.19,8.88,3.18,13.65.63,2.36-1.26,5.51-1,8.3-1.48.13.51.27,1,.4,1.52l-10.2,3.67c6.19,4.35,11.59-2,17.41.95l-7.13,3.58c1.87,2.7,4.65,1.64,7.09,1.35a71.64,71.64,0,0,0,7.18-1.52l.46,1.14-5.51,3.71c2.61,2.77,5.23,3.39,8.53,1.44,1.45-.85,3.33-1,5-1.4.13.41.25.82.38,1.23l-5,3.63c3.05,2.42,5.79,4.07,9.45,1.65,1.24-.82,2.91-1,4.39-1.44l.62,1.06-4.46,4.1c3,3.23,6.12,3.66,9.69.88,1-.77,2.4-1,3.62-1.43l1,1.26-6,3.52c3.35,3.72,5.91,4.06,8.95,2.06a43.8,43.8,0,0,1,5.24-2.56l.84,1.24-5.78,5.14c2.54,2.44,4.82,4.32,8.34,1.27,1.52-1.32,3.76-1.8,5.67-2.67l.75,1.29L475,327.88c2.19,2.94,4.35,3.2,7.1.84,1.45-1.25,3.44-1.88,5.19-2.79l.78,1.31-6.14,5.24,4.6,3,8.4-6.17c-.53,6.35-7.92,10.62-12.34,8-12-7.07-23.75-14.77-36.08-21.28-16.07-8.48-32.73-15.84-48.92-24.09-9-4.57-18.36-3.62-27.76-3.58-1,0-2,.94-3.35,1.61-.34-1-.62-1.86-.91-2.74-2.85-.38-6.2,1.44-8.59-1.33,0-.45,0-.9.05-1.36,2.92,0,5.85.17,8.75-.08a6,6,0,0,0,3.94-1.67,100.69,100.69,0,0,0,5.48-8.55c-3.33-.61-6.31-1-9.2-1.77-1-.26-1.75-1.45-2.61-2.21,1.1-.32,2.27-1.05,3.3-.89,3.39.5,6.74,1.32,10.35,2.07.73-1.47,1.38-2.8,2.1-4.24-3.31-.42-6.33-.65-9.28-1.26-1.29-.27-2.43-1.31-3.63-2,1.43-.36,2.89-1.12,4.28-1,3.17.27,6.3,1,10.25,1.62,1.73-5,3.89-10.08,5.16-15.34,1-4.2-3-9.79-7.46-12-3.71-1.85-8,.52-11.37,2.63-.52.33-.72,1.24-1,1.92-3.47,9.6-6.8,19.24-10.47,28.76a13.44,13.44,0,0,1-4.27,5.33c-2.42,1.88-2.41,3.65-.88,5.88,3.05,4.43,6.35,8.46,12.48,8.31.64,0,1.3.55,2.16.95-1.69,3-4.17,3.15-6.67,2.2a18.85,18.85,0,0,1-11.93-12.63c-.45-1.51.6-4.1,1.83-5.37,9.05-9.4,11.83-21.66,15.23-33.52,2.18-7.6,12.58-11.63,18.73-6.46a16.17,16.17,0,0,1,6.22,12.25,6.07,6.07,0,0,0,1.95,4c7.25,6.07,14.68,11.92,22,17.94,1,.83,1.57,2.21,2.35,3.33C414.4,273.25,414,273.65,413.56,274.05Z"/><path class="cls-2" d="M576.9,341.74c-4.18-1.23-7.77-2.19-11.3-3.34-20.46-6.61-41.25-12.37-61.25-20.17-18.69-7.29-36.58-16.66-54.73-25.28-10.29-4.89-20.42-10.13-30.62-15.21a9.81,9.81,0,0,1-2.34-1.29,5.78,5.78,0,0,1-.94-1.91c.76-.3,1.64-1,2.25-.82a42.65,42.65,0,0,1,6,2.47c20.56,10.15,40.9,20.77,61.7,30.4,21.28,9.85,43.43,17.54,66,24.05,8.12,2.34,16.26,4.61,24.33,7.08,1.06.32,1.79,1.73,2.67,2.63Z"/><path class="cls-2" d="M284.15,328c-2.67-.7-5.39-1.24-8-2.14-21.56-7.44-42.64-16-62.37-27.56-7-4.1-13.35-9.39-20.12-14a4.76,4.76,0,0,0-3.78-.29c-4.53,1.68-8.92,3.69-13.43,5.43-.59.23-1.51-.42-2.28-.66.42-.68.7-1.73,1.3-2,2.35-1,4.9-1.53,7.21-2.61a30.6,30.6,0,0,0,6.81-4.08c1.94-1.64,3.37-1.48,5,.09C205.41,290.91,219.14,297,232.39,304c15.83,8.35,32.78,13.72,49.5,19.74,1.26.45,2.19,1.81,3.28,2.75Q284.65,327.27,284.15,328Z"/><path class="cls-2" d="M459.19,437.34c-1.72,1.79-3.18,4-5.19,5.31-8.63,5.74-17.48,11.14-26.13,16.85-14,9.24-27.85,18.69-41.85,27.91-7,4.64-14.31,9-21.42,13.51-2.36,1.51-4.5,3.38-6.87,4.88a18.42,18.42,0,0,1-3.84,1.38c.74-1.3,1.17-3,2.26-3.82,3.55-2.72,7.3-5.19,11-7.66,9.5-6.28,19-12.58,28.57-18.76,14.74-9.51,29.58-18.88,44.31-28.4,6.08-3.93,12-8.1,18-12.17Z"/><path class="cls-2" d="M389.66,493.52c.84-1.21,1.43-2.78,2.56-3.57,6-4.19,12.13-8.12,18.15-12.25q27.09-18.57,54.14-37.22c1.17-.8,2.46-1.45,3.69-2.16l.95,1.15c-1.24,1.38-2.26,3.08-3.75,4.09-8,5.47-16.24,10.7-24.29,16.15-7.83,5.3-15.51,10.81-23.31,16.15-6.64,4.55-13.36,9-20,13.5-2.31,1.57-4.51,3.3-6.77,4.95C390.56,494.06,390.11,493.79,389.66,493.52Z"/><path class="cls-2" d="M202.52,233.8c.13-1.56-.09-3.24.43-4.65,5-13.43,9.84-26.92,15.22-40.19,4-10,8.74-19.66,13.23-29.43a7.53,7.53,0,0,1,3.33-3.43c-10,26.1-22.92,50.91-30.27,77.93Z"/><path class="cls-2" d="M234.82,497.55c1-1.3,1.83-2.88,3.1-3.83,3.58-2.69,7.29-5.22,11.06-7.63,16-10.19,27.71-24.1,36.35-40.81.76-1.48,1.68-2.88,2.53-4.32l1.24.42a16.44,16.44,0,0,1-.94,3.91c-9.5,18.25-22,33.87-39.79,44.76-3.27,2-6.26,4.46-9.39,6.68-1,.7-2,1.33-3,2C235.59,498.33,235.21,497.94,234.82,497.55Z"/><path class="cls-2" d="M301.71,438c-.28,1.71-.23,3.56-.9,5.1a120.62,120.62,0,0,1-25.14,37.45c-6,6-13.5,10.53-20.41,15.6-.67.49-2,.12-3,.15.47-.95.69-2.2,1.44-2.78,2.84-2.19,5.79-4.24,8.79-6.2,15.27-10,25.6-24.13,33.58-40.2,1.52-3.05,2.86-6.19,4.28-9.29Z"/><path class="cls-2" d="M379.76,391.92c10.75,8.44,9.08,52.69-2.56,66.39.13-1.55-.22-3.37.46-4.62,5.6-10.37,7.5-21.57,6.76-33.08-.5-7.84-2.36-15.6-3.64-23.39C380.48,395.44,380.1,393.68,379.76,391.92Z"/><path class="cls-2" d="M368.38,407.53c6.42,9.39-2.41,53.79-12,64.05-2.13-2-.65-3.91.05-5.79,3-7.88,7-15.54,8.62-23.69,1.94-9.56,1.83-19.53,2.63-29.32C367.82,411.3,368.08,409.83,368.38,407.53Z"/><path class="cls-2" d="M365.75,465c8.51-20.07,10.9-41,9.32-62.6l1.58-.18c.57,1.9,1.59,3.78,1.63,5.69.43,18.71-1.75,37-8.76,54.56a19.53,19.53,0,0,1-2,3.16Z"/><path class="cls-2" d="M351,206c-3.51,1.55-6.92,3.43-10.56,4.59-8.48,2.7-17,5.32-25.65,7.46-5.14,1.27-10.54,1.53-15.8,2.32-2.14.32-4.23,1-6.37,1.2a12.32,12.32,0,0,1-3.55-.72c1-.77,1.92-2,3-2.23,4.4-.76,9-.76,13.27-1.83,12.47-3.09,24.86-6.51,37.26-9.9,2.62-.72,5.14-1.81,7.71-2.73C350.5,204.76,350.73,205.37,351,206Z"/><path class="cls-2" d="M339.87,199.56c-4.47,1.61-8.85,3.61-13.43,4.76-10.75,2.7-21.6,5-32.43,7.41-.65.14-1.47-.43-2.2-.66.57-.66,1.05-1.77,1.73-1.92,7.09-1.58,14.27-2.8,21.32-4.54,6.8-1.68,13.48-3.88,20.21-5.82,1.41-.41,2.85-.71,4.28-1.06C339.53,198.34,339.7,199,339.87,199.56Z"/><path class="cls-2" d="M226.15,469.22a34.87,34.87,0,0,1-3.18,4.3c-9.44,9.48-20.51,16.82-31.71,24-.75.48-1.95.23-2.95.32.48-.92.73-2.18,1.48-2.71,4.18-2.93,8.68-5.44,12.71-8.56,7.26-5.62,14.27-11.57,21.39-17.37a8.69,8.69,0,0,1,1.21-.74Z"/><path class="cls-2" d="M387.42,449.59c1.1-8.34,2.79-16.13,3-24s-1.13-15.81-1.81-24C395.37,405.39,394.43,443.66,387.42,449.59Z"/><path class="cls-2" d="M252.07,382.44c1.34-4.05,38.54-23.57,45.61-23.86-1,1-1.89,2.29-3.11,2.88-10.21,4.93-20.51,9.66-30.72,14.6C259.84,378,256,380.3,252.07,382.44Z"/><path class="cls-2" d="M205.7,495.94a33.31,33.31,0,0,1,3.23-3c7.34-5.14,14.81-10.1,22.06-15.37,2.77-2,5.06-4.67,7.58-7,.87-.81,1.76-1.61,2.64-2.41l1,.68c-.53,1.07-.81,2.43-1.64,3.17-5.55,4.9-11.08,9.83-16.89,14.41-4.31,3.4-9,6.35-13.58,9.38a16.48,16.48,0,0,1-3.59,1.32Z"/><path class="cls-2" d="M205.09,474c-2.17,2-4.09,4.42-6.55,6-8.85,5.59-17.87,10.92-26.9,16.23-.82.48-2.13.12-3.22.14.68-.92,1.16-2.15,2.06-2.7,9.36-5.74,18.81-11.33,28.18-17.05a61.9,61.9,0,0,0,5.23-4Z"/><path class="cls-2" d="M188.92,473c-1.09,1.2-2,2.74-3.31,3.55-7.65,4.6-15.39,9.07-23.15,13.5-2.92,1.67-6,3.13-9.35,4.88-.46-3.5,1.82-4.17,3.58-5.15,8.27-4.59,16.58-9.09,24.84-13.7,2.18-1.22,4.21-2.71,6.31-4.08Z"/><path class="cls-2" d="M268.4,380.54a23.52,23.52,0,0,1,3.48-2.48c9-4.24,18.12-8.34,27.14-12.59,2.48-1.17,4.79-2.71,7.18-4.09l.9,1c-1.48,1.39-2.74,3.24-4.49,4.08-8.06,3.88-16.26,7.47-24.39,11.2-3,1.36-5.88,2.82-8.83,4.23Z"/><path class="cls-2" d="M321.12,365.8c-1.33,1.13-2.49,2.65-4,3.33-10.73,4.74-21.53,9.3-32.43,14-.72-2.44,1.6-3.25,3.38-4.09q11.29-5.28,22.71-10.31c3.12-1.38,6.32-2.57,9.48-3.85Z"/><path class="cls-2" d="M172.17,470.71c-1.82,5.26-23.12,17.15-32.74,19.11-1.35-2.81,1.14-3.13,2.64-3.86,8.06-3.9,16.18-7.69,24.23-11.61C168.08,473.48,169.68,472.27,172.17,470.71Z"/><path class="cls-2" d="M629.63,392.14a9.93,9.93,0,0,1-1.41,2.57c-6.54,6.42-13.09,12.83-19.8,19.06-.92.86-2.79.7-4.22,1-.13-.44-.27-.87-.4-1.31,3-2.15,6.22-4.13,9.06-6.51,3-2.53,5.68-5.52,8.61-8.18,2.61-2.36,3.56-6.52,7.3-7.65Z"/><path class="cls-2" d="M659.24,442.83a19.58,19.58,0,0,1,2.65-3.12c5.53-4.33,11.18-8.51,16.72-12.84,2.31-1.8,4.41-3.87,6.68-5.72a10.74,10.74,0,0,1,3.55-1.89C687.62,422.91,664.35,442.07,659.24,442.83Z"/><path class="cls-2" d="M447.69,461.75a17,17,0,0,1,2.64-3.25c4.91-3.69,9.94-7.22,14.92-10.83,3.1-2.25,6.16-4.55,9.27-6.77a12.44,12.44,0,0,1,2.19-1l1,1.06c-1.73,1.78-3.25,3.85-5.23,5.29-7.43,5.44-15,10.68-22.54,16a4,4,0,0,1-1.39.33Z"/><path class="cls-2" d="M572.89,450.57c.42-.88.6-2.13,1.29-2.58,9.28-6,18.64-11.84,28-17.73l1.18,1.3a19.44,19.44,0,0,1-3.21,3.26c-6.58,4.14-13.25,8.12-19.87,12.19-2.21,1.36-4.37,2.82-6.55,4.24C573.44,451,573.17,450.79,572.89,450.57Z"/><path class="cls-2" d="M178.72,373.59c11.39-5.82,23.55-9.83,35.27-14.87l.8,1.88-35.18,14.92C179.31,374.88,179,374.24,178.72,373.59Z"/><path class="cls-2" d="M233.55,418.26c-1.62,1.73-3,3.76-4.9,5.12-6.31,4.57-12.77,8.94-19.25,13.26-.75.5-2,.27-3,.38.57-1,.92-2.22,1.75-2.83,7.42-5.45,14.91-10.79,22.41-16.12a9.61,9.61,0,0,1,2.25-.85C233,417.58,233.3,417.92,233.55,418.26Z"/><path class="cls-2" d="M617.77,431.2c-8,7.72-18.47,12-26.91,19.05l-1.05-.54c.42-1,.57-2.31,1.3-3a39.77,39.77,0,0,1,5.22-3.86q8.64-5.7,17.34-11.3a26.75,26.75,0,0,1,3.38-1.59Z"/><path class="cls-2" d="M155.06,471.57c-1.55,1.39-2.31,2.42-3.32,2.93-7.27,3.7-14.59,7.31-21.91,10.9a9.82,9.82,0,0,1-3.25,1.05c-.69.06-1.45-.56-2.18-.88.39-.57.66-1.42,1.2-1.68q13.13-6.22,26.33-12.28C152.51,471.33,153.33,471.57,155.06,471.57Z"/><path class="cls-2" d="M333,368.48a126.68,126.68,0,0,1-30.32,13.8c.54-.8.9-2,1.65-2.33,9-4.38,18-8.65,27-12.91.26-.12.69.11,1.05.18Z"/><path class="cls-2" d="M584.26,432.18c-9,7.7-18.91,12.61-27.87,18.9l-1-.89c.54-.91.86-2.15,1.66-2.66,8.36-5.38,16.79-10.64,25.22-15.92C582.43,431.53,582.74,431.73,584.26,432.18Z"/><path class="cls-2" d="M194.29,436.22c.29-2.87,22.09-17.82,24.93-17.28C211.52,425.56,203.75,432.07,194.29,436.22Z"/><path class="cls-2" d="M495,438.12C487.18,444.59,478.66,450,470,455.3l-1-.87c.57-.92.91-2.17,1.73-2.72,7.32-4.92,14.71-9.73,22.11-14.54.35-.23.91-.12,1.38-.17Z"/><path class="cls-2" d="M537.83,451.37c1.38-1.62,2.23-3.21,3.55-4.05,5.31-3.34,10.79-6.4,16.17-9.64,2.1-1.26,4.07-2.73,6.1-4.11l1,1c-.93,1.14-1.65,2.62-2.82,3.38-7.31,4.71-14.73,9.26-22.12,13.84C539.52,451.84,539.2,451.67,537.83,451.37Z"/><path class="cls-2" d="M504,452.1c.85-1.21,1.32-2.58,2.28-3.14,7.7-4.57,15.48-9,23.26-13.44.14-.08.45.16,1.35.51-.69,1-1.1,2.21-1.93,2.71-7.8,4.64-15.67,9.17-23.53,13.7C505.3,452.53,505,452.34,504,452.1Z"/><path class="cls-2" d="M521.83,451.46c.67-3.83,20.35-15.46,27.11-15.82-1.06,1.21-1.56,2.18-2.37,2.64-7.74,4.44-15.52,8.8-23.31,13.15C523,451.6,522.53,451.46,521.83,451.46Z"/><path class="cls-2" d="M138.42,470c-1.13,1.14-1.72,2.11-2.58,2.55Q125.1,478,114.26,483.26c-.68.33-1.74-.14-2.63-.24.39-.72.59-1.81,1.18-2.1,7.91-3.86,15.87-7.62,23.82-11.38C136.8,469.46,137.1,469.64,138.42,470Z"/><path class="cls-2" d="M511.09,437.52a38.89,38.89,0,0,1-4.27,3.78c-6.17,4-12.42,7.91-19.42,11.62.64-1.16,1-2.73,2-3.4,5.67-3.9,11.46-7.61,17.25-11.33a34.07,34.07,0,0,1,3.68-1.83C510.55,436.75,510.82,437.14,511.09,437.52Z"/><path class="cls-2" d="M264.21,343c-1.2,1-2.24,2.41-3.62,3.08q-8.91,4.29-18,8.17c-.76.32-2-.38-3-.61.44-.67.73-1.7,1.35-2,7.45-3.15,15-6.2,22.45-9.27Z"/><path class="cls-2" d="M617.08,389.17c-.23.7-.28,2.07-1,2.73-5.07,4.77-10.26,9.42-15.46,14a4.84,4.84,0,0,1-2.42,1c-.6.09-1.28-.39-1.92-.61.25-.64.31-1.55.78-1.89,3.38-2.43,6.94-4.61,10.25-7.13S613.74,392,617.08,389.17Z"/><path class="cls-2" d="M297.39,198.84l28-7.59C323.58,194.75,300.87,201.2,297.39,198.84Z"/><path class="cls-2" d="M701.79,422.31l-21,18.23c0-1.7-.38-3,.06-3.39,6.23-5.3,12.56-10.47,18.9-15.65C699.81,421.43,700.17,421.67,701.79,422.31Z"/><path class="cls-2" d="M275.9,81.74c-5.06,5.5-9.48,10.32-13.94,15.16C259.42,92.91,268.4,82.54,275.9,81.74Z"/><path class="cls-2" d="M121.46,470.38c-1,.92-1.84,2.2-3,2.69q-7.74,3.24-15.66,6c-.86.3-2.11-.49-3.18-.78.89-.72,1.68-1.78,2.7-2.1,5-1.55,10.11-2.79,15.09-4.39,1.14-.37,2-1.75,2.93-2.66Z"/><path class="cls-2" d="M710.41,426c-4.07,5.93-9.86,8.62-15.85,12.33C695.1,434.18,705.77,426.24,710.41,426Z"/><path class="cls-2" d="M291.28,344a33,33,0,0,1-2.51-4c-1.33-2.89-2.56-5.83-3.6-8.83-.29-.84.23-2,.38-2.95.85.55,2.12.9,2.49,1.67,1.72,3.54,3.29,7.16,4.68,10.84.31.83-.29,2-.48,3C291.93,343.87,291.6,343.93,291.28,344Z"/><path class="cls-2" d="M398.56,413.36c.82,1.15,2.15,2.16,2.11,3.12-.17,4.81-.63,9.61-1.17,14.39-.07.59-1.19,1.07-1.82,1.6-.36-.71-1-1.43-1-2.12.24-5.28.61-10.56,1-15.84C397.65,414.32,397.93,414.14,398.56,413.36Z"/><path class="cls-2" d="M168,367.93l20-7.29C187.4,364.29,174,369.69,168,367.93Z"/><path class="cls-2" d="M322.67,382.22c1.11-3.18,13.52-8.78,18.23-8.12C334.93,378.53,328.63,380,322.67,382.22Z"/><path class="cls-2" d="M370.67,115.31c-.14,1.74,0,3.6-.5,5.21a80.73,80.73,0,0,1-3.71,8.8,2.07,2.07,0,0,1-1.76,1c-.48-.12-1.19-1.28-1-1.68,1.75-4.52,3.65-9,5.52-13.46Z"/><path class="cls-2" d="M376.8,117.12c.55,1.52,1.53,2.82,1.27,3.78a118.9,118.9,0,0,1-3.86,11.62c-.22.57-1.58.7-2.41,1a6.24,6.24,0,0,1-.2-2.39C373.14,126.78,374.81,122.44,376.8,117.12Z"/><path class="cls-2" d="M209.11,233.22c5.49,1.59,9.21,5,13.68,7.72C219,242.89,210.48,238.28,209.11,233.22Z"/><path class="cls-2" d="M107.28,470.87l-17,4.12c2.71-4.06,12.51-6.64,16.74-5.33C107.09,470.07,107.18,470.47,107.28,470.87Z"/><path class="cls-2" d="M298.33,191.18l16.56-3.83c-3,4-11.87,6.44-16.27,5C298.52,192,298.42,191.56,298.33,191.18Z"/><path class="cls-2" d="M355.43,108.61c0,1.28.31,2.67-.06,3.83A82,82,0,0,1,352,121c-.26.58-1.31.8-2,1.19-.24-.78-.89-1.73-.66-2.32,1.52-3.85,3.23-7.62,4.88-11.42C354.62,108.49,355,108.55,355.43,108.61Z"/><path class="cls-2" d="M529.05,347.63c-.06,3.06-6.48,9.9-9.21,9.92a2.09,2.09,0,0,1-1.57-.72,1.7,1.7,0,0,1,.13-1.65C521.87,352.63,525.43,350.18,529.05,347.63Z"/><path class="cls-2" d="M93.11,468c-3.72.46-7.43,1-11.17,1.32-.53.05-1.3-.7-1.64-1.27-.14-.24.49-1.37.85-1.42,3.65-.44,7.32-.76,11-1,.3,0,.66.64,1,1C93.13,467.1,93.12,467.57,93.11,468Z"/><path class="cls-2" d="M363.37,112.5c.15,1.14.7,2.42.37,3.41a81.36,81.36,0,0,1-3.61,8.83c-.26.54-1.39.68-2.11,1-.22-.74-.82-1.65-.59-2.19,1.58-3.68,3.34-7.28,5.05-10.9Z"/><path class="cls-2" d="M200.87,424.34c-3.44,3.9-8.06,6-12.65,8.06l-.94-1.42,12.46-8.33C200.12,423.21,200.5,423.77,200.87,424.34Z"/><path class="cls-2" d="M369.05,255.58l13.39,2.8C378.41,261.7,370.1,260.07,369.05,255.58Z"/><path class="cls-2" d="M340.72,105.41c.63,1.35,1.43,2.24,1.23,2.76-1.07,2.85-2.32,5.64-3.67,8.37-.24.48-1.24.58-1.88.85-.15-.75-.66-1.66-.4-2.24C337.33,112.14,338.85,109.2,340.72,105.41Z"/><path class="cls-2" d="M342.82,119.55c-.39-4.5,2.55-7.88,4.15-12.17C349,110.43,347.22,115.7,342.82,119.55Z"/><path class="cls-2" d="M371.21,279.64c-3.17-.21-6.34-.37-9.49-.67-.39,0-1-.87-1-1.32s.67-1.33,1-1.31c3.24.21,6.47.57,9.71.89C371.38,278,371.3,278.84,371.21,279.64Z"/><path class="cls-2" d="M438.46,433.9l-10.36,4.94c1-3.91,6-6.52,9.72-6.24C438,433,438.25,433.46,438.46,433.9Z"/><path class="cls-2" d="M284.67,84c-2.75,2.92-4.93,5.3-7.21,7.58a1.87,1.87,0,0,1-1.64,0c-.31-.14-.54-.85-.51-1.29C275.47,88.24,281.2,84,284.67,84Z"/><path class="cls-2" d="M260.15,313.08q2.72-5.58,5.42-11.17l1.77.83L262.13,314C261.47,313.68,260.81,313.38,260.15,313.08Z"/><path class="cls-2" d="M336.3,383.47c.61-2.86,2.18-3.57,9.05-4.12C344.43,382.57,342.06,383.65,336.3,383.47Z"/><path class="cls-2" d="M81.91,462.86c-2.32,3.25-5.2,2.53-8,2-.43-.08-1.1-1.07-1-1.32.26-.55,1-1.26,1.47-1.25C76.9,462.36,79.4,462.65,81.91,462.86Z"/><path class="cls-2" d="M381.51,129.41c-.63,3-1.26,5.89-1.88,8.84l-1.62-.33c-1.61-3.33.26-6,1.63-8.84Z"/><path class="cls-2" d="M289.11,189.42l-11.29-.91C280.28,185.45,286.15,185.86,289.11,189.42Z"/><path class="cls-2" d="M212.81,227.74l8.31,4.68-.76,1.36a15.31,15.31,0,0,1-8.6-4.14Z"/><path class="cls-2" d="M266.37,242.36c-2.5-.11-5-.16-7.49-.4-.36,0-.92-1-.87-1.42s.8-1.24,1.17-1.2c2.45.28,4.89.73,7.33,1.13C266.46,241.1,266.42,241.73,266.37,242.36Z"/><path class="cls-2" d="M268.26,234.27c-3.64,3.25-6.69,3-8.73-.6Z"/><path class="cls-2" d="M632.88,370.06c-1.26-2.12-2.6-4.2-3.72-6.4-.23-.46.25-1.38.6-2a1.57,1.57,0,0,1,1.34.19C632.54,364.25,635.06,366.28,632.88,370.06Z"/><path class="cls-2" d="M289.4,174.12l2.89,2.7c-.77.39-1.22.84-1.58.77-2.32-.43-4.62-1-6.93-1.46l5.72-1.94A.46.46,0,0,0,289.4,174.12Z"/><path class="cls-2" d="M342.64,149.71l-3,7.14c-.71-.33-2.06-.91-2-.95.95-2.39,2-4.74,3.06-7.09Z"/><path class="cls-2" d="M343.79,158.75a8.88,8.88,0,0,1,3.58-7.75l1.45.66-3.42,7.73Z"/><path class="cls-2" d="M92,395.07c-3.11-4.44-2.26-8.12,1.44-8.77C93,389,92.57,391.66,92,395.07Z"/><path class="cls-2" d="M283.93,195.1c-2.34-.2-4.69-.35-7-.63-.3,0-.82-.82-.73-1.08.17-.49.73-1.22,1.09-1.2,2.27.13,4.53.43,6.79.68C284,193.61,284,194.35,283.93,195.1Z"/><path class="cls-2" d="M354.34,154.63l-3.24,6.92C349.11,158.16,350.36,155.54,354.34,154.63Z"/><path class="cls-2" d="M102.11,363.86l-8.66.7C94.68,360.65,98.28,360.32,102.11,363.86Z"/><path class="cls-2" d="M271.8,224.53c-2.41-.4-4.82-.78-7.21-1.26a8.36,8.36,0,0,1,.14-1.58c2.45.06,4.9.21,7.35.35C272,222.87,271.9,223.7,271.8,224.53Z"/><path class="cls-2" d="M99.08,358.64c-2.22.14-4.45.35-6.67.37-.37,0-1-.79-1-1.21s.67-1.26,1-1.25c2.24,0,4.47.25,6.7.41Z"/><path class="cls-2" d="M280.24,204.78c-3.3,3-5.6,1.55-7.86.62a1.37,1.37,0,0,1-.46-1.28c.27-.46,1-1.06,1.36-1C275.33,203.5,277.34,204.06,280.24,204.78Z"/><path class="cls-2" d="M269.59,230.42c-2.12,0-4.25.07-6.37-.06-.39,0-1.13-1.06-1-1.28.29-.58,1-1.39,1.49-1.37,2,.09,3.92.47,5.87.74C269.58,229.11,269.58,229.77,269.59,230.42Z"/><path class="cls-2" d="M256.07,308.67c-1.1-4.4.91-7,4.48-6.85C259,304.26,257.52,306.47,256.07,308.67Z"/><path class="cls-2" d="M282,180l8.2,1.52C287.19,184.3,283.35,183.52,282,180Z"/><path class="cls-2" d="M274,198.38c2.75-.7,5.43-1.06,8.17,1.75C278.63,200.86,276,201.39,274,198.38Z"/><path class="cls-2" d="M273.74,217.85a57,57,0,0,1-5.71-.41c-.47-.07-.9-1.06-1.12-1.7-.07-.2.64-1,.92-1,2.08.27,4.13.68,6.2,1C273.93,216.51,273.84,217.18,273.74,217.85Z"/><path class="cls-2" d="M277.12,210c-1.19,1.26-1.45,1.75-1.68,1.74-1.94-.09-3.87-.27-5.81-.42a7.86,7.86,0,0,1,.46-1.87C272.14,209.51,274.19,209.73,277.12,210Z"/><path class="cls-2" d="M84.24,383.17c-3.42-2-3.4-5.57,0-7.86Z"/><path class="cls-2" d="M640.72,374a42.49,42.49,0,0,1-2.42-4.63c-.24-.6.26-1.49.43-2.25.65.23,1.72.3,1.89.73.74,1.83,1.23,3.76,1.8,5.65Z"/><path class="cls-2" d="M649.84,371.3c.46,2.41.93,4.81,1.39,7.22l-1.43.29c-1.14-2.28-3-4.39-1.8-7.22Z"/><path class="cls-2" d="M273.24,329.79c-.27,2.3-.53,4.59-.87,7.51C269.52,334.41,269.72,332,273.24,329.79Z"/><path class="cls-2" d="M59.5,445.3c-1.83.21-3.66.53-5.49.56-.56,0-1.14-.75-1.72-1.16.45-.53.88-1.5,1.34-1.51,2-.07,3.94.15,5.91.27C59.53,444.07,59.52,444.68,59.5,445.3Z"/><path class="cls-2" d="M88.87,381.64c-.26,2.5-.52,5-.79,7.51l-1.44.15a38.63,38.63,0,0,1-.57-5.93c0-.84,1.17-1.62,1.81-2.43C88.22,381.16,88.54,381.4,88.87,381.64Z"/><path class="cls-2" d="M66.78,455.69l8.53,1.38C71.19,459.71,68.63,459.29,66.78,455.69Z"/><path class="cls-2" d="M623.23,359.64c1,2.19,2,4.37,3,6.56l-1.22.57c-2.43-1.49-3.92-3.46-3.42-6.44Z"/><path class="cls-2" d="M68.41,389.53l7.35.32c0,.52,0,1,0,1.55l-7.35.58C68.44,391.16,68.43,390.35,68.41,389.53Z"/><path class="cls-2" d="M262.62,245.53a13.9,13.9,0,0,1-.65,1.64c-2.1-.08-4.2-.16-6.29-.33,0,0,0-1.07,0-1.65Z"/><path class="cls-2" d="M335.75,146c.19.51.52,1,.4,1.17-1.11,1.69-2.3,3.33-3.47,5-.35-.32-1-.71-1-1C332.13,148.78,332.93,146.63,335.75,146Z"/><path class="cls-2" d="M219.81,223.39c-4.11.79-5.3.26-6.58-3.78l7,2.71C220.05,222.67,219.93,223,219.81,223.39Z"/><path class="cls-2" d="M113.94,373.45h-7.4C109.18,370.73,111,370.67,113.94,373.45Z"/><path class="cls-2" d="M278.48,340c-3.8-2.5-2.5-5-2.11-7.28,0-.21.9-.48,1.26-.36a1.48,1.48,0,0,1,.81,1.08C278.53,335.32,278.48,337.18,278.48,340Z"/><path class="cls-2" d="M60.4,448.93,66.69,451c-.12.35-.23.7-.35,1-2.52.49-5,.76-6.65-1.52C59.93,450,60.17,449.46,60.4,448.93Z"/><path class="cls-2" d="M269.48,123.84l-2.43,5.45c-2.41-3-.87-4.56.89-6.06Z"/><path class="cls-2" d="M258.55,253.31c-1.63,1.7-3.48,1.23-5.25,0-.31-.21-.17-1.1-.24-1.68h5.49C258.54,252.21,258.55,252.76,258.55,253.31Z"/><path class="cls-2" d="M217.5,213.34l5.89,2.79-.67,1.63-6.11-2.2C216.91,214.82,217.21,214.08,217.5,213.34Z"/><path class="cls-2" d="M662.75,383.72c3.78,1.56,4.15,3.31,1.64,7C663.8,388.22,663.33,386.2,662.75,383.72Z"/><path class="cls-2" d="M129.73,380.58l-6.95,1.09C124.9,377.83,126,377.61,129.73,380.58Z"/><path class="cls-2" d="M330.92,144.07l-2.71,5.78C326.3,146.53,327,144.89,330.92,144.07Z"/><path class="cls-2" d="M100.86,368.17h6.58c0,.43.07.86.1,1.29l-6.47.62Z"/><path class="cls-2" d="M265.6,334.23c-1.86-2.14-.64-4,.49-5.92l1.39.12c-.17,2-.33,3.95-.5,5.92Q266.29,334.28,265.6,334.23Z"/><path class="cls-2" d="M308.14,184.74c-1.66-.08-3.32-.14-5-.31a6.52,6.52,0,0,1,0-1.59c1.66-.2,3.34-.28,5-.39C308.18,183.21,308.16,184,308.14,184.74Z"/><path class="cls-2" d="M121.24,376.11c-.31.18-.64.54-.93.51-1.51-.16-3-.41-4.51-.63.26-.5.5-1.43.78-1.44,1.6-.08,3.22.06,4.83.13C121.35,375.15,121.3,375.63,121.24,376.11Z"/><path class="cls-2" d="M260.29,333.16c-1.26-2.28-1.18-4.35.68-6.13l1.29.16c-.18,2-.36,4.05-.55,6.08Z"/><path class="cls-1" d="M576.94,295.9c1.66,1,3.28,2.05,4.84,3.2C584.8,185.54,520.77,75.67,411,26A288.32,288.32,0,0,0,284.4.08l.11,4.9A283.42,283.42,0,0,1,408.93,30.43C515.91,78.84,578.69,185.35,576.94,295.9Z"/><path class="cls-1" d="M18.11,376.24A285.82,285.82,0,0,1,126,57.29l-2.82-4A290.72,290.72,0,0,0,13.74,378.67,49.06,49.06,0,0,1,18.11,376.24Z"/><path class="cls-1" d="M332,574.11A285,285,0,0,1,173,551.57a287.94,287.94,0,0,1-27-14,41.09,41.09,0,0,1-2.9,4A296.08,296.08,0,0,0,171,556,289.86,289.86,0,0,0,332.66,579Z"/></g></g></svg>