<svg xmlns="http://www.w3.org/2000/svg" viewBox="0 0 156.88 56.02"><defs><style>.cls-1{fill:#fff;}</style></defs><g id="Layer_2" data-name="Layer 2"><g id="Layer_1-2" data-name="Layer 1"><g id="Layer_2-2" data-name="Layer 2"><g id="Layer_1-2-2" data-name="Layer 1-2"><path class="cls-1" d="M126,33l2.71-.05a.61.61,0,0,0,.3-.25c-1.23-1.82-.61-3.91-.8-5.87-.15-1.55,1.78-4.28,3.27-4.77a7.81,7.81,0,0,0,2.25-.83,2.74,2.74,0,0,0,1-1.71,29.78,29.78,0,0,0-.06-3,23.82,23.82,0,0,1,.32-2.54c0-.09.27-.2.41-.2a23.12,23.12,0,0,1,3-.07,17.31,17.31,0,0,1,2.58.62,18.38,18.38,0,0,1,2.82.77,22.27,22.27,0,0,1,3.9,2,54.73,54.73,0,0,1,4.7,3.78A12.38,12.38,0,0,1,155.64,26a14.77,14.77,0,0,1,1.23,6.32c-.05.9-.5,1.77-.62,2.69-.25,1.9-1.51,3.16-2.83,4.3a6,6,0,0,1-2.72,1.17,22.73,22.73,0,0,1-4.43.46,12.87,12.87,0,0,1-2.75-.61c-.5-.12-1-.25-1.51-.33-.88-.14-1.75-.26-2.62-.37-1.84-.22-3.67-.41-5.5-.63-.73-.09-1.46-.21-2.19-.28-2.47-.2-4.93-.38-7.4-.6-.63-.05-1.25-.3-1.88-.32-.32,0-.86.24-.93.47-.4,1.55-1.1.18-1.55.12a22.12,22.12,0,0,1-3-.84L115,37c-.08,0-.15-.12-.22-.12a17.28,17.28,0,0,0-3.37-.26c-.43,0-.91.82-1.16,1.35A3.4,3.4,0,0,1,107.72,40a16.93,16.93,0,0,1-3.45.79,29.56,29.56,0,0,1-5.21-.64c-1.16-.2-2.26-.66-3.4-.92-.13,0-.54.36-.53.54.1,1.58.24,3.14.43,4.72.09.54.2,1.07.34,1.59a2,2,0,0,1-.09.37,1,1,0,0,1-.34-.13,10.36,10.36,0,0,0-1.32-.47c-1.06-.26-2.12-.43-3.18-.7a19.31,19.31,0,0,0-3.53-.93c-1.39-.09-.88-1-.93-1.62-.2-2.19-.32-4.39-.52-6.58a1,1,0,0,0-.6-.68A15.79,15.79,0,0,0,82.82,35c-1.81-.11-3.62-.15-5.43-.25-1.11-.07-2.23-.2-3.34-.31s-2.2-.18-3.31-.28A22.53,22.53,0,0,1,67,33.71a13.65,13.65,0,0,1-4.08-1.64,10.79,10.79,0,0,1-2.6-2.83c-.92-1.26-.63-4.79.51-5.84a5.67,5.67,0,0,1,2.2-1c1.54-.46,3.12-.81,4.68-1.21a2.36,2.36,0,0,1,.53,0c3.88-.08,7.76-.26,11.63-.25a59.92,59.92,0,0,1,6.27.61c1.43.17,2.85.38,4.27.64,1,.17,2,.47,3,.73a.28.28,0,0,1,.13.21,37.1,37.1,0,0,0,.62,5.85c.37,1.44.19,3,1.25,4.39,1.64,2.23,3.7,2.07,5.87,2a3.49,3.49,0,0,0,3-2.75,9.09,9.09,0,0,0,.33-2.44c-.14-1.35-.58-2.67-.81-4a11.06,11.06,0,0,1,0-1.91,5.24,5.24,0,0,0-.33-.94c0-.13-.12-.3-.07-.41a.46.46,0,0,1,.34-.19c1.34,0,2.68-.13,4-.08.29,0,.64.59.81,1a7.08,7.08,0,0,1,.44,1.49c.27,1.25.5,2.53.8,3.78a22.12,22.12,0,0,0,.86,3.09c.08.19.79.23,1.2.19a21.33,21.33,0,0,0,2.63-.37.91.91,0,0,0,.57-.55c.35-1.62.65-3.25,1-4.88v-.35l.63-3.76,0-.75c.21-1.73.43-3.45.67-5.18.19-1.31.39-2.62.66-3.91.29-1.47.67-2.93,1-4.39a1.38,1.38,0,0,0,0-.35c.2-1.82.39-3.66.6-5.48a14,14,0,0,1,.33-1.83c0-.12.32-.28.46-.26.5.07,1,.24,1.48.34,1.16.23,2.33.43,3.49.68,1.45.29,2.9.62,4.36.9.3,0,.59.09.89.15,1.54.52.31,1.41.23,2.12a9.67,9.67,0,0,1-.36,1.48c-.34,1.16-.67,2.32-.93,3.5s-.43,2.29-.73,3.41-.65,1.91-.93,2.87c-.19.61-.3,1.23-.46,1.84-.32,1.16-.67,2.31-1,3.47-.26.94-.48,1.89-.75,2.82s-.66,2.07-.93,3.11c-.18.62-.27,1.27-.43,1.88-.31,1.13-.65,2.25-.93,3.36a1.63,1.63,0,0,0,0,.85c0,.11.37.19.57.18l2.32-.05ZM76.28,24.2a14.33,14.33,0,0,0-2.9.51c-1.16.45-1.19,3.08-.34,4.13a7.21,7.21,0,0,0,4.6,2.48c1.82.33,3.68.42,5.53.63a3.26,3.26,0,0,1,.44.15c.19,0,.53.09.55,0a2.36,2.36,0,0,0,.17-.87c0-.16-.27-.31-.29-.47-.15-1.4-.22-2.82-.41-4.22A2.81,2.81,0,0,0,83,25a3.1,3.1,0,0,0-1.66-.41Zm71.58,10.47a2.3,2.3,0,0,0,2.36-2.24,1.47,1.47,0,0,0,0-.21,9.2,9.2,0,0,0-.51-3.12A14.78,14.78,0,0,0,147.17,25a16.25,16.25,0,0,0-3.73-2.45,5,5,0,0,0-1.26-.38,4.92,4.92,0,0,1,1.07.91,16.8,16.8,0,0,1,2.3,3.6,11.33,11.33,0,0,1,.15,3.58,4.76,4.76,0,0,1-.07,1c-.18.79-.42,1.57-.61,2.36a.38.38,0,0,0,.16.32l2.68.76ZM134.13,28a2.27,2.27,0,0,0,2,2.08,10.55,10.55,0,0,0,2.51-.12A2.9,2.9,0,0,0,140,28.61a1.33,1.33,0,0,0-.23-1.23c-1.13-1.27-2.37-2.12-4.29-1.42A1.75,1.75,0,0,0,134.13,28Z"/><path class="cls-1" d="M58.77,28.39a50.41,50.41,0,0,1,0,5.07c0,.47-.88,1-1.45,1.27a20.15,20.15,0,0,1-2.64,1.05c-.81.31-1.65.55-2.45.9a19.9,19.9,0,0,0-1.87,1l-.25.12a1.14,1.14,0,0,1-.13-.3c0-2.08,0-4.16-.13-6.23-.22-6.06-.48-12.11-.73-18.16a.57.57,0,0,0-.08-.34c-1.12-1.38.32-1.33,1-1.6,1.05-.45,2.14-.81,3.22-1.17.6-.19,1.24-.29,1.84-.47s1.17-.44,1.76-.64a14.43,14.43,0,0,1,1.73-.53c.86-.18,1.75-.23,2.61-.43,1.57-.34,3.1-.78,4.67-1.19a.28.28,0,0,1,.13,0l5.28-.49C73,6.08,75,5.81,76.86,5.8a14.88,14.88,0,0,1,3.44.62,4.7,4.7,0,0,1,2,.91,2.67,2.67,0,0,1,.82,1.78c0,1.59.21,3.33-.38,4.72a8.33,8.33,0,0,1-3.15,3.3,18,18,0,0,1-4.29,1.6c-.75.23-1.56.27-2.33.47s-1.62.5-2.43.76c-.53.16-1,.31-1.58.46l-1.74.41L62.35,22c-1.16.27-2.33.55-3.49.85a.53.53,0,0,0-.3.41l.11,5.17ZM71,12.17c0-1.85-3-3.06-4.77-2.18a23.47,23.47,0,0,1-4.12,1.21,14.82,14.82,0,0,0-1.73.49c-.34.13-.84.47-.85.72,0,2.21.1,4.41.15,6.62a.55.55,0,0,0,.23.42c.12.05.31-.06.46-.13s.25-.23.39-.27c1-.27,1.93-.48,2.87-.79,1.48-.48,3-1,4.42-1.54A5.46,5.46,0,0,0,71,12.17Z"/><path class="cls-1" d="M21.68,40.34c-2.55-.06-5.08-.12-7.62-.2-1.68-.06-3.36-.16-5-.25s-3.35-.2-5-.32c-1.22-.08-2.44-.16-3.65-.31-.17,0-.4-.5-.39-.76.05-1,.21-2.11.28-3.16.12-1.55.29-3.11.28-4.66A15.49,15.49,0,0,0,.11,28a1.29,1.29,0,0,1,0-.34c1-.11,2-.21,3-.27.12,0,.35.23.37.38.16.93.27,1.87.42,2.8s.29,1.7.49,2.54c0,.11.36.23.54.21,1.71-.14,3.4-.33,5.11-.5,1.44-.14,2.88-.26,4.31-.42,1.26-.14,2.52-.32,3.77-.48a1.75,1.75,0,0,0,1.48-2,1.67,1.67,0,0,0-.35-.82,6.22,6.22,0,0,1-.53-2c-.16-.91-.18-1.85-.4-2.75-.31-1.25-.74-2.47-1.08-3.7-.17-.58-.3-1.18-.51-1.75-.41-1.21-.89-2.4-1.27-3.61-.1-.29,0-.92.09-.95a8.87,8.87,0,0,1,3.38-.6c.46.07.73,1.51,1,2.35s.74,1.88,1.06,2.82c.18.46.37.92.51,1.38.42,1.43.85,2.86,1.19,4.31.22.94.28,1.92.47,2.87s.5,2,.74,3a4.19,4.19,0,0,1,.09.7c.18,2.8.38,5.6.51,8.39,0,.26-.46.7-.76.77A12.29,12.29,0,0,1,21.68,40.34Z"/><path class="cls-1" d="M48.86,32.93,49,37a.69.69,0,0,1-.46.49c-.93.07-1.88,0-2.8.06a32.46,32.46,0,0,0-3.24.77c-1,.26-2.09.54-3.14.84-.27.07-.59.42-.78.34a10.17,10.17,0,0,1-1.3-.78.7.7,0,0,0-.55-.08c-1,.55-1.85,1.15-2.78,1.71a11,11,0,0,1-1.1.52c-.13.06-.36.19-.39.15a1.36,1.36,0,0,1-.44-.66c-.18-1.72-.27-3.46-.48-5.19s-.56-3.69-.84-5.53l-.44-3c-.29-1.86-.6-3.71-.86-5.57-.1-.76-.4-1.75,0-2.25s1.37-.75,2.11-1.05c1.16-.43,2.35-.8,3.53-1.2.12,0,.31-.1.36,0a.66.66,0,0,1,.21.44c.23,4.18.43,8.36.67,12.54.1,1.74.26,3.48.48,5.2,0,.14.64.29,1,.29a7,7,0,0,0,1-.28c1-.18,2-.38,2.92-.47a4.75,4.75,0,0,1,1.17.28,1.26,1.26,0,0,0,.54-.1,18.1,18.1,0,0,0-.27-2.2c0-.07-.08-.12-.1-.19-.14-1-.26-2-.42-3-.1-.62-.29-1.24-.4-1.87,0-.12.07-.37.16-.39.71-.16,1.42-.3,2.12-.41,1.14-.17,2.28-.34,3.41-.47.18,0,.54.21.55.36.26,2.16.47,4.33.7,6.51A.46.46,0,0,0,48.86,32.93Z"/><path class="cls-1" d="M25.16,37.07a31.72,31.72,0,0,0-.08-3.38c-.18-1.36-.53-2.68-.8-4v-.53l-.81-3.53c-.17-.73-.27-1.48-.46-2.21s-.51-1.73-.76-2.59a1.42,1.42,0,0,1,0-.46,1.31,1.31,0,0,1,.38.09c.51.18,1,.41,1.55.55,1.41.36,2.83.69,4.23,1a.27.27,0,0,1,.17.19c.17.81.37,1.61.46,2.43.19,1.58.26,3.17.45,4.74.26,2,.58,4,.88,6a29.8,29.8,0,0,0,.91,5.38c.65,1.89-1.08,1-1.56,1.55a8.58,8.58,0,0,1-2.62,1.47c-1.19.58-2.39,1.12-3.57,1.7A45.35,45.35,0,0,0,18.42,48c-1.27.81-1.47,0-1.89-.77-.85-1.67-1.74-3.32-2.59-4.95-.2-.38-.36-.8-.54-1.2a10,10,0,0,1,1.22-.2c1.14,0,2.28-.12,3.42-.08,1.81.05,3.6.19,5.4.26.57,0,1.34.18,1.66-.12s.14-1,.13-1.61l0-2.23Z"/><path class="cls-1" d="M36.31,3.62a8.66,8.66,0,0,0,0,1.25c.16,1.13-.72,1.24-1.4,1.34-1.66.24-3.35.28-5,.52-1.25.18-2.48.51-3.72.81-1.59.38-3.2.75-4.77,1.22s-2.8,1.06-4.2,1.53c-1.19.43-2.42.75-3.57,1.26-1.87.81-3.68,1.73-5.51,2.59-.38.18-1.06.51-1.11.43a11.65,11.65,0,0,1-1-1.86,5.34,5.34,0,0,1-.42-1.09c-.3-1.17.68-1.4,1.4-1.77C8.28,9.19,9.56,8.55,10.87,8c.79-.35,1.65-.55,2.46-.86s1.42-.62,2.13-.94c.52-.22,1-.46,1.55-.64,1.14-.4,2.29-.77,3.44-1.15.51-.16,1-.33,1.52-.44.82-.17,1.67-.26,2.49-.44,1.49-.36,3-.77,4.46-1.1h.13c1.62-.26,3.15-.39,4.73-.58a12.62,12.62,0,0,0,1.6-.44c.71-.17,1,.1.92.82A11.2,11.2,0,0,0,36.31,3.62Z"/><path class="cls-1" d="M114.78,53.18c-2.4,0-4.72-1.57-4.69-3.34,0-1.32-.38-2.76.74-3.87a7.31,7.31,0,0,1,1.78-1.59,4.45,4.45,0,0,1,5.44,1.09,4.21,4.21,0,0,1,1.22,2.23C119.46,51.15,117.76,53.12,114.78,53.18Z"/><path class="cls-1" d="M104.47,46.79c2.91-.06,4.93,1.74,5,4.4,0,2.12-2.11,4.81-3.84,4.83-2.74.06-5.35-1.89-5.5-3.75C99.82,48.86,102.29,46.51,104.47,46.79Z"/><path class="cls-1" d="M45.15,46.18c-1.52,0-3-1.29-2.76-2.77a3.32,3.32,0,0,1,1.84-2.3c1.66-.38,3.25.53,3.26,1.37C47.57,45.19,47,46.14,45.15,46.18Z"/><path class="cls-1" d="M39.67,47.72c-1.32,0-2.84-1.21-2.86-2.33s1.26-2.8,2.26-2.82c1.72,0,3.28,1.16,3.29,2.53A2.77,2.77,0,0,1,39.67,47.72Z"/><path class="cls-1" d="M46.56,50a1.94,1.94,0,0,1-1.38,2.36l-.29,0c-2.2.23-3.49-.64-3.5-1.93,0-1.62,1.1-3.2,2.28-3.23a2.78,2.78,0,0,1,2.89,2.65Z"/></g></g></g></g></svg>