<svg xmlns="http://www.w3.org/2000/svg" viewBox="0 0 56.13 157.03"><defs><style>.cls-1{fill:#fff;}</style></defs><g id="Layer_2" data-name="Layer 2"><g id="Layer_1-2" data-name="Layer 1"><path class="cls-1" d="M33.51,30.87c0-.9,0-1.81,0-2.71,0-.11-.23-.32-.24-.31-1.85,1.2-3.92.53-5.89.68-1.55.12-4.24-1.87-4.69-3.37a8,8,0,0,0-.79-2.27,2.75,2.75,0,0,0-1.68-1,29.58,29.58,0,0,0-3,0,21.75,21.75,0,0,1-2.53-.38c-.09,0-.19-.27-.19-.41a21.73,21.73,0,0,1,0-3,17.06,17.06,0,0,1,.67-2.57A18.17,18.17,0,0,1,16,12.73a21.8,21.8,0,0,1,2.12-3.85A56.79,56.79,0,0,1,22,4.26a12.46,12.46,0,0,1,5.2-3.16A14.91,14.91,0,0,1,33.55,0c.9.07,1.76.54,2.67.68,1.9.29,3.13,1.58,4.24,2.92a6,6,0,0,1,1.11,2.75,22.82,22.82,0,0,1,.37,4.44,13,13,0,0,1-.67,2.73c-.13.5-.27,1-.36,1.51-.16.87-.3,1.74-.43,2.61-.26,1.83-.49,3.66-.75,5.48-.1.73-.24,1.46-.32,2.19-.26,2.46-.49,4.92-.76,7.38-.07.63-.33,1.24-.36,1.87,0,.32.22.87.45.94,1.54.44.15,1.11.08,1.56a22.15,22.15,0,0,1-.9,3c-.2.63-.41,1.25-.62,1.87,0,.08-.12.15-.13.22a17.65,17.65,0,0,0-.33,3.37c0,.43.8.92,1.33,1.18a3.39,3.39,0,0,1,2,2.61,17.2,17.2,0,0,1,.72,3.46,30.6,30.6,0,0,1-.75,5.2c-.23,1.15-.71,2.24-1,3.38,0,.13.35.55.53.54,1.58-.07,3.15-.17,4.73-.33A16.3,16.3,0,0,0,46,61.26c.11,0,.24.06.36.09,0,.11-.08.23-.13.34A10,10,0,0,0,45.73,63c-.28,1.05-.48,2.11-.77,3.16a20,20,0,0,0-1,3.51c-.12,1.39-1,.86-1.64.9-2.2.15-4.4.22-6.59.38a1,1,0,0,0-.7.58,17.13,17.13,0,0,0-.44,2.56c-.15,1.81-.23,3.62-.37,5.43-.09,1.11-.25,2.22-.38,3.33s-.23,2.2-.35,3.3A22.32,22.32,0,0,1,33,89.88a13.62,13.62,0,0,1-1.73,4.05,10.85,10.85,0,0,1-2.88,2.54c-1.28.89-4.81.52-5.83-.64a5.61,5.61,0,0,1-1-2.22c-.43-1.55-.75-3.14-1.11-4.71a2.32,2.32,0,0,1,0-.53c0-3.88-.09-7.76,0-11.63a60.15,60.15,0,0,1,.74-6.25c.2-1.43.44-2.85.73-4.26.2-1,.52-2,.8-2.94a.26.26,0,0,1,.21-.13,36.68,36.68,0,0,0,5.86-.49c1.45-.34,3-.13,4.42-1.16,2.26-1.59,2.15-3.65,2.09-5.83a3.48,3.48,0,0,0-2.68-3,9.06,9.06,0,0,0-2.43-.39c-1.36.12-2.69.53-4.05.73-.62.1-1.28,0-1.91,0a4.39,4.39,0,0,0-.95.31c-.13,0-.3.11-.41.06a.43.43,0,0,1-.18-.35c0-1.34-.08-2.68,0-4,0-.29.61-.62,1-.79a6.91,6.91,0,0,1,1.5-.4c1.26-.25,2.54-.45,3.8-.72a23.1,23.1,0,0,0,3.1-.8c.2-.07.25-.78.22-1.19A22.08,22.08,0,0,0,32,42.5a.91.91,0,0,0-.54-.58c-1.61-.39-3.24-.72-4.86-1.07-.11,0-.24,0-.35,0l-3.75-.71c-.24,0-.5,0-.75,0-1.72-.25-3.44-.5-5.16-.78-1.31-.22-2.61-.45-3.9-.74-1.46-.33-2.91-.74-4.36-1.11a2,2,0,0,0-.35,0c-1.82-.23-3.65-.46-5.47-.71a14.32,14.32,0,0,1-1.82-.37c-.12,0-.27-.33-.25-.47.08-.5.26-1,.37-1.47.26-1.15.48-2.32.75-3.47.33-1.45.69-2.89,1-4.34a8.74,8.74,0,0,1,.17-.89c.55-1.53,1.41-.28,2.12-.19A9.07,9.07,0,0,1,6.32,26c1.16.36,2.31.72,3.48,1s2.28.48,3.4.8,1.89.69,2.85,1c.6.2,1.22.32,1.83.5,1.15.34,2.29.71,3.44,1.05.94.28,1.88.52,2.81.81s2.05.7,3.09,1c.61.19,1.26.29,1.87.47,1.12.33,2.23.69,3.34,1a1.76,1.76,0,0,0,.85,0c.11,0,.19-.37.19-.57,0-.77,0-1.54,0-2.32ZM23.69,80.4a13.75,13.75,0,0,0,.45,2.91c.42,1.17,3.05,1.26,4.12.43a7.26,7.26,0,0,0,2.58-4.55c.37-1.81.5-3.67.75-5.51a3.89,3.89,0,0,1,.16-.44c0-.19.1-.53.05-.55a2.39,2.39,0,0,0-.87-.19c-.16,0-.31.27-.47.28-1.41.12-2.83.16-4.23.32a2.85,2.85,0,0,0-1.65.63,3.07,3.07,0,0,0-.44,1.65C24,77,23.85,78.58,23.69,80.4Zm12-71.34a2.3,2.3,0,0,0-2.39-2.41,9.55,9.55,0,0,0-3.14.44A15,15,0,0,0,26,9.54a16.66,16.66,0,0,0-2.53,3.68,5.09,5.09,0,0,0-.41,1.25A5.17,5.17,0,0,1,24,13.42a16.66,16.66,0,0,1,3.65-2.22,11.25,11.25,0,0,1,3.58-.07,4.19,4.19,0,0,1,1,.09c.78.2,1.56.45,2.34.66a.4.4,0,0,0,.33-.15C35.21,10.74,35.51,9.74,35.71,9.06ZM28.76,22.65a2.27,2.27,0,0,0,2.12-2,10.46,10.46,0,0,0-.06-2.51,2.93,2.93,0,0,0-1.35-1.37,1.37,1.37,0,0,0-1.24.2c-1.29,1.11-2.17,2.33-1.51,4.26C27.08,22.21,27.5,22.72,28.76,22.65Z"/><path class="cls-1" d="M27.5,98a47.58,47.58,0,0,1,5.07.07c.47,0,1,.9,1.24,1.47a20.29,20.29,0,0,1,1,2.66c.29.82.51,1.67.84,2.47s.63,1.26.95,1.89l.12.26a1,1,0,0,1-.31.12c-2.08,0-4.15-.08-6.23,0-6.06.09-12.11.22-18.17.34a.54.54,0,0,0-.34.07c-1.4,1.09-1.32-.35-1.58-1-.43-1.06-.76-2.16-1.1-3.25-.18-.6-.26-1.24-.43-1.85s-.41-1.18-.6-1.77a15,15,0,0,1-.5-1.74c-.16-.87-.19-1.76-.37-2.62C6.78,93.54,6.38,92,6,90.42a.61.61,0,0,1,0-.13c-.13-1.76-.25-3.52-.37-5.28s-.35-3.72-.32-5.58A14.49,14.49,0,0,1,6,76a4.8,4.8,0,0,1,.95-2,2.72,2.72,0,0,1,1.8-.78c1.59,0,3.34-.14,4.71.48a8.33,8.33,0,0,1,3.23,3.22,17.68,17.68,0,0,1,1.51,4.32c.22.76.24,1.57.42,2.34s.47,1.63.71,2.45c.15.53.29,1,.42,1.59s.26,1.17.38,1.75l1.05,4.91c.25,1.17.5,2.34.78,3.51a.53.53,0,0,0,.4.31c1.72,0,3.44,0,5.17,0A0,0,0,0,1,27.5,98ZM11.55,85.39c-1.85,0-3.12,2.92-2.28,4.72a23.7,23.7,0,0,1,1.12,4.15A16.61,16.61,0,0,0,10.84,96c.13.34.45.85.7.86,2.21.07,4.42,0,6.63,0a.55.55,0,0,0,.42-.22c.05-.12-.05-.32-.12-.47s-.22-.25-.26-.39c-.25-1-.44-1.94-.73-2.89-.45-1.49-.93-3-1.44-4.45A5.47,5.47,0,0,0,11.55,85.39Z"/><path class="cls-1" d="M38.66,135.34c-.12,2.54-.23,5.07-.37,7.61-.09,1.68-.23,3.35-.36,5s-.27,3.35-.42,5c-.11,1.22-.21,2.44-.39,3.65,0,.17-.51.39-.77.37-1.05-.07-2.1-.25-3.15-.35-1.55-.15-3.11-.35-4.66-.38a15.81,15.81,0,0,0-2.71.39,1.2,1.2,0,0,1-.34,0c-.09-1-.17-2-.21-3,0-.12.24-.34.39-.36.93-.14,1.87-.23,2.81-.36s1.7-.25,2.55-.43c.11,0,.23-.36.22-.54-.11-1.71-.26-3.41-.39-5.12-.11-1.44-.2-2.88-.33-4.32-.11-1.26-.27-2.52-.4-3.78a1.74,1.74,0,0,0-2.76-1.19,6.22,6.22,0,0,1-2.05.49c-.91.14-1.85.14-2.75.34-1.26.28-2.49.69-3.73,1-.58.16-1.18.28-1.76.47-1.21.39-2.41.84-3.63,1.2-.29.09-.92,0-.95-.11a8.91,8.91,0,0,1-.53-3.4c.08-.46,1.53-.69,2.37-1s1.9-.7,2.85-1c.46-.17.92-.35,1.39-.48,1.44-.38,2.87-.78,4.33-1.09.95-.2,1.93-.24,2.88-.41s2-.46,3-.68a4.15,4.15,0,0,1,.7-.07c2.8-.12,5.6-.26,8.4-.33.26,0,.69.47.75.77A13.64,13.64,0,0,1,38.66,135.34Z"/><path class="cls-1" d="M31.83,108c1.37,0,2.73,0,4.1,0a.69.69,0,0,1,.48.47c.05.93-.07,1.88,0,2.8a33.18,33.18,0,0,0,.7,3.26c.24,1,.5,2.1.77,3.15.07.28.41.6.33.79a9.78,9.78,0,0,1-.81,1.28.7.7,0,0,0-.09.55c.53,1,1.11,1.88,1.65,2.82a11,11,0,0,1,.49,1.11c.06.13.19.36.15.39a1.38,1.38,0,0,1-.67.43c-1.73.14-3.47.19-5.2.37s-3.7.48-5.55.72l-3,.37c-1.86.25-3.72.52-5.59.74-.76.09-1.75.37-2.25,0s-.72-1.39-1-2.14c-.41-1.17-.75-2.36-1.12-3.55,0-.12-.1-.31,0-.36a.69.69,0,0,1,.45-.2c4.18-.14,8.37-.25,12.55-.4,1.74-.06,3.48-.19,5.21-.37.14,0,.3-.63.31-1a6.08,6.08,0,0,0-.26-1c-.16-1-.34-2-.41-2.93a4.89,4.89,0,0,1,.31-1.16,1.27,1.27,0,0,0-.09-.55c-.74,0-1.47.14-2.2.23-.07,0-.13.08-.2.09-1,.12-2,.22-3,.36-.63.09-1.25.26-1.88.36-.12,0-.37-.08-.39-.17q-.22-1.07-.36-2.13c-.15-1.14-.3-2.28-.4-3.42,0-.18.22-.53.37-.54,2.17-.21,4.34-.38,6.52-.56A.54.54,0,0,0,31.83,108Z"/><path class="cls-1" d="M35.46,131.79a31.73,31.73,0,0,0-3.38,0c-1.36.15-2.69.48-4,.72-.17,0-.36,0-.53,0l-3.54.73c-.74.15-1.49.24-2.22.41s-1.74.48-2.61.71a1.75,1.75,0,0,1-.46,0c0-.13.06-.25.1-.38.19-.51.43-1,.58-1.54.39-1.4.75-2.81,1.13-4.21a.3.3,0,0,1,.2-.16c.81-.15,1.62-.34,2.44-.41,1.58-.15,3.17-.19,4.75-.35,2-.21,4-.49,6-.75a30,30,0,0,0,5.4-.79c1.9-.61,1,1.1,1.52,1.59a8.5,8.5,0,0,1,1.41,2.65c.56,1.2,1.07,2.41,1.62,3.61a46.28,46.28,0,0,0,2.4,5.14c.79,1.29,0,1.47-.81,1.87-1.68.82-3.35,1.67-5,2.49-.39.19-.81.34-1.21.51a10.26,10.26,0,0,1-.18-1.22c0-1.14-.07-2.29,0-3.43.09-1.8.26-3.59.37-5.39,0-.57.21-1.33-.08-1.66s-1-.16-1.61-.17c-.74,0-1.48,0-2.23,0Z"/><path class="cls-1" d="M2.26,119.92a10.41,10.41,0,0,0,1.25,0c1.13-.14,1.22.74,1.31,1.43.2,1.66.21,3.35.41,5,.15,1.25.46,2.49.73,3.73.35,1.6.68,3.22,1.12,4.8s1,2.82,1.44,4.23c.4,1.2.7,2.44,1.18,3.6.77,1.88,1.65,3.71,2.47,5.56.17.38.49,1.07.41,1.12a11.42,11.42,0,0,1-1.88,1,6.3,6.3,0,0,1-1.1.4c-1.18.27-1.39-.71-1.74-1.44-.63-1.29-1.25-2.58-1.8-3.9-.33-.8-.51-1.66-.81-2.48s-.59-1.43-.89-2.15c-.21-.52-.44-1-.61-1.56-.37-1.15-.72-2.31-1.07-3.47-.15-.51-.31-1-.41-1.53-.15-.82-.22-1.67-.39-2.49-.32-1.5-.7-3-1-4.49a.5.5,0,0,1,0-.13C.66,125.53.56,124,.4,122.41A11.63,11.63,0,0,0,0,120.8c-.16-.71.12-1,.84-.9A10.59,10.59,0,0,0,2.26,119.92Z"/><path class="cls-1" d="M53.49,42.53c0,2.4-1.67,4.69-3.44,4.62-1.32-.06-2.77.32-3.85-.82a7,7,0,0,1-1.55-1.82,4.44,4.44,0,0,1,1.2-5.41,4.13,4.13,0,0,1,2.26-1.17C51.56,37.81,53.49,39.55,53.49,42.53Z"/><path class="cls-1" d="M46.88,52.7c0-2.91,1.85-4.89,4.51-4.87,2.12,0,4.76,2.21,4.74,3.94,0,2.74-2,5.31-3.86,5.42C48.85,57.4,46.55,54.88,46.88,52.7Z"/><path class="cls-1" d="M45,112c0,1.52-1.36,3-2.83,2.7a3.35,3.35,0,0,1-2.26-1.89c-.35-1.67.6-3.24,1.44-3.23C44.06,109.56,45,110.16,45,112Z"/><path class="cls-1" d="M46.42,117.51c0,1.32-1.27,2.81-2.39,2.81S41.26,119,41.26,118c0-1.72,1.23-3.26,2.6-3.24A2.78,2.78,0,0,1,46.42,117.51Z"/><path class="cls-1" d="M48.88,110.67a1.93,1.93,0,0,1,2.37,1.72c.18,2.2-.71,3.48-2,3.46-1.62,0-3.18-1.17-3.18-2.35A2.77,2.77,0,0,1,48.88,110.67Z"/></g></g></svg>